<mxfile host="app.diagrams.net" modified="2021-11-20T06:56:05.461Z" agent="5.0 (Windows NT 10.0; Win64; x64) AppleWebKit/537.36 (KHTML, like Gecko) Chrome/96.0.4664.45 Safari/537.36" etag="ZpFoRMo3tNgoyztzEh_X" version="15.8.2" type="github">
  <diagram id="oUxfFxy6zl93vQ9waw2B" name="第 1 页">
    <mxGraphModel dx="1422" dy="754" grid="1" gridSize="10" guides="1" tooltips="1" connect="1" arrows="1" fold="1" page="1" pageScale="1" pageWidth="827" pageHeight="1169" math="0" shadow="0">
      <root>
        <mxCell id="0" />
        <mxCell id="1" parent="0" />
        <mxCell id="k8JfPUvIPoXstixw2ibf-1" value="" style="shape=image;verticalLabelPosition=bottom;labelBackgroundColor=#ffffff;verticalAlign=top;aspect=fixed;imageAspect=0;image=data:image/png,iVBORw0KGgoAAAANSUhEUgAAAtwAAADMCAYAAABA4HTbAAAgAElEQVR4nOydd5hU9fnFP7fNnT7bF5alI4iAgGLBBlbsRiO2aDRq7LElGmOLURNNsSUaa4zEmGjUWBPFFht2CSpNitRdts2W6bf//pj5XncRYSEmkfzmPA+PAjt3ZnaZ93vu+55zXsnzPI9ekCSJ9f6ojDLK6AckSQL4f/X5aWtrQ1EULMsiFAqRyWTwPI9oNEomkyEcDlNVVfWljy8UCnR1dVEoFEgkEqiqimVZGIZBIBBAURQ8z8PzPFzXxXEcJElC0zRUVSUej9Pa2kooFCKfzxMKhcjlciiKguM4yLJMdXU1iqJs0fvzPI9kMuk/vyRJyLKMZVm4rks0GsUwDABc1yUcDpPP59F1nYqKij7X6u7upqKignw+T1tbGw0NDXR1dSHLMq7rYpqm//cAtbW1W/Say/j64f9jbShj60dnZyeSJGFZFlCscQCqquK6LoqioKoqiUSC5uZmgsEgsixj2zaGYaAoCpqmYVkWtm2jaRq6ruN5HpIkUSgUCIVCxGIxZFne4Gvo6uryn8swDCRJIhAI+K9FluUv1Nr+wPM8Ojo6UFWVbDZLKBTqw38rKipIJpN+vQ8EAhiGQSgUwnVdqqurN3p9ca1sNotlWWSzWTb8Dssoo4wy+oFgMOgXwd4FVZZlYrEYhmF8Kclob28nnU4TDoeprKzENE3S6bRf3MTjDMMgn89j2zaqqiJJErFYjHg8DhQPgXw+75MaWZbRNI1AIOAT4y1FoVDAdV00TUOWZZ/IBwIBdF3HNM0+h4hhGESj0Q2+Z3Eo6LrOgAEDaGlpQdf1L7zXTCZTJttllFHGfx1VVVV+/dQ0DaBPEwTAtm2ampr8RojjONi27ddKx3HwPA9ZlvE8D8dxUBSFfD5PbW0tiUTiS8k2QCKRIJ1Oo2kahmEgyzKyLFMoFHxS293dvdnvTTzWNE0CgQCA39QRzRpVVYEiOVdV1SffjuNgmma/nicSiRAKhWhoaCgT7jLKKGPLEY/HUVUVRVHIZrOEw2GCwSDpdBrHcQiFQhQKhT6P6ezspLm5Gc/zfFJsWZZPlBVFQZIkv4uiqiq6rqPrOrFYjLq6Or/4AwwcOBDbtoEiYRXdEFHoRcd4SyBuJMThIg6GcDhMTU0N6XTaJ9qapvmdnVwu96XXlGUZXdcZPHgwANlsFigeLK7rMmjQoC1+vWWUUUYZXzVEs0N0rGVZ9ok1QCAQIBAIkE6nyeVySJJEOBxGVVU0TSMYDPqktlAooGkatbW1/Zo8yrLs18Z4PI4kSTiOg+u6fq1f/4zpDzo6Ovzpoq7rOI7jn0N1dXV4noeiKP7NgyRJ6LruN2DS6XS/n0vXdSRJQuotKREdojLKKKOMMsooo4wyyihjy9F72lnucJdRRhlllFFGGWWUUca/EWrv3wghe9nYUUYZm4//z8aoQqFAd3c3uq73MbZYltVHWy1GiKZp+lptIQ8RY8FgMLhFJpienh7/+YTGz/M831BZV1fna/L6g66uLt9QI8aIqqpi23YfjXUqlSKfz/sjTs/zCAaD/vuWJGmjxtEy/vfx/7k2lPH1QzKZRNd1otFovx+TSqV8T44sy76BUJgfhYFS1F9JknyfzeZAyPQymUwfHbXQbkNRhmfbNqFQyJdruK7br3PDcRza29sBCIVC/vUCgQC5XI4hQ4Z84TErVqxA13VfIiOMoD09PQwZMmSDGvQNcen+nz5llFFGGV8CoUsWphihxRamRUG0bdv2TTiClGYyGTRNI5FI+AVwc9He3o5t2z7JF7pBQcAtyyKdTlNZWdmv6zmOg2EYvr48kUiQz+dRVRXTNHFd1y+y0WgU0zSRJAlFUXz9OBSLblmqV0YZZWwuOjs7MQyDurq6LU5Z6g3DMEilUr7meXOaD1D067S0tPgNBZEGJXw2UKybW2r4Nk3TT6wKh8NomtYnmUp4cno3NCRJIp/P4zgONTU1/XoeRVEYMGAAruvS2traxzsUi8U2+JhoNIplWUSjUd/Y73kew4YN26z3WCbcZZRRxr8MYRgEfGOJKJSAb06xbdvvWoiJWk1NDcFgcIueVxRoTdMIhUK+wVEcArZt+0TYtm3fIb8piGvKsoxpmn1SREKhUJ+OhizLvjlUvGfhZldV1Td/bsyJX0YZZZQBkMvl6OzsRNd1/wb+X4HruvT09PgkW9M0CoWCH8W6Oeid1CHSSgC/xva3odEbXV1dfoSgrusEg0EymQzRaNQ3rYvUEFHHRRMlEAgQiUS+lChvDLIsU1NTQ2trK4FAYKOkvaamhjVr1vgJJQ0NDZv9fFDWcJdRRhkbQHNzMytXruz310uSRDAYxLZtwuGwn9yhKIo/flQUhVAohGma5HI5dF2nsrJys8m2YRi0tLTQ2tqKaZoEg8E+Ga2i+yHyvEUmtiRJ/XaWi8eLeMFMJkMgEPBvHNZHJBIhn89jmia2bRMMBn2pTE9PT1lKUEYZZWwUhUKBbDZLNpv1E0FkWd6iyDsB13VJpVI4juOT5e7ubv/amxuZKq4hdg2IBA8R2yoSl/qLZDLpTwcFsYZiPXVdF8MwME3T/3MxPS0UCv75sTGy7bouq1ev9h+/PjRNo7GxEV3XyeVyXxr1J2SBnudtMdmGcoe7jDK2arS3t5PL5Rg6dOhXek0R6ySWyfQHsViMZDLpyzhEt7c3eXVdl0gkgqqqm6UfhKL+tbOz01+yY5qm3z0WUhVxgIixo5C1mKbp56H2B+KmQegJg8Egqqr6GdwbQigU8nNoc7kc+XyeSCRCfX39VzISLqOMMv430dTU5Dceei/CEsu2emdF9wf5fB7DMPzdCGJXQTQaxXEcwuEwhUKBzs7OfksxoFjjRNNCURTfiyN03WJBzsZgGAbd3d3+exMTUdM0KRQK/gTUMAxUVSUYDPo1Vei0N0V6Hcehra0NWZaJRCLkcrmNEvNEIrHJbv/mnlcbQp9YQChvmiyjjC3Ff8IYJQL3c7mcX0wdx6GioqJPNnV/ITTXokALYmxZFuFwGNu2/Q2Q/YFt27S3t/udECHv8DzPv259fX2/riUItCjEYpwoRori+qLYC+OM+DOR3w1fXixFJ15IP74M3d3d/hg1Eon41+2NQqFALpfD8zzC4bC/AKiMMsqmyTK+DJ7n0dzc7Jv/xDItWZbJ5XJEo1Fc192o8VrI85LJZB+NtqjvYq+B+FrTNP0mQDwe97f69gfNzc1EIhGfHNu27U/4xDV6k3hRk8XGReG18TzPJ+vivBBSRPh8m6X4XvTO8t4QbNumra3Nr829txIbhtHvc+erwoa4dJlwl1HGV4R/56Hqui5dXV2YpkkoFPILmOj0VlRUbLbhMJvNkk6nfa2zKJbi9Ys16Z7nMWDAgH5fV+iqRRHv3QERB8Cmruc4DplMps94VbjhxZZHMdYUNwzCIS+K+ab0hPl8nq6uLqqrq0kmk9TW1m7ypiWVShGJRMod6zI2C2XCXcbGUCgU6OrqIhQK+fVSEFEhrairq9sg4bQsi+7ubr/hILTOokMuVpKLm3/XdQmFQr4uOpvN0tDQ0O+aVigUaGlp8dexG4bhvy7HcUilUowcORIo6tFFs0RIQ4TeWzR3er9OQY4BXzKyMYgtk2KyKZoioiEj3q/Qe29qHftXiXJKSRllbKUQGjnRJe69iTEQCPjku78QWkHRGRYd3t7yD1H4RGLHhrq6G4IwEAptX28HeygUoqenh1wuRzgc/sJjRYejvb0dwzCIxWL+gSO6y4Zh0NXV5R8umqb5o1JVVfsVRdXR0YGiKP73rveq4o1hS2KuyiijjDI2hmAwiOd5fjSqMPGJmh8Khejs7OzTqMjlcn4dE7VbNGIqKysJh8Pkcrk+54WQfYjGh6j7hUKBSCTS79cajUb7GMqFYV7TNGKxGNlsllQq1WfVe2/jeG9iLBJJLMvyGzy1tbUb7WZ7nkcqlSKXy/WRFQoZoSDZolsei8VYt24dFRUV/9VmSZlwl1HGVoBIJIJt2770IxKJ+EW5d9b1xpDL5fxoKNGlFZIN+Hz05ziOn6ct4vq6urqoqanpl7QkEAj4+axiJbCqqn4BjEajfvSTgOd5tLW1kc1mfa11OBz2U0XEuFGMLSORiL9eOJPJEAwGN9m9sCyLZDLpv69IJOKPOCVJ8rNYyyijjDL+0xAyDQFN0/w16UKyAfg+FlFDhXQE6CPNECbARCLhd7Ohb+dVmBCz2axvEO8PKisr/Xi8cDjsy/96mxp7p0TZto2u6350rOhqC5mgMFtqmkZdXd1Gn9u2bV/z3nvfQe8dD4LcC/O68N78tyeTZcJdRhlbCYTsQ5hrhD5aGBNTqdQGO7DZbNYv1pqmEY/HsW0by7J8M6Ag2+JaonMh/rz3SHJTkGWZaDRKa2srmqb1eZ3C8JhMJv1xYU9PDz09PSQSCWKxGJlMhnw+Tzgc9qP11tdr67pONptF13USicRGpSCO4/hmzoqKCuLxOLlcjlwuB+BLdERyyoY672WUUUYZ/04kEgk/aUk0GkSmv+M4BINBuru7SaVSVFZW+g0HUSOFbEMQXEmS/Pxo0zT9aaCooyLWT8g7NqfhIF6X+PrePprezyU02OLPe3fXxU2E67rE4/FNRvvZtk1HRwee51FdXe03W8SUNxAI+NGswWDQb6hks1kkSdrszOx/B8oa7jLK+Irw79ZpZjIZoEhoM5lMn2xSUaTX7w70zjgVhVYYScQYTrx2UTBFB0IU097bEzcnt7W1tRVd1/2oPNFpEAQ/HA7T2dnpE16hvRYjSlHQRba2cLNns1lisVi/yLFpmmQyGf+6vY06YoQq3qswAdXW1paX1ZTxlaKs4S6jPxDJGgK9tdhikVdFRYVvmu+d+y8IrZgoiu6vYRjU1taybt06AD/1Q0DUxGg0uln+lO7ubhzH8eumoij+Pobe8hFBtqE4/ey9o6E/W4VFZrjQiotuuuiQi066ML+Lc0S8tmAwuMXLeP4VbIhLly30ZZTxtYJNvm0V7fYXD2YxYhTSDMnJYRHwl8nYtk1PTw/wufPdNE10Xfc7G70Lbe/Oh5CAiG4K4C9eyOVyBAIBzFwHTcnCF17Xl0G46z3PQ1UM0mnH78qoqko6nSYcDvfZOJnP532zEOCPBYU50rIs6urqfI3ilyGbzbJ27Vo6Ozv970fv9wb0keOITo/oxJdRxtcWqUW815Knv9Tda3+GW59cyNoN1JQNwlrOBy+toWeL7w08rNY3eGZRJ8aWXuL/KYLBILbxTx679mH+sTrtR+QJHXQgECiuWE+uYk130Qgot8/nlQXtBMJhEokE0WgU27ZJpVJ+AwHwu+Lil+iCA34E7Kb3FFikl73F3FSR+Itpo5i6iiaQkLVYloVpJEk2pZBDYX9aKRbWbJBse8t57+6/M7/L8o3zvc+49bf4ChOmkNcIci5JEoMHD/6vkO0vQ5lwl1HG1wpreP+WKTSe8wyL1vsbETMnjCJq2984b4/zuPfTLI6dpXvdKha+/xJ/uf0KTpl5DrPmdeKV8kyFiTEYDPrdEEVRSCQSn6d/eHk6so7fJTBN0yfsEj0s+OP3Ofi+efR3tYHQWcuyhLv4Xg488k7ez3p+p0YcJMIoI24MxOEi/l7cFMRiMQYMGLDeopwCqTVLaM3afupIR0cHqVTKz8U2DMMfbWqahq7rfbr3uq6jqiqJRGKzMmnLKOM/Ai9F+2cpn7y6zbdz2dBTOG9+7ssfkl9HU76Y3CDFesgc+10u/rCfn1z3Q1458ky+P38xzxx7Dtd83L1Rcu/lV7Lsgwe49c73WWp5gITS9TC3bf9LftezeYtV+l53LcsXLGDBggUsSn5+g+Hl17KoKYWBQ759OWvzLtjtrFrVQyHdzILlSVIegE2+49Nev98YNvK1Xork8r6v4atFBwt+PYrgd5+mJx4nFPJofvgx5qxKsnbpYpYlC30WiHmeB589yDcmXs+TbQVc8yMe+sbdPJ/MYxRMFFWloaGBwYMH94lDDQY1SHewpivnyzyAkrwwTz5nYW4yR9shPfd8psz8A6+6n9d4YYIsNjA8rHQPKbN4luiBNl69eD8OnLUIrdTRrq6u7ish8VK0t+cpGAaGGSG15vvsc8urZEvvt7epvXf6iJBGiszxaDRKVVUVAwcO/FrW8jLhLqOMrxUa2GbyENxQls7Xfsusn57MSQ9+QnvpbwVhDuY+5Zmlk/nJ3bsTzqVY9vhN3Prwy8xplgmPmMROFbP55XNLyDhuSd8nk2n6iHffeZ3Xn7yVK0+9jJvfWsAbs+7k8d9dyx2XT6Fuj7M490/zSVHsVIhOs+dZNL94LWe/tB93nrot/fOyF1FRUYHjuEjbns4Dp87j8pvfpsV2/JFj726FINi9DS7xeJza2loSicQGUlJsUm9fxiFjr2LWp51+zqsozr1TTHrn0QptpOu6RKNRXz8YCAT6nTdeRhn/MWT/xu++MYTdnmoCQArHqXVHMG5wgHxT+wbIpIe16IdMnHAjD3Y5oOoElF2YOmpTKUbtzPvNPuz7RJgBQ4LULLmFG5MjCBkFCqXxfO/nMD+5gJnTBlE58HhO2/cC7k0msRZez7f2eIhPhkxj/3AFtZEtpRgGLc8cwajx4xk/fjzb1dQROuTH/HJRF+k3T2H7yb/h0cxL3DF1FKN+8z5ts7/JiGl38JfbD2b8qKM5/b0MuK/x5+PGM37UFdy8zv7yp/KamH/fHkwbvi3jRw2j/tsP8Hy6WJe89LP84fQRDBs1nu1qdmf7uz+ibVOsO7+IN5anPyfnXjPz73+GVzv7klkvPZfXH32UN559ivmFsVS+8Ud+9q0JNFbP4PrQKp68/kouvuI6fvarl1ju4k8GTbOZt55+gwm/OJxdQ0GUhrFMbKxiQPcdXDrkIq5ep/ad0nkLeOmKcexSvw8Xfv8odj31Md5b9TrP/+mvPPTQ/fz57qs5e9pEph/yc15Iqb50sQibQnIBi956hldbDUAlWllBcM9x7CjTRzstdi14Xg+f/O5b7H7Vq6woFND0GLUxg8rttiHsddFqffHfRD71IQ9MP5SLX1hOW1sXHtVMHzsQuSQb0TTNr9kCIp9bPG9tba1vzPy6Yqs4Xfbca1qRACCjqBoeMkhiJKKgSA54LnLpMKWURylRvAuSZBk8D9txcEsHvCzLeOK/pa8RmiCtZEBwPQ+1pI+17M9NZL1HMQCSBIYFlu2AZyPZgK2Bp6IEHLSwharJSG7R2GUUDCRZQlM1JFkq6Z/k0ngEX8MqRjPCyZvL5XzyIFy/gUDAJxGaGkB2FBwlh6sU0MNhjIIKjo6RK4DjoAd08maGTKELw8mSL2TRlSAffbD4P/+DLeNL4S59h1ueHcw244/hmL1HIO7V/XFhroUl5/2e1ufu57ShMux4MZesXMBHLbWMm9LAsHU7sZM0kohjY9oe4XCIqPkBP7vO4txbDuPAT3/Is6FaKtvu5qfDH+Gmb/+UHw2MoVOMzKP0b05VVXTpUx6/eiWH//YqRnkbXn27MQSDQQxDYtQ3z+aY/a/lnsMnccmEoC/jcHp9JgUJ13V9ozGH+Xwes/Nlbrrwj3Re/jgnD9colGIOw+Gwb8gR0wCxWU0s94lEIlRXV5cX05Tx9Ycyid2Pq+SOua/wUPM/6Zz3KC/aa/lLxY2cyzCGPTCbpSeP7nWYSwRG7sqpa9eQliWwDUzWMef+n/LpDqdx+76DNnDwe9ipNLVTJ5G+bjafNr7Abb88kkN3biO9po11tQXUUoe1vr6+uCxlwpX8cMZfWXjuHVz34Te5rLLAwoVL0OcFWCKP+Gre+7CruPm1M5mZf4s5d5/LcWcM5IBf7sLQ9jV0fZzhk+VgNbXTNiyLO6aSiGQDa1iwugtGfczHczdCtAGwSb10MvudMYpD33qYJ6qf5venncHMO8fTcekg5vzkW5yS+jkPf3YwOy69kO/OuITzJj3GX3ZZ35yeZPEjl/DYG6/zhzuWs5QjOO3j33DqP07nnt+/y1wry4L3nmDRnYcyWlAHvYqw+RwPzteZMGoqh4+OcNwNv+HKE2/l4vbj+e2hjcglmZ+QUsiyhLr2RR4JXM01e6zilkOeZ/+/7kd02Stc/dpFXLT4YvZp/ohFI3ZmrCht0hCG73gC551zIYfMO4wlq/Ziu8rV/OPJJra9Yl+GVe/OwLzEboddzKHVEh0dHYRCIZTsn/jFwefw09DxTJ06np0OTLJnfSXdrUkSoR4WPvor3h56IufuPACtJEUxTZOApjNy1z2p+sXHzHszz3srXmT2Ox28OqMWGZC+MYs3H/82u8lFrtPS0kKhEGH4nhkW2gEqK0M4lkNm3rPcsmI7Zn5nFwbg+jxHTGglSSIej3+tCfb62CoIt2lKOLZETU116SAu5jbKSICE7RVwPRdFlqG0KlSSJGRJgtK43HEcjEKBdDpdzAMOhwloGh5FUh4tmQUM00SRZcKl9dNySSNkGAWyuSyGUcBx3JLpzPHNAI4j4To2ZiGFbZioikYwGEcJaLhygUBAQZUCFIwCWSXra7Mi4Qh6UC+ZAGyfTAuDgNC3itXU4sMnfh8Oh/0cS9uy8SwJV9YxvRym5aKgYhkFXLOHrs5m8mmTSDxGOB5FkiJIAQ3bcjb6/S/jPwmd2qEjiU47iT+fP4Dl2RrG1ATprSoOBoNktHqG7DiFUQ0fcvN2Z/D0jvuy7zYtvH57kJlv/5ojJQmpNOoTmyKzAyZyUPpB5i3I0PPYaIZeOILhydE0jhjNZPlD3vrdq7w34SxOGq6gl4io4zgEl7zCnZNO5snRxZs9o3sda+UqBpmraAoMZ4TWyuKVIYaN0mheDUMaUizrjDOqAVKLk7hDGtFcF7TJHH5xHfu+vJALJ05BKRFukc0t3Ooby4MVWa2Ok2LZo7dzs3ohT54yEc1zkXttdhTZ2r1lOIZhUFlZSTQaLeu0y/iaw8P85AwO2+0+Xhx9LGeM9rAHyBSmzaB+yfPs907PBkhfL0RqqZGf5J1LR3P1rAHUn3wA06t2Z+bkui859G3yK/7MvX9ezKTkS/zso+3Z/vBGJu1xANOHKkilFArDMFi3Zh6vvvo6q5MrWPVhNwtvOIszG3qQv2WgTxhE1Vd5D6vEaWwYRKM6k28e+ygjb5nHYn1PdudRmv/ZwWeA27qWT5avgQEJIpIDLGfZp01kh7zNs12begKHbFcXrQN2ZoexQxiUOIXjL/6Yj5sccuToajFQho9mz+FDGDjkEi7+4VMsKKSA9b/3VYw66EqO3LOSc46YSf3PD+HwgWHGfvv33HxGJ+9dPI3zdx/PNqWyY1kWHUmdhr2/w+X7KYTDCvttt5K29qUs7B7KXm2zOO9clV1OOZljd6hFLXV37aa/c8OZs+gcPYBvn1nHvtvP5Zr3pnBi5eFcdt7hHC5/wCMnvor8ei/CTYCwNZs75x3PDkvS7LzzYOLRJFZCx+0y0LZRycw1CZ1UbHD4iU/xk7j0zZO4lALp1e+ydMlPOX/87/jDgjpCZy3m0+zv+cUxy+huup1LEnEynXOYdcKxXD5vGNOP24bKTC3ZQAMTqgLcdMk7pH+0C733/YqJZCgUQtfriVV7LPjrTzju3NdYucth7L9zDZP3HMNATUFXAn5yi2EYVFdXb9Fm5f82tgrC7RFAkl0sy8W183S2tmFZBpFQkIpEHL2ieEiLDrRWGgvnStFilZWVuCWtqKwo2CX9qPiBFQwDx3VRS7omp5RhqZXcvo7rYFlmKbPX8Tc62b1G455lkWxpwjST6LqCZUEwVE1FzUBkRcO2PSTZQZGLBEOMrl3P9ccxjmPjeW6fkHqhPxUb9EQXXhi9DMOgu7ub7u5ugnqQSChKNBFCD4Zw8chnM+RTXWRSK6mpUFHjYdaua8O2DELRGmRXQ9qCruX6KBQKfsZmuWu4BfDm8/L3b2P+0Dyrnn8Zq305E3+5gGznFGruuYPnT59IRWmjmKZpBAM23e0ujjaIUZN34KgzT2T6oHYSf1vM5OFBvIX4ySJiI6MemsApvx7Ljae/gPX081wzSGad0snzM49kpxOO4pLwo1z9zEhmPDSTYVYxRzWT6aZ11RKcsftTB2iawbu3HcjeL9aw20dvMGf8KZzZ+Dh3PTaUI68/kLlXv0HjTnOZs2AqR3xjHQv/uI72mXfy4m8PZrikUjtmAtV/a6FHUdBLBdSyLKJ6F/MfnsUj213Er/aLENzAt8i2bdLpNJ7nYi3/Cz+/ajbZzGz2H/MYe373PG686BtsF1N8U6nohoj/Hzx4cJlol7GVQCIw4V5mp+8FwF32Y9o+2ovT9kny+O2Xc9FOm17A5Kk7Mfmav3Lv3VE23QPUiE28lO+f/CO+0SNzwsIaGscu5S8/XEvXrOv46YQG8rkcdXV1JDs+Qw9WUL3roUT+OY/T3nqGM5/Yh1/OOITDdtqO4PUeU9VPucOzMGwPVPGZS9P82k+57K0ZXPqD6YzXNuezWKBt1Wd8FhtCcNAIxulrmP9Pm+UAHyxhyQiXqvGNVDrF+FNz/lI+2mZ58e+BQXYHHz/9Bp+u5+KUxkzjsN2/xw9Hnsn3v6Ow9NQT+P6h9/IXVQKyTD1pX/Y86EL29C7k+uP2Z+dzzmGyIn1xEZg7h4dP/QT9juOQFq+g9tgp7Pjh6ez25sW8c3ULH98/jf3PH4AEpNNp8vk8sViU3Cd38J3Tf8MnC5tZA7Dbufz0nP2YPF6j9W9Xcs8b0zh0UjXVJc+JFRvEmB2HsbJuBj+cuoL3Rz/NnANCrE0fxlH69zmCbag782pmFVyIinPYxcpWM3lCkrfO2ocJ8ytwXRtVGcT249t54Lwf83LlufxpYNHvoqtJ3pz1FPPX/IMliz/g3SeqSJ9zJFMHHcI5/9iFIYPfIH/VuZywZg5nfDKdwweqRCSVXG4yp/91Cae6Lrq2hj/8eAFTpmxD1RsjuGTaWKIUSbZogIoJKoDrmihSgh0Ou8zzGoUAACAASURBVITLb76NEJ9LC6F4g5LP56murt7k9smvM7YKZuRJNoaZxTQztLSuIptppb42RH1NkGTrMtrbWj4npZqGZdvk8nlM0ySZTJLP5XBct6j9ALzSL8MwKBgGpmkWR9SmiWPbn0ellQ7rYizN58S3d9yLJMl4HuRSacKqwq5Ttufobx7A9Gk7EAxBOt2NZTlIsoqiFjfbBfUgqqL6Zi0AWZLQNNUnq72dvr3j2kSsm9j+l0qlWLFiBS0tLbS0tuBKDqoaAE9BRgMLPKtAVTzAvvvswLQ9JjFscC35dBoj51DIeuBt+UjG8zw6OjpoaWlh2bJlrFy5krVr12Jt0nxRRh9Igxgw/GWuzZ/DJc90kPvgQxbMvYidA9vwjR0bCaRSdHV1fb7qt9BDJukiEaZqWJ41y9fQ3JnGhNK0JM8/V7YilYyClZUaXW89xpzRZ/LtU3pY9tRvOf/1DjynigMffZpPbjyN6cNDDJ25J+N01S+GrutimAo7DqsjWFqwYLkyrnMgP37lHI5+5wPeO+J5nvtRM3PbTFS3ioYbXuDeA97hmfB1PP7M7uReXkenVOzQBGoGMTjnIZW0d1A8gLSeN7jvgpu54yfP8tp6AxfDMEin076D3nGa+cddt/L8vj/jiffm8dFLV3B400/Z/7qXaSlFaBW1jiaGYRCPx6mpqSmT7TK2Wsgjv8l3nt6VUZd8SnTW8UzlDf6w53F8+6EPS0bF9ZBtp93V0d1WFj/3M+66eCwDj76Z+5q+rLmSZt3LJ7P3fftx1zk70CzXsMNxP2fOC4fR9ffFLG5tZc2aNcX12DUj2OnI45kkf8T9q8/mtHHdrJqTw+hO0u6OZ/+z2njitAu5/wtPtZS3772VBy+/jVsX5/v3xlsf5uJvHM7hh27DYcc5jP3FSexTW8mQw+bz4O8+pvO6n3M9t3DNDRVsN6wOhRzqHnuw8+Ov8tibK9G/9S1mAtHOd3ngsp9zzTXX9Pl19QMfsnrQKVz32CM8MPF55p03nlFH/JzfNhlAhIYZj/DA66dzYtNtXDZlH0684wPSwSjJZHK9H9DuHPfz1fx5ymFccuX2HLnnWAbNuI8nh/yI75x8HTfteggnD3Joamryt0NmsznkbU7n9y99wNstLax97gLqlNFMn7EXY7edwm5TtueAPccS4/NoVik2jmm76bQHGxle38Wf7/qQ7tRj3HvdcVzVspY3b/4JD//qBA6M9qJ27nu8+tAbPH3ZlTxVcyffP+YqHl5rIcsKhdg49h7RzoLmBcxvsYrmx8AAGrYbRf1Bl3PsjjJLb7iJB848hzu+fzCTWl7nl9vtzPQBCrZtEpgyinG9yqrQVdtuI/vtNJvTzr2HF4edxJGVnXx096mccuNf+Ge74UcXCo6jqjbZThNNMVn70YvMnnUlpxx8Ade/sgq7NAltaGjoYwLdGrFVdLhtJ0s234mihMlk2xlYW8XBh0yju7ONgJ5n/vIkwVCEeDzuG6Lgcy10S2srAIos45RIswhcFzpv4XK1bRuJYscWz8MwTVzXQVFkP8v4c02VXfp/By9vUl8ZJRwO4tgm4UiIioo4q5p76M7mi7pwPt/k13szE1B8HZ6L6zq+MUB0ssXvhTlABL2LP0skEqTTaeLxOO3t7bS3tyHLKrKk4xYsElGVisoKBg5sIJU0UGQF0zAJuy4Siq9r31wYhkFTUxOBQIBEIuEvDgFYs2YN1dXVm5Xb/L+CZDKJLMubeSdewcgdtsd8chVL3mjmtSWtZFbM4bmDT+aSARauI/dZoRt0CrRP2IaBpPhwtUTV9BpCza+x3IqyJyDrIbRglFg8TlBRgDx6z4Nc8dp0/miHGHzATC7dsQZpXYq3bz6B6Y++xz/3PZy9vucil4i12GTW5RX4cGUbkjYQxynKoWoP2JnpgxbwIA6H7TOWmrUKZGGtPp0b9hyKck+QbffbjbG1jyNlPbRoFKerHadpGfMS4/q886qqKlKZg/nJuy/znaG7M10pfv5ERKCImvKNnDSx5G8me9x4CFOH1ON51cw4YCKXXL+Iz67bj+mxEK7rbnIhThllfL2RZe0Df2fZofuyTWICh95+H6mzfsj9iw5hxs57cPzDH7PqO9OZ0v4GbRdO6tPFdtctYK69krfuqqZtx9056oD5jJzpkKj54ufBy69lXftc/vHWafzuNFjw/lo8zeTlv/+Vj5csIZZv53vH5Kif/h0uPquCqUMbiace4Xt3hLnyL4cwVa4hfcdlNF0xkempT1gwcz++ddU5PLHLocwI9r7JncwRN83msUvGcsiEfi6Xio1j6sz92W7FERx01QxO2LmRmLSYyvoAMJiRY3Zh2111WF5BQ0VxLqbsPYMZa6/iutsnMvWmUYQeauHTukO4eeERG3gCDzv1GUvVGRzz4yP45vee5b5zT+XsYyKMe/o4hra14Y08gQt/ezwnffc+Lj/lNI6qeZrnjh9OZ2cnVVVVpetIqCMv4PJzHmCn30zix1EZqGbM4YdSd9YVRK4dwcBcxj8nRfPOdV1UXUd2XczqRsaEQ0Q9h0QCmhZ1oh6g+Ft/i74tjXBFFakbrufHh01mu7yCmhhEQ/otsq+cwQ9vjDJ8pwPYe49eW3e9MNUHPccr505msPNHbqt9i6ZYCM/ykNa+yCzjOl485XGO//WbvHz1VIKOTGLEJI5OLOGmIw/g5N8v4Im9ruLqB+/i2o//QeyCS9lLTrP0kyUMaKxBrMqJRCKklr7C67lRbF8Vpvaga/ld/jounL2M4yfswoBDz+GEX1/Mt49q4e7nvs2u4eIjZVnGc9pZ+cka3i88Sd1O4xg3aVf2mXUXzY3DqK2q+J9plmwVhFsPqARKRNPFw5MlerIZqurrsRbOx/Wgu6eHTGmjkOgI43m4ngelTppSIhLi8HZdF0odY1VVcUtEWlEU6JXZWyTaLqZplCLWisar3qQ5FgpTcB26MgahbJTVqzvo7MwSDoWRLBPXsbFtF8d2/MdKsuSTalVVURUZj8+3/QmTwPrOXPFhFXeH4XCY2tpaZFkmny2gaCDJ4LgyCnGMTBdLlq/jqWdeQyXMomVrCESjSAEP1yywJf+WPc9j0aJF1NfXE4vFfA1uR0cHI0eOJBQKsXDhQrbZZptNBtv/L0AsFYDiDVwsFmPlypUMHjy4H4sELAxDJTjxIn78p5eY3zSZgWhEDruVt2ImyU9Wk9x+OAlF9nNGWT2fOYHRnC8HCdZXElFV4hVR7HiEqCLjGHmsXA+q/9whGkaPJbZKRXJVSC/ikavfZmS8k3GnPcFTj9T3ObArKytpamqisrKSwRN2ouq+j1h69vaMkWQkPGRFpa29/1KkDkWhri7O+ws+hG33o7rXquGOjg7q6upINepMUDPk88XlNkJSJYyVonONA7YnIXtuKdM1iOTaIAWQq6sJbxVVrYwyNoH2+7ntgo8Jb7Ocm94/lIcvPIhvPXQQ38LDeP927hl4Jlc+vjtTW0fSdz9giqWv/oMVdz/5uZmy+R90DRnGdvr6xd7DTs7mkavu4dHgvmz/zABGrP2YdxUJIhdy7DenEFBVjlVVPDVGtWsDEsrA07jt93nynctY8MrfWbh0OQVPpv2eE9jx2C6kJ2bz/jmD6PtsEmr9NL5Zvxnfg/AEZn7rRGb2+UxXU90YAgYzbkgjlQN0IEZtoiREi45iu911WDmaydsGyHzxqr3Qwbzf7spOi+7is1lHEbYms9u+u8HP0tjWx9w/7XjmXPsMD31jKIkJMzho51t4NWsQTySwC4XPt/t6SVb97QyOfudsfn3MnXz/l9M54ptzuOP0dRTuPY/9zrqBy+qu4OqDRzEgGqVQKPjnuEhP0vQQcVWma+EbtDrv897sAUS/lwPi/tIvWfbobu1k0DEncOTgdTz4URqI4cltzKm4iYebxtCo5lj72iICe42lTsrTtbSZYONz3DZxEWuuPJBBykiOjS3mj9nVvPDsMM68ZBqTKydwLx0ES4kjmtLKXy8+i0vCEzm8Yyduf1fijouO54p3T+TKBSORWcqK9wtMOqPG/xmHQx08fcdVzJp6HUe/v4KRP5rJ5ON+zdP5PFbPBzz7eiWHXnQ/fzskQ208guK5/pIcddVbPKT8gJuuO4odK+OEw2t51H2J3JDY/wzZhq2EcEdD1Rg5D0lyiUYUPCnCX59+lYCmkEy2M2DgCIYOGeYT7T7SD8ApdQU98O8uhWQDiia0gKYhKwoSRWIuSRKu42CVut62bVIo5DEM0yfAgvSK/0/1dDJv/jLeff8TJC9Aff0QGhoHIgXsolSlAGZJC+65nk+4RXSZpql+SgngE2qxCSqfz/vP19sQFggEiktAPAg3RpE0C9vLY1guOAEyPXEKlsGCJW04ZheaXokrg0kOT3WRpM1XFvX09BAMBn2XsW3bvolz2bJljBo1isrKSrq7u4lEIv+znUbDMPz0GAHTNMlmsxtN2fgcHubc0xg++wKWnq8SlkcwcqcJDHnjMo6+w+W2ayeSffZ8pv32EG659jvs0yChqtC6bD4rqycQVgax7y9/wwxVxTQnc9fLEp5j0QFIikoulyMeDmGnF7L005WseuhijmqawN5jK5lx7a7kf3UNmJ0snfM3lnwwh3fnfsxL8Yv52c+OZXIoVNQ/j9mbU1Jn8+A7h3H9VIWenAkxhVBo46t414fV+TeeuUvj5F+PRCuZOk3TpKKiAqvrfR7/8W/4cNL5XHnMWCo11T+IxC8oavkCgZHsfupgbp31Fx6q3Z+J8rvM/v2bVJ1/PXtuFRWtjDI2hY949keXc/Pxf2bRbpPZ54/Hcfbbj3LP1AEEkdBHqyyfdj9Pv3waR4zqXVs97LW3cd2dF3LnnFH9OOAltMbTuGjWaVwE2Ob73PfNBzjyZ1dx+D0/4tkb7+WcAbaf3GUYBitXriSRSOBaFooeRi8kWRSbxOBYgh1OeZi/vDCI+AY5UjPz7z6ZE+Z+m1/86gQOjPVvo+EXEWfQiMHAcEYOrKF+aCUwhrGNwvlRx9DxcRg2iaO3NXhgE9dqHDMF+Yo/8esZQfaLtzF/9nzqpx9HrVzDyAMC3Pzc87wweCq16deZPaeGqYfV4FqWn/GP9RFPnnoiv9rrd7z42E6MKuxFxR8LrCqczo8+GsvIkEXH8GM4ct+ZHHr0WZx3wmHMmNJAQzzmE+9iappHPh9g5OQ4jx9zO09e8Div7tJANpv2wxM8t5V5z1nsceE+7B15jcf/KuG5cczBB3PRgdvSKAGs4aNrnib34lhmKp00vfUI90gXcNVHO7Hdqu/RuN/eXN78PC+sjXLBUV3MvvNXvNC9mgVtVUysOo+zd64hrFdRsfNVfHzj0YyPKeDVctj4W3nu+MPZ7oHH+WTqq/z+D0cy9RfijDNoeeo4Lv3z7lx36c5MDDzFjx8cy3UnjWOArqDGBlPzzs+4f9AVnDJuIFI+h1HaNOmay3niprkceMPN7DloQOl6G79N2lqxVRxPhSwoUhQPF1DJ5KCyqhZVUxg6spGhjQP9nEb/bsjzcErdZ6u0Wrq3kcoryUlEjJjQUiuKUnys40Ap6cTzRMC6jW1bpRG3UiLExTE3ioIWiVCvD0dyJAJymFAwhm3lMQqduK6H5IWKhi7bAQkkt3h3K0tyqbuu9NFxi66eSCXpnVncG5ZV3MikyCqyoyEFCjhqAQcJSdZwFY1oooF01ikmnVDAIo/lFVBUCZnNK3xCgiNJEpZV1H2NHTuWbDZLW1ubP8pXVZVsNotpmv+ThLunp8cn2+tPIcQigEKhsNHUDbxPmH37s0T3vZZcPscg6Q5+9cZE/rzfWZz21JOsto7i6Ktv4arvHse5j+7ER9/bAcWTqZhyLFcERhM0DMxS8QcJTXNY+9QPOOq7T8OPv0ehUCAe9mib81O+/fIR/ODq4zh7t0YSEsBHPLOihXcWzOLGiSMYP/p4pjQcyBR9W0YFJarD1XR0dKBp23L0zQfwzQt+x9uzzyRWM45Jqkcmp1ExNUFCklDjw9kpG2fB+Dg6CmrNKAaHZNBqGTkyTqPXwdzbf8Djx/6OpydE/cNbVdXi9yq1jLkvvMDfuw/k1CNHE6W4el38uxcyqkAgQDbrst0Zt/F75RruOP9GLlL2Z8fT/8pr507crIzwMsr4+mIUk4+9i5d3PYjRksI2v7iUpWdsR/3le9PYtpiRw1M0fdzDPT8ZyrzbDipFzXmYn1zJIQ9O5vI3j2Tv6GY2UqzFzP3Nxfx1959zy7QxDN79CD7c8UR+cOm5nHPEbuw2rIrOjg7y+TyhkEpyTROGbOIog9lV+5i56RQLnryHXzz1Ii+/2UOKMQz54U+YddIE6iSAdla+/w6fvDqc19qO2SThlsKNjK3YkOEzQOWgwdSq9QxOhKge3ECgaiRj61TU+HBGyhVsM+5QJjVPZtvQYqq3tUv1ri+KjZEc0m638OZdv+aGG0/k1hXDmHb6lTxy4b4MAGb85AFuuuVn3HzcNXw84kjO+Ml9/PTAQTi2jVQ636qrxnLQ/R/zDWEC1aZz0tm9n0mnZu+HeXrhe7z0SRuRmEq8RLZFBCpAVY1KS0uQnvi+nHP/+xxWO4aBdoFkxiMQKKV0dLzDsx9N5jvD25l90d3Mi1+M6VQzqvZszrghzzH6KqqN2Tz42nimNlvMHDKI8af+iUcwaHviYGbc+jZdh5xKbXA0h58xmuFDg2w/uY4B8QCu0U1LPoCqaTiOzvC9dqaGHHhZlj/8Q64a/CgvzNyein/ext47vsTSG57g9mrFf491Uy7l9vf2ZodQhsB+l3Dpn37AQftnmDAiiOcYWE0f8urzEQY/9xOOboxhWRbZrnd46tJXMK+5l59s978vP5W89Za9b2j/+38b++w7g4JhYFsWhdIhnYjHaW1rY9CgQWw3fBS6FsD1XDw8bLeY9pHL55AVGQsNo2AjISF7MrggSR7ILqZjEAnFUD0NDw9XdrBdC8e2cW0Xq2BhOAYFycS1ZCJKDM+wsQppPMXEki0MJGzPQXUlwm4YyfQoeFmcgIUre0i2iim7FBSHsBkiroSRJZdMoQfLK+A54LoKZlDGdh1iroJkFXAVA1v28AhiFxQcx0DWZEJ6NRXhSnJdHXiOgauYFDQZW1NR3CL5KuQLVFVVU11VjWkY5PJ5WtatIxGN+dpYYcCUZZl58+b1++dRKBRoampC0zTC4TC5XI5oNEpHRwfBYBC1tOlq9erVdHZ2MmbMmH52e7/+ME2Trq4u3xQqth7ats3AgQMB6Ozs9DX1lmVtfLWs/SS/2vafVLx9FafXqjQvXYRd1YCUSxGLxfyISCe1ktVGI5O2qSFfmtLU19fT09NDJpMhFAr52xvxkrx742U8t8+NXLdb3UYlPV42RSYcJ/YlU7u1a9cSjUYxjBSrZl/LVWtO4qHzd8DKZPy1vpuWDHmYc09n4p+O5fFr9qIi1UkwGPQ14kWJlU2hO4kVqaM2pmPbxc2RvTeiCXIuyzJVVVX9kOqUUcbXA+Lf8L90ttrr+OzDt1i+dC1LayfROGAM07cf8CXd5PXQfA3j9h/HXxbMZNwX/tLDXHglJ55sM+RX5/C97SIoRoFUqovBPMX1l/6Nhe3dfDDmXH7xq7M4OmbRlZzHC7+4gbtbGmkcOoJRQ+oYPHoItSmZ2snDqDXSxKS1vNc+mml7DadW9MHya/l0A1Gn/2l4nkdra2vfJh34jZNsNkswGKSmpoZMJkMqlfIbc8LfIibMwWCw3+ebaNKoatGY3icGtfkaJl69B8/ftx8DS19vWRYdHR0EAoFiVLCcZN582HZCDe4/Z3FL5mBuPGIsgcI8Xn16Nq8ttSG2LaMOPYCZY6r63qy4c3j4iH+QuetSTh9UFCG1t7fjuq5fjyVJ8htGRflinprkK/zCOZhLJlUXr+cu4I07sgw4aye22UDSTEdHB5FIhO7uDgrrljN/xWo6CjEaBw1h6JhhxCXLbyrW1dV9yXdqLo+Ou4kFL87imoatoi/8BWyIS28VhHv3Pff2D1q7pH+OxmK0trbS2NhIbXUNoXCIxUsW09rRgiu5BEIBHGxCkSBqMIiRt9BkjdrKWtZ8tprW1hbkACSq4wQTQVxFQpZksDzSXSny2RyRSAhJhu50F7mCQSRQwehh45Btj9UrltCdbceUbFxNQQkoqK6CZmioroIXcDBVA8OxcO0iWdBVjZpgDQ3VA8kW0qxYt5KMlcOTi2knkiaBJ6GaCorrgubiaC6SEsAxwLNM9GCQ2qpBDKofzIqliygUUriajRPSIKATcuQigXdcNFlj1IhRyJ6CYzv0dPUQDgU/N4yWPlySJDF37tx+/zxM02TFihUEg0EaGxtZtGiRHwnoeR65XI7hw4ejaRorVqygoaGhl7lk64VIyhCRkkJj7DjFyYEwiCaTSQqFAqFQCM/zNuu9t7e3E41G/UmBWLIUCATI5/P+9sXeE4NcLudLpcQBIsyVmqYRCAQ23mXfCDKZjL9OWNxYicmFuHY8vumIst5IpVL+lKT3ivXeN4Cu6/pTAiGpEqvo/1du3sr4/4OvhHD/K/DaWbRYZ9ux8X4R3UWLFiHLMvX19VRUVPDpp58yZswY38zc0tJCKBRi6NChW53Gtr29Hdu2icWK+uB0Ol2SqgX8/RhisUokEqGzs7PPBF0sXoHiIjLLsjbLIL9mzRpCodAXV49bn/LakgHsNS7R52ckarDwswhPSzgcJp/PYxgGgwcP3qLvhUg6E7XXtm1/SVgoFCKVStHQ0LBZUb+2bZNKpchms75yQHxvDaOYy1hVVeXX/g3DIrWoGWPbof7N2taGDXHpreLWIVAihUKjbVmWv5BGkWW60mk+a1rDwmWL8GQbEwNyLq7motgactpDciQiepRIjU5OzmCqeUyzQDbTg6RJyHGFgKwTDyWwsway50LMRg5D1cAoFU6coBfHUnI4jg1xD08FdAk1phPQFDQDglaIoBzElA1QQdWDWJZLXAsxIFKFltdwHBOCHkpCQUZG0jUCQZ1QSCWqhHC6oaOlk2hNlERDHD0cIJ/JgW0SDUaxcipWIIdU6WHnXeyAgxLVkDUg52DkDCRJRtc12pKtDKptJKTpZHuyfpa3uJuFL0pUNvnzCASwbdvfeinI9ujRo3GcYvRRc3MztbW1/gdta0ZnZ6dfYEWRME2TQCCArut+/JyA2GSYyWSKC4l65Y1uCrW1tbS1tREOh30/gug4RCKRDRLnUChEOp32iaro/AoS+6/IeaIlg4+YZriu6+d6S5JEJpMpeiA2Wjz7IhaLkUwm/S6PMAeLBU+isx2LxUin0yiKwsCBA7f6f0dllPFfg1TL2LH9//LRo0fT1dVFZ2cnyWQSSZJoaWnx0zJc192qcu1d1/UzoPP5PKqqljL9i/UxGAz6N/lie7Mgs1VVVT7xtiyrmJRUIuV++MJm4EvJsTaGaV8cP/gab3HO9jaR/6tTPjGhTCaTpY3Ahv98Qu6SSqU2K/hALen9xbRbNGtEmln/GiYa8bFDt/yNfU2xVRBuQbZVVS3tliwaG0WnUdOCLG1txcpnsTUbpVJm0OgG1KhCKB5EUwNorg55iMsx4pEY2VQaLaqwzaQRhIaEyAdNyEpU2dWss9fRsqqJ2sYaqodUkLF6sE0P8jpeQQalaFTUPA0prCLHdQKKgmPkyWQymK6JpdpQKaGFdTzXQ9XDVNTVo2U08skcuiujazp5q1CM5bOMIhHXZGJaJVmlQDxcCbZLprsby8xjmxb5lEF1pA5NllACCgFNJ5gIo4V0CjkTN2TT0FBPIlTJqk/XkM6lcHGQpAASYFkmiiqjaaXoxFJU4eZi8ODBdHZ20t7eTmNjI2vXrmXVqlUMHTqUIUOG0NzcTDKZpLa2dqtLKbFtm0KhgGVZfldBSDZEMerdBVm/6ImvgaJHoLOzk8rKyn4T31Ao5HfOo9Go/7gve3xvY2Fvo6Esy37U5eYQ4vURCARIp9PEYrHi8qjSja/oUHd2djJgwIBNX6jX643FYn5npfeCJ9GNF4dJuaNdRhn/eSiKQmVlpb84SxBNRVGoqqpC1/WtQtKVy+V8E7voWK/vkRI+KcD3eOm6TiKR6HNDEQqFfOIIxXpcKBSQZZlMJvNvy4iOx+O0tLSgaZr/muXSFmHP84hGo36HektQKBT8NDRFUfzvhWgyCQmNkE/2B4lEgmQyiWEYVFRU/E9MuL8KbBWEW9U0KHWzKS3jcBwHr/RBCbgWIWRk16W6Kk7lkDjRijAZN4MW0NB1lVRzCjmvUh2rISJFiSlxMlYP61atQ82rdFsp5JyKFJOx2m30QhAr6ZB0uzDUPKlMhqAXpypYh0aArK2jmAq2YheXy9gedsbBTYHk2DiqSyQWRZfCdGV6aO3qoKcjT4M+iIHBGmTToDZcS3UgAYqNrqsMrK9EsmTaV+fodBVkw8XGAM+kIhTGxCXVWSAajqCZKho6muxQUVlR3L7Xk8TVHCIVYdataUINSLiWhySBUTAw8gUCwTCu6/nxg4okIyub3zkU2rM1a9awevXq4g2IptHc3Ox3KIcMGVJMT9mK0N3d7W8RE90P0zQxTdMP6hekVtyoqKraJ29c0zRffmGaJp7n+d+T/iAa/T/2zjtMzqps47+3T9++m02vBEgoofcqIFJEAZUqCgiiNEFAERBBRIof+IkCYkGaAZQqH13AECRACGmQkJ5sdrN9+tvP98fseTMJAQIBNbj3deVKNjs7Mzsz7znPuZ/7ue8U6fRHcwCRg5vVQUnVzh5eNFj50ZHJZCL2B9YuprquR+x6qVT6SO+1DH2Si3k8Ho/sMSWrtLmwZ4MYxGcRmqaRSqU2u7CRtrY2mpubMQyDcrmMoihYlhUx86VSqWIeMMDgVpMTtbW17zlIyGI9m82SyWSi/UASA57nRcz5B87rbAIcx4m6mzKXwPO86HfbFMhZIbmGy0LbsqyBXlRs8gAAIABJREFU0D870qp/FDQ0NHz4jf7LsFkU3BEUpeIrXKX79Hwf1bJQVYUwEKhK5QNZtkv0FXtwRQlP9GF3eaSVGnzLR3iCwA6IpxOk03Gy5X6EF2IIHdPQ8UIXJ3BRdIWaujocNQaKhhmm0IWJX/JRQpWYHqN1ZCMNY4eS7esjSNgM2aKVpJKi6BdZWVhFXz6LpZkVhxMR4rgevh6iKyqKoqJpKkbMIhAeZd8FX6HklymHJSzFQlErcoT6hgZWd/YQCAi8ANWqDH+6oU9/f5bAdfGKNmEsQPghuqqTLeZIqMmK7svQKq0eXUN4FZsnRVEIxUdrh1VD0zQaGhpoa2uLQkkkKxxZFW4GcAdcbKTbS3zADk/KRqSUwvf9iEnQdT1aoNYP95FSECmXSCQSH0l68XEKTXlIqB4ylP/n+/4myzEku1LdHgQiyYfjOB/5/a5mZ6DSDdgcN/hBDGIQ/364rhs5f0gZnFzLpU2rXLNlN81xHNLpdCR/qEapVAJYZ+apWCyiaVpUbEunpVgsRldX16dScAshiMfjkQxUdgSlLa8kLDYVpmniDiT1mqYZDU5WB64NYtOwWRTcss2jDNj0hUJUZBgDQ3+xVALFUFENhQDBkKGtFMnjF1TWdPfjaT66Z5CKpSpOJH6ACELSyQR1jTXke7PoIQjh0md3EWvVUepTlIwStakaDMuEQMMITUxhEZQrTKJTcunp6qaglnEcmxGZoWy39XaMaRzDitUrKM8r0tfZgxs46FalwFXCgCD0CEWAYqmYdXEctYwPaENS9Pdk6Y8XSIyLk1f6CVSPhBnDjSskmmpxXQVVVythNZqCH/rYhRJp06I+lSQf2nR3dBPaAhGGCKXyN4qGUEI0TSUIQB0o+IUfAh+/6E6n00ycODEakshkMgwdOnSTJAz/anR0dACVpCzJvErdWqFQoK+vD8MwqK2txXVdNE0jkUi8b5tMFqZAxCzLxezTel1qa2vp6+tDVdVosKY6cbVcLm9SIStbjpJJlzpGKQn5OAV9MplkzZo11NXVDRbZgxjEID42urq6Im22lMFIskQWzrKA1DQN13WjtXn9tcf3/ajTKdfR6q6h7/vRQGAsFotkKy0tHyXR56NBHg7kmi7XY3kQkKz9x4XsXlb/roP45LFZFNyyte/7Pt5A9Lo50EZJxOMIS8VRQwItpC+f490VSwniPlpCp6m2mT6vD62kYZo6wgwRRoCveZSDImqyhpQSg6LLjjvtyJixY5k9fw6r2lfjBj6rWAUOBJpACANNjSOsEMUSaAjKQZ5Cvggq5PwUfeUetkpvSSJtki/14wc2IR4ELqZmYWkeqA5l36bT7iTfnSdMBgRGyPJVnYCC3qSTSsbxyyGu7+N6Rcq9y4gZGXzNpSTKqKGCo5YRcYGe1klaJg1aCiVvEnohumkQGgJNVFIyBSFBUGE6KxphGxDRsMimQFEUampqNqsY92qJhWRCDMOgMGB3pyhKpFtLJpPYto3v+6RSKUzTfE/bsVwuR/+WQy2SFbZtG9M0KRQKCCE+slxkY1AdgS6hqmvj4Dd2aPP9UK3llIuxvP+Py55blvWxp+sHMYhBDKJQKFAoFKIhc5m1UV0wViLRrWg9l51Hmdrb0dERzaCUSiV6e3uJx+NkMhmCIIgG4qNEaF2PWG/HcVBVlebm5n/pULeu69F6r2naJq3vfX190X3KDq4kVYIgqDisbaJsZRAVbBYFNxC18FVFwZKteSHwg4Ci66GqBrpmESRCbF1QW9+AmnOJLVXI1GboV1QaaoaSCOIILaBxy2ayRo553UuJxRR22mkbEgmVrr4V5JxOykoOVwfHDwiFgqHEwSuTwkNXNISlIhIGRrOOmgxRfY3W1uEMHzOSeH2SpKileewQRK/PhNGjSdWlmDV3HnQqoIQEqkBNWcTrdLyEj6qDqihoQkFTIVQDrEQc1TcxXBO9rEHZw1QFplqJu48Ji3xQJpFO0pQZysJpb6P6gpFbj6ZxWDM9q7sprc5jKSqqphCoLrEBBjf0A/zArwT7/Lvf3H8hpL9zoVCIfLNbW1tZsWLFOtaGcmGWmugN2fFBRdaUzWbJ5/PR/0l9txyqrG7RFYvFT6XglsObctGvZj+kX+ymQvpgw1p7MznE81kMNhrEIAbxnwchBIVCgWKxGHljS0IEiJKbi8UilmVFumu5dskgNinBkwV1R0dHxFqHYRgRJNWJ0lKeV818r28JmMvl8H3/Ux0U1DRtHceUj8tId3V14boulmVF1suSxR9kuz95bBYFtwIRY2hZVnSaVVUVXdMQioIagHAEnuPiOmB6CWqKOmJBmVF7jqGkOZQcCyEsDDQ6sp3k1Sx6WifwNVJGkpQWY2hrK5PGTyIwNJ57eRrzFrxLWYR4QkEEKobQUV0Vz1Mo6grCEOgJlVhg0dHby/+98AwPZR+nrNioGcFWW47noJ33IV6TRLOSzH16LqENimpgOyEFtUxQdtBV0FUVTVVQlBBPDfA0BRFqGC4YrgJegO4peLqC76m4dggCglyA8FUybi0+DiEay7tWU+jPEXdVVA/CMMAJPTzXw3NcTMNAhCGmbhCo//nT5h8XMqVTDs9Ip5FqDTZUiu7Ozk4sy6JQKERFqpxEl8W5tFQ0TZP+/v6oQF/fi1r6R0tLv0KhQCaT+dQkJZLh2JDfrxCCbDa7SfpC6fVdreWWnZFq+cogBjGIQXzSkERJtYOGdEqSQ+wy/lx2FaXtqK7rUUptqVQiFovheV50H7quRyE4sNZlSq7Vco0HIme09TXfvu+Tz+cjnbWu63R3d7/Xa/tjQqZMS0gyRRI6H6VLLYcic7kciqKQyWTI5XJRtoT8/WOxGP39/YNzNZ8gNouCG0UhHNjkNU2rFOC+DwMfuJihoasKqqGgpyx8Q2ALl4ShUTI9ugObkqZgZwuMjDdiuhZ6SceIxVB9jUDx6ejoYWRrK30dWQyjTLZUxCobjGoYTncxS1+2hOv4+BqYQsdQEmhhDKdQBhVszaeol8nUZ8g0xCrDj2GRt5cuZEi8kZbmVma9OhdRCMlYKRAuJiZqaBOigibwDUGgg6KAULVK/DsqoQq+rhB6Jr6r4SgWnqIToqGpOroAUwSovktRd0gENqu7OhH5EN2vxdDTuGGAJiqDF5qqRj7RoRAV95fPIHK5XNTyg7W2elL+0dfXh6IokZxEMhuyJVksFiOWYtGiRQwZMoR8Pk9jYyPt7e3R0IocppSQC5r8e+jQoe95bnKg8ZOCZJqr3VOk5KP6d/84cByHfD4fbXDyvmRLU07MD2IQg9h0BEFAEAQR4yiZTNM0o4Puf1MB5DgOfX19aJpGsVjJkpAFr9Rly9dLStzkrEl/f39U9NbW1tLf3x8x29VrZrW3tXQukUU5EO0N64eIlctlisViFMyVTCaj9yiXy5FKpT6yu8eGsL5cUD6edGz7MEhdujyQSFZcupNI15bqVN9yuUypVBqU/X2C2CwKbkVRKprtAa2wECKaDjYti7ipo+sCxVQwUxbJ1gRGysQPA/xGBTQbPVTQfBXTC4kJHQ2VMgG+JojXGMRaamgeNRQ3a6MJk/qYidZsMCZusCK3hvlLliI80IWK4oAIQoQHoQOi4OPHQ9qdLro7u9BEiGt6CAPivkXe82hQNLxAoKsafhjghi5CDdHjGmrKAFMQmgpCBUOoaIpGoECoAEaA6oIZaui+hqWoaCFougKGQinuskp0Uai1URWffJAlsEJEMSQEwgAQCgjQVJVEIoFlWaTTmWhR/6wgDEPy+XzEXkg2VhbF67fIyuVyNOHd0NBAZ2dnxIxI9juRSES2UYZh0NbWRm1tbbQxSmZAQrIt6sDBphqu61YOOgML8lrWuZ25d8/F+eIB7JjeGLZY4HW8xZv6luzcGIs6PhXbwiL5gkYysXZockMMiCi3s5oWhsU3/P57nkdXV1f0Gth2Hjdbwq1vJAbrSG7+472y89O4+6lWDjl63EYmlxVYM3MFzlZbMnK910eUuukxG2jUB1utg/hkEARBFLMtnSIqRWOZjsUd6ENbaYyb0VomdbvSYeM9RZ3fS5dbS1NCBXIsfuy3vDHlu3xl+EYc8r3FvP6iyYQDR1DzsT7iAm/NNJ7sncTBW60XL/4xUJ0jIBlmGUwjpRVSpw2sY2FqWRZ9fX2R7KO+vp5isRitlbITWc2Ey6wBy7KiQ47cJ9esWcOoUaOi90sW4jIArVwuR/tMKpXaqGL440DuO5Llfj8Nd7lcxrbtyNWkVCoRj8ejg4ScVZKvQ/WeCTBx4sRP5fn/t2KzqLT0Ae9teWqVfsiyvaR4Hn7g4Qkf2yvj2kVKhW5E0ic1Kkl3rIdcpoBoEdhxB5sytltAUzysuCA0Xd7tWcKinuUUQxuhVdhN13Eo2wV6c5245NFiPoruomgOiuZimZCpSVDXUEuqoYbMkAZqW+upGVJH66hW6lubSDfVE6vPIJI6aq2Oa7p4hkMY8wgtj8B08EwbVy8TKD660MioCUbVtNJi1BL3NFKGhaUKrNAlLlwMv4zwiwRKCS0ZYg3R8Zs8GrdtYPjEepJNKvGMApqHbgmEUnmumrJ2oZZDH1Zs8wgw2Bjkcjk6OzujRUW2AiU7JNmAeDwesURBELxn4LGaJfY8L2IEpB+rLLYlOyI3SQnDMKipqSGdTq9TiNu2HSVC2ra9HsMtKCw+jj1/8yYOGwex+hec13IpN/VUFnX5vurdT3Dhzl/n2tf7o+vkve+xR/b1szk+dSife3oV65s+tbW10dvbG21Mvu9jGmXeuu3L7Hr7fNTss/zk2Av43xndqAOM0CbD72ZV9oOYcoE77xaufis7cPsuVs+bx9s95Q+fQzCWseyEk/nOjMJGPpkyHX8/hDGXPMPydf7fof3xzzP8wBu5O7dpw8aD+O9GPp+nvb2d5cuX09bWRrFYjAKg5AyIEFmWTz2NbzyyEnfggCu1tbLz1NXVxZo1a6ru2Sf3968wdMqFfOeB+/j1nFd44aYfcPIx+7KDdhBfnNbzwU8sfIPnv3QGF8x9h8e+ehY/nt3/gdeXKC9j0et/5KbfvMa7ngAUtL4/c/O21/O77KZeIz6qk2XJ0nbKYUW6pyg+HcsW0dFvYzsOCJu+1W1kHdC8PCtWrKC9u4AykKFQvTZlEgqrF8xi9pJeQsOM3KOqiSdZcFqWVUmnLHSRXbmQNxd2YWVqWLNmDd3d3aRSqYjIqN5jZHbDJ9X1Uwbc2GQGhGT1pfxjQ+FrEvl8PjoQ9PX1YVnWOky2JIXknie/5/s+zc3Nn8jzH8RabBYFNwyw3KaJoeuIMMQYsPdRVRUCEKgVCYYCoVeiIWNRm4GaJpV4syA5xMCLl3EsB9twEXEQZoCiOGjJkJxaYFHncrryfcyZN59Zs+fS1t5OvlTAShqkMhZWDAJK+GEJRfcIdRc7KGAHBTy/hOqHDEk1MqZ2OLWkMXydom3z9D9f5N4nH2BVYTWu5WGrNqWgiKc6KDEw0ibJmiT1yRpGJJsZqjeSe6cLsxfGZYazzeiJNNXVE1iCUsyjqJURuo+u+OihTUKUiTlZyK/BD7Ioqg2KjW4INF0QhDZ+UML1KhISgFg8TjKZqFxk4adzCv9XQQjB6tWrIy9oIQT9/f0EQRDppuVhrVQqRUMyshDt7e2NFs5YLBbZ90mmu1wuEwRBFBDQ19cX6ebkVHw1w7s+27RmzRqWLVtGV1dXZO0k7aqkZRU0MGrLLRg3pmUjGSEFc+uD+XyymeE1Cv1/v5gTvv17Xi1WAqK00mi2GV8fHTjeuyAb1O79Rx74xw4M6bejDdX3fdra2rAsi1gsFg0lVTzvM+x08IHEPRu3Zn+u+PWXqV3exZLOzk2ypAJALOWVq7djwm2z3//AEb7EvUc8R2/Swmv7JZcfMIxhkyezdePuTLzieeZ+0N4e25qJ40ez9YiNbe82MnG3HUkObWAYS3nxyilM+fl0VqGhIPC22pJd0pvN8jmI/xDYtk1bWxtLly6lo6ODYrG4TqdIFmyGYQxIBiysdB1bDddZ+cZC+hUjComSCYednZ1RJwoAMZ8XH3oTPelje2m2mPZ7Hj/sdi4483+4y36aR/Z6v0CSLmb97wEc+FCCISNjNC78H67tGUvcsTdwTQrcOedy7L7DqGs9jlMPPJff9vTgzb+aE/a6hzkj9+WgRC1NyU24RkQbc+/Yi31HDWPnnXZjp+/cw7RVvXj2a/zl6F3Y/tB7eDdVi//u7zlv510Yd/6DPHzTEey0007ssM0EWg84nSseeZc1xRKe5+K13cJPj2hhp/2/wMF7HMQBVzzB4nyJTCZB6fnzaGhooL6+nlGjRjFszzt4rjeH1vsiN5+yL1vstDcH7/k5Pv/T52nzBJom6Hr0NJqbm2lpaaGxsZGGHX/JG2hYlhWRKbZtf/zffwDZbDYa1jQMI2KzZXH8QRpumZhcKpVoaGiI9j7TNCPiRw6cSvctIcRmlw69uWCz2DE0TcM0DMyBoUl5utMi/18N3YiBrqNqKlYY0poyGVprYGkFxisW28ZqaHYENWgoqkaYjBPUJAjq4/gJA1sIlq9oZ/mSDt6Zs5QFby2hpyOHUwqImyky6VrSmVp0wyJUFEJNQ2gqwlTx9RDh+6QCncktW/D1/U/g0EmHUBNkiFtJbMOjz8+hGhpmzERTNGKaRcJMElPj4CiEJXB7HcrtRfwOl953+gjW+FhODMXRUDUTP6HjJDUcQyVARRcaaT3B1q1jOWCbXZjcOprdd96NloZmCFWEUNFUE0XREICq6yAGDi+GgQB0Ta+ECW3GkHq2VCoVxa7H43E0TcO2bYrFYsRYJBKJSO5RbeZfLBYB1rFYksx2PB5HVVWKxSJhGEbFZTXLUL3gSZslIQQdHR1YlkV9fX3EJDiOE22Y1e4mKCFObzeryiEg8HOLWfLWwzx777mc/MMHebJnPcZEt7AUAJWafU7kyDWP8PjfX+bZBx7hmbqZ/PaYCbSc8gDLVWM9DbeP3f0OS2b9nQXZyey/5h6uOO9kTj10EhMMgxGnP8RS1MhVRWojhQBt6AS2/tuTPPjnO7m3fTLHHDmWbYYP38Q38C1evOYLfP3K1Yj35dIcOh/9ET84/RKuHN/Nc9dczm2HPsfCkkdpyREccM0V/OS1D2Ove+jq6CcnAGzy7TOZN/13TL36m5w+dTYr/OrHVtB1szIvwhj2PmF/Gq57nDueu4f7/7oQY9bVHKeNYsydC9/THRjEIN4P3d3dkWQhHo9HEemSudZ1Hdd1cRxnrTeyamEueJBrv3UFv5i+kmVvz2XhrGnMeO7PPPT7n3HTL//B3MTIgUcQuDOfYNqpz/HoPn/j6T8/xg/XfJOfn38EX13xCvML73cqFfi5PE27b0/+vqdYMPxpbr6+RGq7Ppbmgg1oTxXMbX7ExYeoDLv9Fq46s56aOpv58xdizVrFQnVTO14+uWe/zue+NZ5tn1nKojl3cNqqKzlz6rt4qAQCWLqAWUu6Mfrm8AaAbqFrKnzp1zwx4wWeOLeVFd87nfOf6iKbnclfzr6UX065j1faeln58neZ+L/Xct0L7dh2B/NmzGH0ZQ+zZPly5s6dy5Lp57NrbDmPXHo5j0++lpfeXcnyad9h3M1X85tZNqZZ5M3pb7HFpX/htTfeYPbs2cx58ptsr4TRviGlfP39/Zv0SlTLI2X3Q34NfGCs+8iRI9e5rdSnS4lltQmF4zi4rhsRLYP45LFZaLhVVUXTdZKpFNrAB7lcLhMOaKVM3UIoOqg6Cj5JXaclFWdIY5p2IRgfT5FNNlAKu1EcjdDVQDFRXAel4KPoUA5sjLyOLhLEPR/XCRB5g+4VObJdBUqaQ7KQxAyShEInEAahbqFYBsIM0AOf0U3D2KJ2NHWlFFtmJrCgcRnTV72BrdpgguIY+CWBYmvowkR3dVyvQFkrgaYQV+LEEnESIkmCBIpt4JUVutu66Cz2UsoWMPtNjMDAUC18W6PcZ/PmnCW8kZtLyjMR7yxD1MUp9nooeQ1HCIKEDmpIEKhRcappWsXb3PMRm7kvoOx+9PT0RO0z6TYiW33VKV2y2E4mk5GvtCyyZRHtOE60kEmWWN7OsqxoYl5q96olJbFYjO7u7khnJ9vD1bZU0oIwDAPsd/+POx/5PXP/by6rnFv5YeO2jPrBOdww+Xscsd1ojhjdjvLHYzms+CRLbj6EUdjkV/6T+W89xtzy69z4pTZeqX2Eh1arGK/OY3Qxz9HX3cLFe4+mLq5Vuj5hBy9etD8Xv1mg+9kYuZNP5hzrTn52z15cdPepHLDjETQlNb7/qyZqMgamUmkN67qOWl7FW6+9xdsLX2fGo3/liTdGEjvqHE6sUxg1YsQme3z7M2/mu+GVXHnJt/nG+92o8Fd+e+GeXPbKDqSZTbEHmvcbyfi4jtI6keHq8/Ru8Ad7WfTUL3hq2vM8ungps26+h4MPeIxLTunG+84x7DdmCJ8LX+VvXzuZeY8/xfTDWsDvZNX8F5n34tuU7/4e267emr1+/XfmxRspvakx8blz+dmM73Hq6HoygzLuQXwA8vk8uVwu+lr6/1cXS7DW1UgW3qaZ4437p6PsvyeaWmBO79bc+Kc0N3/9FL556L7s0/UAf9ryZm49cme2qBnDLq0DQ5T5mUxvPo+fj9Apj3qCfy66njP3fYCrJixj5+xt3NlwIScd+hOuvOkcLpqQocqtmvLS+/jtfe+wfc+zXPPWtow8ZgK7HX0yJ09uXrdQ8Bbw+l/u49UF81g2s5/5PzuTM4ZmUU9wsLYZRv0nQuMFFPv6WDNkF3bYaiSjkg186exzcTpV8r7cs97ljZLG3vP+QR+AbmLqIVhpGlrHMXrUWZz6+hMc89vnmHXQ4Wzx1T8w9QuHs1tao8/cnu2bb+KFYkB9TZE100rUn9PAnFl9jNt/a0YlNfp6W9j+5Bu4dafd2TpjQM0ObNd4E6/1lwm8LhZMs9n6Wya5fo+G0S0Mr4nhOE5kRyiLbskqf1yk0+logFHuJ+tnIHzQHJZ8LvJ5SQJF6s/z+TzJZJJUKjXot/0pY7MouEUYIga02yIMUVSVUFQSFCtFlIYfhJWLMAhwizbLFi5nyXyPIBR0lUEML1Aux6hXFFw7qMgoAgeNEFQVI24Q1xLEtSRO6KB4OrgapZxNT7aXsmLj2B5poxbLSKBqJVAMPL+M8ELwA9asXM0av51R4XDemP8mr856hVKjjR13UDUdvaigBmkMxcJzygRhCELDSqVQNQU1UCBUUdAIfQhDhWLBpt3uwjUcLNXCCjRiroZm6KhYoPjE6uLUDxuJWYB0qFNKaHQVFlMmQMFEUywCXMJwbeR4oVBAUVRcz93sY1tlcI1t2zQ1NZHNZsnlcuukO8bjcdLpdLQBapoWtXItyyKbreiC4/H4Oj8nB3DkQI2cIWhqakJRFFauXBkx4BJyEEUujlKvbZpmNP0uN9p4PEGfP4aD9ruQydYaVoy5hGsOGc3wo7/DVfIOswpzTgs489v7MgpA9LJq+v08vqIfoU5k29O+ywV7Xs5l5SW8vDzB0PaJrBnaxasv9rHlntszvi4GNLPvz2fx2FLIjM1gYbP6/ie5fNYoGrzVLJnbg7/HHkxJaShVJ7AwDAlUg1iimTE7H8/ex53PGVPP5Ibxu/Klncdt+A3x5vCPW25m6uQfc8PnhvNhIg59198zZ9cuXr/2/TotWRZPvYHf/ejPLGzSgQlMOXwMi278GSetnsxu86/hmqOv4a+TNsTK1DF692PYo3ks6l+Xc+jPTuGQoefyxa/L7/vknvkzJx14PPceWkmKE+U5TP/T/9FlBagTPsdpZ17A92+2yM96gjdGj6KPXsa9ew+/X3wYJxw4diOHMAfx34S+vj56e3vfV1sr1wvJTFYzlxV5SYxa8Re+fHUvl+mtHHPNSew72uLAvp8CORbc+jLPp/flpINGVxXNeZY8eDKH3jaBsUodk47fj8kNx3Daw1kKbcPY6sez+Npeh7PLE7Bi7mq6J2RYaxRqkN7uIi74+g84KqvyjZnDGbvTs0w9fDX5F67lxm1r1z6OXkNNoh5lvxPZeuY8Tp3+GGc8dADXH3IYR+y8NbGrBbvrC7hFeDi+gGi4OM/qF3/KJdMP4aIL92Oy8UEXjkXLnidz8biLuOAbGmu+eRwnH3g2V6ZimOo0UjpAOzOWLWDZ3LUHmrgpIPQqa7LQmTBlG/jrCrqDOrbaaxd2SGuAj/v6PdzTeRRnHbY9WvfV/HN2GzNP25svAow+gm9dfzVX7TeUUXvthqoqhKFPfvpD3N19KN/boQGlaxqz567k4XOO4GGAsUdx5s3XceVudShVQ5iSdPm4se/ZbHadGPdq5yk5MPphcr6amhp6e3sjYsQ0TXzfj4wBMpnMJpMmg9g4bBavsqLomFYcVRmYpAVECJpmglDxLQ9P5BB2kaBf0K/EEMlazJRKLGlgqyGN8UbCskO/USCfKhDkywih4GsmmicwwxA1KJNjDbEtLFKtSXpFH0W/jG0EaFoMUzVR9RDfy4LdQzwsoioKnq2j1aTJJpI8sfqf/O2dF9DjBsltG/Ap45Z6MV1I+Aqh6lNO2LiWg++56DEBhoKia2BBl9ZLn+gnO7qIk1QwtBK+FSI8A8Oz0BUoxz18rQtMByumUOot4JVDalON9PQUKff7WGTwRT+u6Kek9oKqg6YRKioBysCwRYjjBXwWkm9isRiappHP5yNv1lQq9R4f1HQ6jeu6kf5RFsuu60YR7qlUKhpgkgy3HJZcn0mQATnVG6tk0eXCmEql8DyPfD4facOroZp1NIyPkX+hwKwFvZiHNbDqtaeYu2ge785fSF/xLR7Xvs6V4wdKV2UoW33111yV/TUXX/YPrGAGf/zZK6xaOZOnZrQjGvbhaydug3j2F5z0+0t46b4T2MEwQMnQNHbgQd0nuf/bMY64/Ugm1bf3HicuAAAgAElEQVTz5qPf4/j5t/Daj3YjNaANlPKcQEkSi9l0vfEYTzzYytFHDWHa1Pks/PI4ttjQntn1F+44/3f8aa+dOGL/MzlkUxVLa37D1ZecxE1t46MFK9Y0gt1nPMfTNW10rezF3ENnw60aBT2zPdtPWMzzhVd4q0Ng1c3jzVf+yeJ35/H26yuwszPRDr6W3QfeWiV9IF+5YR+yT3+BC96uZeysC7nkN+/QNnM2j86xiH3pXK6omc60M6/kulunseL0LTePhXQQnzqKxWIUoiXb99VD2dLmTw67yUN59fqRTCZpaGhg5AVTmXPcTF4++B3mJ6yqdcMiU1eLoWqse/m9yxv3eRzz67u5a4clPPHd0/lDm8vUhTHGmfN4Q7zC4i9NZfZRjRvozORpf+4MjnjkZB66IOCse1o59IxbeOXgX3HeffNo23ZPIuGYMoQJR57NmEUXcdDCH3LNpH6WX1jC2bWHrnAyB535HHedeh6/d7/NZes9v1d+exN33fMO5uG7csc2HyxbUIedw1UPjmLKrT/l1u9ew88n/ZRf3H4+Z7X0E66y2G67XubNeIqXHxzLF76g84Sdp2RrwID8gkq3gDX95BwVM2nS2dlJU/w57rz8IdzbXuXMYTr2OxOoOe83PHzKQezWAqvuP5udv/1H9p7+fQ6uqQzRh7np/Oma/6P1F/dxZLNKuDLJ8At/w6s/OJVd6vpZcPt+bHXaHez32sUclFzrmy3fb9/310k33ljIohqI0rZhrRNWqVT6UItIRVFoaGhg8eLFkf1tTU3NIJv9b8Bmsk+IiBmsdptQ1IqUwAx1TD9BxmoESyOVTmFhoHkKNUoa28mjlFWatCHUKg202z3UCg09YaAndJS6EFvJYmo6ISFGTKeltomCU8by43hBgOGaxJ04MSdJ4HjERIYQk5hQEIGGkjOI53UatRqScYu8XSbXbpNRVaxAQ0OgByqmHSNuJNFCHcd2SZopUFQ0VUfTFAhCCEIaa2sBFXyNAPA1ga4roAcYjkpM0bA0AwhxCRG2ju7omJ6FKUzSMRW/1iLuqFhCwfcChO0iwhDX9Qh8nyAM8T3vs1BvA9Dc3ExbWxvJZDLSpm0ImUyGNWvWkE6ncRwHx3Goq6uLBph0Xaeuri4Ky4nJZNMB5PN5hBDk8/moYK+2f5IaPtk6zufz6LpOS0tLFJCwTruxuJAnbryVe18y2fXmiTT7y5g+623+2ZYmtv03Oajvcq45fTt2ia5Wn/Ky2/jl96/g5tRF/PnAcSy/5j5G3foAD844nc/N2o3PHbg/ov8+HkvtwPbpBMl1XossS+6/hmtO+SmvfHkPxilzefe6GIcc0ko6DNGqEiV936b/1bu497U5zLsuoPGlc9l9jz255RfHcdWs/blrygYW+6EXcv3MnfjG0IPYb5PHA5Yx/aZ7WXHP0xxhDlQJ2bu46fC5dN31DCtOGIdVfoo/nPglTvzTFNq/M4l1tzSPwrv/w0/PuY+5wXGcvG0NfsezzHxpJSuZRPMxu5P86yvsMGnE2mFV0cOKp87hhxf+A+XkazliygLOvuB47l15C4cdsS+/3Gt/Dj16BIWzA2p3G7m5LKKD+BRRKpXo6OjA933S6XQU+w2sc8AOgiA6dAdBEB3+5c+tw4IqTQyLzefld5YybeoLHHLa/uz+gZahUzjqwTc5MpMEWmlq7aFt+zu47buvMf2cBCP2HkesMfaejpMor6K9ayZ/n34qd3yzxOpFbThKgUfvvoNls6czpDiVYyeliJ30I3510T5MUgXesp9z6hmTuGTGceyuhuRvuYS2S7djv9wc5h37OU647Cwe2vVwDokp6zy/L974FA9+fysO+5Biu6IpX8oi/RC+csUXOfrsv/LHc77B6V+rZa9ntwO2Z7cDNfp+cT031ZzGNXu08cR8kxAFgkp3UjgDncQRw2lK+miaQbGwgCd+ei1XTLyDl44eQaGnByezP5dfakYkyagDjuDoc+/mjSU2R+3ZhGsv5tnrr+K2MZfz8HFboocuyuhDufjCgHKuDepHM/GIYznpzBeZtqDEnluyjpOM53k0NjbS0dHBsGHDNtqGN5fLrSM/lAP90qYQKuz1xvp8jx07lmw2OzgQ+W/EZrFXaJqGrmnohoFhmBVrnEgOYJJUM0wevx3jxdZYtTG0uI5uaQTCIwh8vFgRIzQwAou4SCGGauiWgVFn4sc8hC6IqQaKC6qvQLESd24HLnbg4So2niij6wamE0NYClptgrJeRImBqqkYaOiuQC+CFqokSKKEFmklQA8Fnu7japAyUiRFnICKhpiYwFd9cEISviAWghKCiornerh+gB+GhJqKZ6j4ikLcsDAUyOUDQlegqj6EFYZPoXIQ0VQBZYW0EUdxBZ5jQxDi+R72gOuG4zro2mbxEdhoNDc3f2jUrZz2lnp2IUQUE2zb9joFdnWhHQQBpVIpKpQlA5zL5dYp7tffaHVdJ5FIEI/HyefzEbOgKILSm7/mu2f/g+E/+wXXb3MrlwY+GJPZ4/TJ7FG5N9rv96nfdhTDAFjOa/9zBCdfuhMH/uO3/PjphaS0CUz6fIGbbjyVu557k9pD9mT2/Dlk2lS2PbiJcB17Ko/C7B9w1K++xZ+eOYBxCoi2B5n+7OHsc11TdEiQ/q61tY00H/EDbjjqJW6/937e6n6Ss68azhXX7sa3L3uI6Q+dxB7vIW1SNE85nE03lRL4i27h0ocv4pqfDlnL5hU7WePvxD47DqsUD/HxjB5jUCiWWXckrPJaHXL3l7nq0XuYcuQjgIIx/BhO/fExA7eZyQPfq2XK+TWVL3NT+dVJZ3FR5kZevrHEY7ME6vj9OLfwF6aefin3PzeW0XsvZO6s2bSFE5k0dJAl+m+HtPSrDlTxfT+6hqpDsaplBtL/uba2Fs/zNsBU5ln8yO+595e38KxyLvucdyX//N2RbAWAx5rOHB5UHTAVjMx75QVC14lv91X2a94Quyrwe55i6mW380DsQMb93wgO6JvBc80jmBKcwUXfPgDVdTnuHKBuJOPVyuPoredzx3MWpreYec+/wPx3F2MLla7bj2fHr/ahPPQUr501bD0GXkFv2ZejWzbmVe1m1q93Y+e3b2XunV9mUv3hHHbkBPhhgaIAUIlPPoo9mc6KKVuwZUs3zPYwNECvaKlNo5fXnn8ddvgCY+IGiH4W3/8zTnvpyzz8/NEMt7spB0W6p93KDYsO4YenbEWdpmHlu1jFaPZsiRH4Pcy780ecO/0Q7nj8aMaoPiEeq565gevePYgLjh/PyDDE6XB5l+GcOCxJPF5JI5aplrFYjEKhgG3bkRvNxkDavMbjcYrFYrSfyJ+XEfUba+sru7SD+Pdhs6i2giCMht4KAwVLEFSkEKVSGdU0yZbyCB38oo8RGCgFCIMQVVEpe0W8kk/cSKIkDLq7ugkIsQomnuEgAEvE0QIN4YcogcD3A9zQx/ZdXEoVz2vfYEjtSMJApb27kwJZFN1HFQIReigiQBc6KgauouGEAYofEPMFnhZQVARDjCGoyUYKhSxdhU6UZIjQK9osLRQIv1IEKkIFASKsuEOECrjCJ3BD6s06klacnmwPalxDtXQMoeA4PoIyoaWjGBp23iYMHeKtCQJNQTE0FBTEQMcAsW4E+GcBH9ay6+rqiiaxHceJIn9lq67aO3X9GPZsNkuxWIwWuXg8vk5AjkQikYgmyj3PY8iQIdH3NE2Lps4tyyK9/fFcePuxbDEpw9LfL6Yv/w8em/ky7yxZSra4ksUL5/H4CyH+OUtZKrZkgjKSKcf/D5ftNYbPj3uZ3wKEJq1jW8hmvsq143/FD3oEuSUvM/dpjaFfjVe1Dsv0vX4xB397Ctc9fxI7vnk7v6vfhwmP3sE95/+Jm7YZSXb5cgzDIJPJkEqGLHvlIea//Qpvvvwkt+5zBieq23Li97dneHxLntztAI6/dRumfXcki658iZofH8UkgPzj/O67V3LP3nfw51O3o/njapzFHP528WMMv/eKSO4BQMuu7LbLz7jizkfZff8aRhfv5ne3NLPDgyPWs1QcyfbH38pDx+/Ivo3Pc8vy+cx/+lFyi5/i3XntuPkFvD1nIU/On8IeS/oQW7aiZA7jKz+6nfF1+zK242+Vu9HHMXZEP8u/cQcXPvNDngrWsPzvf+cR9Viur9m8HX4G8fHh+z7d3d3Ytr1OQIrskm3o0O/7fuSIFIZhJEmTceRr7UUF/qqbuOLms7nr5b3YzrqTqYrCMLGM2X9ZSv+qbgrB+gfMauTI9fQx7+nLOLprOMdOeopzD+vBfupiTspUX0wKxvBTOf/OUzkfIHyNB48RHHTb9Zxy1Q+4becH+N9q/bb8KcvCBNCTWHYPb6e3Z0S6hh1O+TP3Pz3sfYaJVzP3tq9z/MyTue6G4/n8B7L1GUZsOR710vu58ktNnF3/BnMeWYR1wBaM0n2ejwX4tUMZNwqa9pzEaG06IAgCAb1LmT3jGV598Y9ce98Ezn58P4b4ORb95Xt84/sr2e6W7xC88gxvhCrNW21Pc8Zjzm/+yNSJJ7BXcg3Tbvsdi4/6IfuP0Zl/1xl8/cJV7HrjN/BnvsQMPUZ69ERGZDzm334PT0w+md6FL/HPO+7j3SMuYHKqhK6nou6p53kUCgUaGhpIp9Nks1kaGt7PlnFddHZ2kkqlcF032k+AaHh/0L5v88NmUXDLD5eiqKjqgEbLD6JWi6M5vLt6IblyllRtkoaGOtKpDNmeLP29WZI1GqlECpQQzdPpLK0hX8qjFRXiGZ2wNsRJu4R6iOfYFHMFMAVWPIaq65iBQbqcxHJMfMPBFSG2VqAkcii6T0w3UFPgai626xB4Cp6qga6j+EGliEchLuIQeDhakSDmQOhDMkQ1FTwCcnGFnG8T2g5GPIlpxfDKDsINwPOJBZCyLFxhE4vruI6HGxaIqwmSiTQLlywkUAJaRo8gnUwSUzX8XIlC6FMWAb45YD+lavhhxXfT873PHMu9PorFIoVCIdoEq1PLpFbZdV1s2yadTq/jTgLQ29tLoVAgk8mQSCQwDCMKsJEhO9WQbWK5MEqvbqgU49IXVVEUArWB8eOL5J+/nJMuLnHUc1sw2dCxW75A05TRnFDXxL0N8aoNT0FvOZDj62fw17PO4pLGH/FAdz+Tx0+h8a3ldO15ATdkdMLF9/AHfx+uHx+vtBxFG3NvP51zShdx20v7sENchd3GwjE7su/8b3DJU3tQC6h1daTT6YFiIY+RfYYbFx3KGT+6hkVja6oK2uHsdNGvufTYg9l5xVl8/vFmvnwZTNKAwmxmPDeT6c58Fn9zYwtuBT0zhnGqPDD55F+4lNMm3sbs7ddj/rTPcdLdP6d09Xn8+JB2luzwNQ6+7a88/IX1qTMFo2UP9hVzefLs4/hu7Y+Yuvs2DCk6ZLaZyLhR9TQPGcrwdZIkUzTv/GU+t+oqzv7KgzjnXQyMYaszAu6e4zD5jl9xmb6Urr8to/PC3dj7s33pDOID0NbWFjHUspCudn/YEJmhKMo6Q2rSdrOpqYmamoEuCwJ39gXs9YspXDXteA5JqcC2fP7bAB5jt/g5p341T/2tKd63ZBXddDz+ec565EbOMuay8N63eOGor/KVzAewq947zPjl9/j5QY/wt4O3p3mHI3ljwuHsefXl/PjYvTmopXodssm1LaXP66dfG8Fuxmxm5nPMe/h2rnvkGZ6bliXHREZefCV3nrTNwBrQxbLX/smcF8bwYudXPqTgtmj54gO89YfTueLyA9hn6RTGnXk7j1x+GEN5grrtxqLVT2bySV+lY9IQLIZxcLOFVrMlByvTmfqb17GG7s/lLx7Ll7ZvJXAW0bEgT8OOGitv+R7X1NURj9cy4VvXc9leZ3H7z3/HzdecyE8WjWLPky/mkR99jXHaah59q5v6HTXKT93GraoKmIw85af8ZN+zue3a33LTT77C5YvHsP/pV/LIhUeyVVxEw/iSzZZ5DqVSaaMNCorFIqlUikQiQblcjkgeKSmRg/2D2LygiPVWhfVbYP8JOPGkU/F8n9qa2gFNrcXy5Svoz/YzYvhw4vUpXnz5BZYuWQBGQOOQBlLJDG7Jo2tNDw2Naerq6hk9aiyGHmfmm2/R29eN4xaoa8kgaqCY9NASGhDg+/ZAgaRQKpWhJBgaH0o9jaTVWjw7YGXXCjrdDlzDxrAMlIyGsEI0V0ELdXwFnNBH+B74PoqvkghStMaG0mDVU7YL9Lt9qBlwFZ/+/n4sywRFDDiwQOiHhK5PTDeJWzE8L8TNBwypH4KuG6xasxxfCdAMjRqzlo6lHQgV4rU1aDELxQ1ICIMhjc04QtDR20VLIkUiniAI1xaBIhTMmPH6v/U9/jQgNXDSaktq/4F1NJQySEKyCMlkMnI0kSx4f38/qVQqahN6nhdp5zzPo1wuM3r0aAA6OjowDCNyKpHhO7lcLhqwlKwWVLoMhlFi7v2vYhx1EDvWpzdqoCVc/L8c/4dxXPu93UhWyUDCMEQJOlm4Ms5WE+qpq60FHHI5lUymugPgkZ87lQfNIzlli8x7WKyNgSjP4LlffovzrjiGS/ov5cSYAviUu5bTkxqzXjH7ke4Zb9WTPMmBHDHc/PCbfxgKT3L1I6M5/4Qt2biInjxL7jmZK0bdwV3vCQoReCtfYWbNruyaGWS4/5sQBAHZbDayHK0uoKodR2RBLffSsWMr08pLly7FMIxIItDU1EQsFvuIw3TL+Mc5VzPn4l9z1rD3uTb8B7gu/WNuP+XL7D5yOOMcl+ZjT+asSTUbuLHAnf8jTvy6z8gbzuKyfUYNRLp75Of/nGsvmsr8rk7+OfEyrrvhTE5q1iGczQtXfYdzFuzIxGHDGT+ymRFbjKQpp9I0ZTRNTp60sooZXVuw7z5jIicfUV7FgmIjExtjH2u9qYYMLJPSQEnMBUFQsQse6F7qur5BFw6Z/CvXTNM0cRyHmpoaenp6GDZs2HseT5Inci+RA6/Vg/NyIFZ2TnVdj6SKMmL+g2DbNv39/dHjyMeQny/5fOvr6z8zKdGfRWyolt5sCm6AdCaDOlBUrFrVRr6QZ8Tw4SSTaV557WUWLp5Lss6ksaUBQgWn5NHfk6OhsRZV00gk0gwdMYp3Fiygo7MdRfFoaMiQaqyj1y5jBw6qJlDUACFCAj8gDEA3DUaOGIGeV0k4MfRAo61rJavd1ZTiLnraQovHiWsmtVgkMXFFSFbYFISN7ZVI6XGa1XoSTpI4cUp2gVyQgwwUgxL9Pb2khYoZCFBVFFQIBGoANYk0Q1uHsbijk/6iz5C6VoIwoL1vNb7qoWhQF6unfUk7qu6Taaqnpr4RI1AJ+m1aaptxgJUd7TSkE1gxC9/3K6lVmo7tOLw5c9a/903+FOC6LrlcDsdxIoZALlaSxU4kEpFPrmmapFKpiAF3XZdVq1ZRU1MT6S7lwipbwK7rMm7cuHWGUVavXk0ymcRxnMh+yfd96uvro8QwGTwg9Xhy43ZdN3Ip+DB0dnYCFZ9VeTCwbRtVVYnFYti2TW1t7XukMZ88BF6uRJhJbmRK5iAGsfmhXC7T09NDuVzGsqxIpy27WVApyKuDTyRkwb1y5UpyuRytra0bVXx9fBToeLUTbZfPrm2l53n09/dHNYt8HwqFAk1NTe/pPG4Iq1atWie3QRayMkJd/rs6sVFV1bUp17BOoS0HL0ulUuR/7ft+RL5U28q+H3p6egCihF+5Z8n7lKz52o7IIP4TsaFaerNoiFZkJJULLJ1OI8LK8J85wApYvkUijGMGJqIU0pCsw7ErQ23xxlZ0FQwjhhLq4AriRoKEkSAMbGrjtSiWRlkUKVNCNUIUTaCqIAIBoUoYBPT09dIYNmAJEzNQSIQGpq/ihCp+CEF/gNudp5ztJuYp+EqIUhcjObQGXVWJCZ1UIoGJiRHq4Ck4JQefAEf1MZNpcsLHV8OKRaCqQQCqL8jrKsRVEg0tCLcEjo6CSlxPUwoKFccRR1CbqiEQ/QjXRg1c9MBECULMQEHXNGKi8joqKIhQ4LoeZspCvE8s7OYO6RSQyWSiFl/1n2q7poaGhvdosU3TJJFIoKoqqVQq8tWVSV2SnYKK84lE9QKrDzh+mKYZMSLlcjmK1pUe35ItqxuQdGwM5HCjvF8ZnCEHt6T279PHhoe1BjGIzwry+Tzt7e0kk0lqamoiBrI6tU/a/FmWFc0crQ/btmloaFin2JYs6CeLFEN2/WC7uM0d1fkL0sVMukP19va+h6GGSg0hLWCHDx9OQ0MDfX19kfuZ7GzKHIaurq619qhVpItca+Uf+TkIgorUVT726tWricVikTtNOp2mVCqRz+ffd51PpVKsXr06eqxkMhkF1UHl87KxOvBB/Gdhsyi4bdcjFo8RCgVNrwynxOLJimVOPIkHuLpKSQ/wFJsVQQ+uWiY9NE1LYx0dhS5y3atpSjVh1ahoqzwsU6W7XKYv6eBo/ZQzWbxEiEVIGg3NiJF1A7yygLJLR9CBL0JqzSRWWaUYhuQ1iGs6iWQCPzQJHI9QgGqHmL5AEyZq2SBUNXrDInaujeGxEdTqKbxQxQ4haxcJ6lVETCB0D0UIVMdDU1REzEdogny5wKKuPLprkDTixDUFQxWEYQ5MG8906fOLtDRnUMo6maZGFi5ZDUWNYekhOEaF0VUt8AeKM3kxB4H/LyrK/vVQVTXa/Hzfj6a6pb1SfX19xHK/HxobG2lvb49YK03TosSvMAyjVmH15ioXVd/31/le9XCV3CAkK6OqKo2NjZTLZXK53DoF/PpwXZe2tjZaWlooFCpx5nIDgLWMSzqd3iiWZxCDGMT7IwgCOjo6sCwrcilKpVKR60Q1yy2ZUYn1i25ZlK9YsSI6cMsDvWVZH+qpPIh1UT0jIw8uMkeh2vfa930cx6G3t5dkMkkmk6FQKJBKpdbR28sgGZnIKH2wZQEu5SrV9yuZzHg8HrHOcm5IdkJSqRSKokQMeRAEkQPJ+rAsizFjxgCVLqZhGOukVa6fLTGIzQebRcFtGAaGbpBKp6IPffWippna/7P33uFx1OcX72fq9qqVVt1Ncscdd8AU2zRDIIBNNwECJJAQAgmQAkkgIYQ0QiAEQwIB0zuEGuoPHNvgCjbGttxtdWn7zs7szP1jNYMMNpiSe68TnefheWSh3dmd3fnO+z3vec8ByUKQQHLJdKcT+EN+DCxMUWTs4AMIjgxQHa2mc3sXm4WtGBbIQT/dVgHZo+IJlKPKJmFceLoLJS9rRUF1KXiq3bQbeYwOgZxmAUVMt4ziDhGucBOoCJAuGrjr3UQ8ftzIFAtFdrW2sb2tBc0sImKB6cIQLDRTxxRB9brxek0svwAuAVUWCCs+SFoUMjkkl4A36iYej7NrexuJ5gzFfM8whiDi8XgR3SqBiERlWQVzZszGZRpogsy9Cx+ja0eSWKwcURfBErCKFqZoUkoOwhnk+DQLvf0Z9k2wUCjg9XodFslmIVRV3at20l7EZVkmFouRSqVQFIV0Oo3X68U0TRKJBF6v9yPXnB5ks1kAh922C3XTNEkmk1RWVjpOJaqq0t7eTjgcprOzk2g0Sj6f/8z3FggEyGQyzvCM/RlKkuQEAEWj0S97CvvQh/952APSNklhF9b2zIQNu2j7NNs3m301DGM3D//29nbHPq63q1EfPh32BsbWYNu+1bquO2u4fW7tz653eIwN29bR7kD2nofprQ+37ym2httmvUVRpKOjwym43W43yWQS0zTxer2k02mHgLHne2zi5dN8tCsqSuaqHR0dTteyT7e9/2K/KLihFLnt9ZQcHhRVgR5m0ufz4XF7cflUBFXEkqEoglY08AVDDBo2jPGDhhMQvJh5i+7NSQRLRpBVNDOLaRqg6QgyKIILn1KGtauLXTtaqGqsZ9jwBnSPSWdyB5qqk9VNBFkkrwjkJYu2TILOjixmUKFodtHUYYBuIiGDKlOsdCEXTYSsgZ4UyJtFPCoUMMjqWTKpboy8hqCKqKZIwFNJGWW0bE4SGxBHUCFQ6cMIF9ESBt1GElM2MbAoGAYFwUBPFShkmlmw4B7cEsTr+9Pc1oGW0tCjRRQELLO0wEhSyenFYVkL+j77gu5vsOPYbc9sYDcmY28Ll6ZpJBIJJEmirKwMt9tNc3MzgUCAUChEOp1GURS8Xq+j57Z1d1ByIrElHvbCDzhaQVt3GI/H6e7uJhgMomkagUCAzs5Oh3Xf2+Ck/X7sAB1VVXG5XKRSKaBU8Nubij70oQ9fDja7rWmao93dV7eJj8PW+fbufNnPmc/nnSCuqqqq/xdmL/Z/2Npre+Nidw7t9dB2jNI0zSlWfT4f2WzWGZD0+Xwkk0mnKLcHL2H31GC7yymKotPZ8Hg86LqOIAhOeJotAamqqqKzs9PZsNnrsZ1gbCeQ2oX4p8mKbAnJf2s3+n8F+0XBLSsl+zZbGqCqKpZpIokiRdPEtAwEwUKQBBAEXIqLAQMbmD7tECwD1jVtJSD6MTIGqZyOhYSpmyBaCEULVVAQdAupKKPqbsgF8BgFRMNHd1JDlAUESUQUShd1PqdRyOcRFQtZlnG5XYheF5lcBsvjxhP2IpoSXtmDV3aTSeXo0NqQXQKGARk9h2YWcHlU3IEouEwELHLJLOggCQqi5qKYEUlo3Wxu34HlEsinishFAVMCCYmqqjq88QDtWiexYBlS3iKZ7GTz1l0Ew2WkC0lS6RTBQDn5niJNEATMYhHTMrHA8aP+b4W9WNodkd6sRXd3924ssD0ck0qlnOEWuy0ZDocd9iSRSAA40+cdHR276fF6tx/tdqM9pCpJEqqqEovF2L59O4ATfJHJZJxiO51O09HRQVVV1Sc6EPaxotEomUyGXC7ntCojkQjpdNqRy/ShD3344tjS40tvWZbTKZMkCU3TvrDu2g7b6s2Si6LoFGrpdJp169ZRXV3dp9XdB9gFMHyUc9Bbqufz+fVcDmkAACAASURBVBytNZTIFtv5I5VKEQqFCIVCzmCkLUuxaw7bfs+WrdjPYxfy9mbJTif2+XwOAWMfx/6u2AW97Z5id0pTqRRVVVWf+V772O39G/tFwW23yUVJJOwPO19al8tVSnLyeEAQoGDiCXhxyV6svMC6FR8SCURRAgH8fj/JVAdZ08JEQBDEUrFtWrgNE0Es2fDJqkhBEcjIRWSXSSLZTOfOXeiqiU/zQk5ENiQUw0IyLKxcgXyXjt/rISRH8KteqqKVeFAZWNWf/Ds76eruIhhvRJJEClppkC0YCpFMJimPl5cixYtFKkaVs2vXLlSXi0njxpUSy4oFOjs68fl9RMJROru6AUinMjQ2DqZp40Ya/FX4XF7aU+0cUDeYreZWsrk8Y44cw3vvvU8kWmpzBTr8BIMhvB4fqVSKmpo6tm7diqZpXP2jK1i1ahXl5eUUiyZdXV0ccMBINm5swjSLDB48iI6OTrZu3cZRRx3FkiVLURUXHq+P1pYWBjU2smr1alyqSuPgwaz74ANHh7xz507GTziQFctX4vP7GDduHEsWL8EwdEaMGMm27dtKu3/Lorm5hTFjRvP++2tQVYXaujo2NW2ivr6e1rZdpFIphg8fwbatO3j4wQc/87tj+2bbbUXA0ezZset+v5/W1tbdGCfb8QMgEokQiUTYuXMniUTCYSrsdqKtI7Rhy1jsAUa74NZ1HU3TiMVimKZJKBRC0zSy2ayzCVAUhVwuhyiKeL1eWltbS92dXpKY3vD5fM4NJZfLOcy9z9c3xNiHPnwZrF27FlmWHRbTdpzo7av/edFbL2x3Ge3/7A2/qqr4fD6HHa2vr/+v7UJ+FQgEArS3tzvss52NYDPSttbePt+2k5Mt88tms04+gk2UJBIJR65ifzaBQMBxHuno6HDWfZsEtImarq6u3bIcevtn9+5m2Ppwv9/vWNL2fc7/3dgvCm5REJ3pb7fbTTab3S02WxRFZElGkGVU2UU0EKV18w60Do1sOMcHOzcT8ASIukPUl1WDKCDJImIRikWdgm4gigJFwSIjZglW+3AXVbq0dpBFipKJZZmYholVNLGMUoql2+3G5ZHImlmMfAGXLGHqOrEKP0PrGvHgoomd/x+fvf9t2Jo9m5mwN2/2z4Zh0Nzc7PytPeRit/vcbjctLS1UVlbi9/tJp9NOwqR9E7YHaWxIkuQs6vZibeu8A4EAzc3N1NXV0dbWRiwW241ByefzjuY7l8s52sFdu3ZRUVGxV5mIzeT0oQ99+HLQNI2mpiaHcc5kMng8HmczbIfbfNH2vi1T+Lj+2zRN/H6/Yz8YCoUcOVt1dfVX9fb+62BvhOxi1naPsdd522UEPtrw2GFntp7a6/USCoVoaWlxBuvtzZX9OfRGKBRi/fr11NTU7Eas2Drr3pspuyC3P3e72LYH6EVR7LP4+x/BflFw28WRPXCg9hRFoiiSSadxKW5ES0I0JaSChN5doGNzB6ZfQI2qeEWZMk+QuooapIIFWKAKiKKMHFVRwiKCD0SXQlLI4FJlgrXl6HoO0yriNV2YhSKCJWDlcY4tChZlkSi1ZTUkMMgl8wysquagYWOo81Xgl31kKztobGhkydIlNDY28uG6DymaRSZOmsQTjz9OIBQgmUzS1d1NY0MDixcvwe12MWhQA5s2baKmpgq3x8O2rdvRCwZt7aVWVXtbB7U1tWzatJlQKIDH66a7u5uCZtDS2ko2m6Ozq4vWtlZMq4gklawB29vacHsymEWL5uZm0uk0XV1dtLa2kkymejRwJVu7lpZWmjZuxOvzoigSXV1d7NrVzPvvv09bWzuiKCFJMonuBKFwhEQigWmaeLxeLCCRTJLJZEgmk6SSSdKZNLIik06nSaVT+Hw+tm3f1hMzb5FIJMlmM5hmiQFyuVzOAuj1ep2oXDuIZl9hL6a9rbpsaUkikSjNAfQwIul0GlVVCQaDDmNsF+xer5dMJuPYR9kDp7aerzeqq6vZunWrU9R7vV4KhYIzLd/a2up4vALOe7LlIvl8HpfL5Uy2RyIRUqlUny67D334D6OlpcXpXtm6bfsat2UAX0ZL+3E5if07+/f2z7aE5b8tUTCbze6W9vtVwdZx99Zc53I53G63829bzmPXFDbjbTtD2d1JW0pYVla2R2meLMvU19fT1dXluF71tmi1h/JzuZzTfSwWi5SVlZHJZAiHw879Y19tYPuw/2O/CL755kXfIx6PO37KnZ2dbNiwgVAoRDgSpjxayRtvv8HiZW/j8ilUVVWR6UpT5i3DI3ppLbTg8biZPH4SWk5j6apl7Cq00elJItSqSGUiVsDE8AgIpolHB0VUKYoKYTlAmeIjk9TQdhj42xTE5jwteopcJdT3jxKo8NNmZkl0dDGmYiBfGzODQf4q3Li4475H2bplC6qqks6ksaxSIdnZ2UnA70eQ7ZQqGbfbRaGgY1mmM4BhGBp6z+49lcw4O21NK+B2edB1A4/XTTabQhRLi5co2u4YaslzGxNJKg14aJqGZQkICECJlRUEAYtSxHvRLCJLMmbPAqUocs/iBIIgks9rPf6nXjRNxzJBlhUQIZfPlRhkUcS0zJ735C4Nknh9dHR04vF6S4WmYaCoKmavBdLWtlkWZLOlRUk3DHLZLB6Pl3S6G1GSsEzwB4I8cN/Cff4O6bpOR0fHbtq+YrHoMEo2I223Fm2m2WYuRFF0PF9tdtu2e7IHqOLxUrS4ff3Ym4V8Pk80GnV0ffbNRpIkksmkEydf+uxEZ9G225n2a4vFYn0txz704T+I1tZWWltbCYVCTldMVVVnBsReDz6vhtsOvmlqavrEPdZej+wi2x6qtCUm9jpgJ9nu71i/fj2GYVBZWfmVhf/ouk46nd6tmDdNE5fL5WQu2NITv9+/m3zElv/V1tZimuY+dxS6u7udAfre4Ts24253QO30YrsINwyDjo4O3G53H7P9X4w91dL7xd07L6toooJhCrS3t5LLdREOe6muqSUUrkayLExTpyiY6AJIiopgCcTKyolVlOO2JNSigCpKKLKMYRUpUmIsJEvEJXpQi15UTcanePCHgoiSTLDoYXiggdHhkQQ6PahdEqrhoSioWJKECGRyOQzdRJVkipZB0TRBEDCMIggSZWVRxo0fj8vt4sjZR1JeXo4sy8yfPx8Li7FjxjFkyFAMo8hJXz+ZQqFA//4DGTFiJKrqZuas2UQiUbAEDjnkECoq4lRUxJEkhTPPPJti0SQer2TGjMMI+AOccMKJJYcL1cPZZ81HUVQmTZpEQ0MDsixTV1vH9GnTCIfDHHPMMQ7Lev5538RC4ICRoxg+YiSWaXH++d/E0Iv4vH5OPPHrhEJhUskUF154EaYJw4eNYMKEAwE4/bTT8Xg8BAMB5syZQzAYZNzYsQwcOJBcLseZZ51FMBSiMh7ne5deimVZ5PN5jjzyKNweD42NjQwYOJAtW7dy4oknIMsyXp+PUaNGEQ6HmTp1CmU98osTTjwB1+ec4LcXPlsyYg++2KyELMvOwttbm23r7OzHwkf+3vaNWBTFPSaHxeNxh1WxByt7T7jbLWS7zWn/Z7Mw9kbA5XI5uu4+9KEP/xnkcjnHLSiXy+3mSNJbHmCvF5+Gj7tc2OgduGXLH2zG1WbQbblD74LRXi/2N5imyaZNm9i2bZsznG9vJr6o08ueoCiKY91qb2AURaFQKDj+2Lbzk+0q0vsc2yy2KIqfWWynUikn5df20Xa73U54jk2Q2LaPPp+PQCCwG6uvqmpfsf0/iP2C4T77+z+lsqycZPNO9Ewb4YAEgsiO5gyNQyZR5odn33yJt1cvRQ14aajtT2pnBzXlNQQDEbZtb0JRZKZNOwjdNHht8Zs0J5vJefJUDI5TFC2sIgTDXhQ/eCNetIxBOWWMjo5gYKyepcveYf3azQgFmfZEF81aC0K5hRgAl0dBCCmkcmnGxAdz3NjDqHOXJCW//fNtpZj4YmlKuqBpmJZFIOAnlUojSDIFrYDaMzSYzeV6ir2SXKO9vaVndx6ku7u7xCYDkqRg9ay/WiGPIFhEo2V0dnSiKC5M0+pxxZApFHJYlJIRu7oSGHppaDPRnXQ8RDUth98fIJPNOG2ubI920SgWyeXS1Nf3Y+OGjXi8Hiorq2lvKw2OuN0euru7CJeFsSyLZCJBvLKSTCbj3LT0gk4oHKFoFHtev0TRLGLoBrFYGV3d3Y5jij30Z5omhm4QCoVIppKYpo6iqCSTSRTFxQv/fO5zfY+2b99OIBDYTYtphxPYEpLednqCIDiLOOB4ZNs+23YAhh1W0bs9bKO5ufmj99LDevTWdts3Wcsqktv4Lm9pdRw8tAKv2sbr1/+DtYefxjfGV1HxKVHAnwdWbgeb9AoGBvfsP/6fQYqmx67hjsrLuWZqNXt3ne2B3sz2XDm1wS8wmGZ1sr3FR21ln/SmD58P69evd9jITCaD3+//UnIOe1jaNE2GDRsGlNYgW98LOJv53hrk3rDvx5qm4ZE1ZL2WwNAygl+1AZG5ln8vSBE4cwIjPCJgkG3LIpUH+TJX0q5du3azwRs6dCg7duzA5XJ95QEumqaRTCYdC0coFcS9w4S6urqce4wdlKMoijMXZvte7w2dnZ1Ogq9d1Pd2Ruk9TKtpGuFwuC987H8U+y3D7S7m8VoFsh3NVIV8TBk7gqnjhtHYL0Z38wYss4giy4hyyRO5tqaGgw85hCFDhpba9aKIrLiQVRey5MIte1AlFy7BTTFtIHYUya7oIPtuGwP0Cqq1CK52i7gcpUwJgqbR3raDXL4LVbVwqyIuWUK0SsWSJCsUzSKWZSDJAqIsorgU3B43siyh66ULOxgMoqgqbrcbr8eLIsuEQhHcHi+SKFFVVY3H4yUYDBErK0cURAYPHkIwGCIaiTJk8FDq6/tTX9+fSDjKqFGjCYcjjBg+gsbGwfh9fiZPmUp1dQ0VFXHGjh1HJBJl2LBhNDY20q9ff+rr6hg1ehSV8TijRo2ivr6eSCTCwQfPoKwsxrChwxkyeCiRcJSpU6cTj1dRHqvg4IMPIeAPUFNTy6EzDsfr8VFXV8/wYSMIhyNMmToVv8+HqihMmz7Nibetq6tD13WmTpsGFrhcKuPHj0dRFVRFYezYsRhGkXhFnGg0imWaDG5sxOpp5VZXV5NKp6iMxwmFQpimSWNDI7EvYJdVXl5ONpslm806gyuRSARZlslkSnIdt9vtRMLbbWOPx4MgCGia5kQ7R6NRZ5ByT+gd82v769phF/b/V1XVGZT0eHxE/Wt5bPZ3ufJDGTrf4ak7t1CsrNoje97rSOQ73ufDdxbyzN2X89N513PDmsRe/tZCX3sVc8u/zw27erFLVisbX1zHdmNfN9o66Y3P89QHneyboaSHWGAVN518H09/Fqll7eC9Bccy6Y7VZPbx1fR6MIXllzL6sFt4OPUV+9Ua7WxP6B/7pYWR/JAVi9axNfcx9tFoZfvyZ3hqZTPJj59WK0nH2p207el8f5XH6cM+I5MpfdtsKYndEfsysImD3gWXKIoEAoHdAligVBjamuKPw36MllrHU9eOpO6PK/bxurORo+u9V1jU+fHvVS8IWXa+PpMTHttK6Wu0lZW3jCDytVt4qGvfryVbFpNMJmlqanIIC7tr2N7e7ljtbd26lS1bttDZ2bmnZ8JINrG2I4f9tbZy21m7I4mBTnLbh2x3rgWDfPuHNGeKkOukra2NRCJBRgzg+9j6HAwG8fl8TqfR7mDaA4x7+szt99PS0rKb5McmZmxGu/dzer1eKioq+ortPuyG/aLgFvUCXkki5PMTCQXBKpJOJ6iqKAMrD1iOm4PQczF4vV6HiSxaApYoAzKq6kGV3ciomLkimfY0PvxE3RV4hRA7tnTy/tpNbG3vYF3rdt74cBn3vfAILYltBMMqgYBKwO/GpchgmnjdHupqa4mVxxBdMl25FM2pDhJGjqxYJBQKM3bsGEzTZNSoUQBo+Tzjxo3DKBrEK+JUxivRdYPJk6eQSZf0zvF4JaIo0a9ffyoq4nR3J6isrMLtcuN2uenq7mb48OGlQUndIBQMI4oS0WhpKCObyVJXW9+jCQdV/ShwRRQEiqZJLBYjmUw6HqK2TtHepQeDQTo6OkrMiyASCodpa2snGAw5TJBpWhSLJYu7dCbTo8suLTpqz9CRKIp4PR4EASRZpn//fmTSpRucUSwVnm6PG71QIJVKUVlZWUphVBRUtTQwWV1d3eMwItK/f38n5OXzwOVyOQ4jttWXYZQY9IqKCideuXdqmdfrdQYX7eFJe3h3b0gkEjQ3N9PZ2em0L232KpFIYFmWMwRqWRZVVZW49ATZIRfyhycnUJHbwaYXfs8/z5qI9bvb+fWK9r3fYAuv8Mh3z+CEn7/Ogm0NuE8+gll1e4uHFlBHzeEkdw2Dyu2WuEF2yaWcNXsKo29ZuZciN8Wmx7/Nt/50B3/73RxOHRPj4NkncfqwQ5j25A4+u86T8QajSIcOZPinduI12l46l4Mfu5B/XDKaz++5IqCO+z1vf38hF1/zChu/qgLU2sSi60bTePuqjz4Hawfv33MoM2uGMHbqUPoffCmXrerGwkLf8Weun9OfunFzOH7MRBp//BLv6b1ejPYUt425mt/tNP6zx+nDPsMefrML7y+bT2BL09Lp9G5FXFVVFaFQiOrqavr160f//v0JBoOOt//H0ysBLDNH27YttHW4iI0dh/n0zVxxYhx31bXcmdzTpkCn8/m5HHjxd/jOMf2ZOqSWCcfOZOrkS7hq/V5SbIV66obUMqYhRunoA5nykzdYdFQn7etW8PTafdtcp1IpVq9eTXNzs6NLr6ysdKRytgVqb8eoPUtL2llx62SGX/YcawDQaH76eIYf8leW5t/hL42jmP3Mjp6/XcWzl45i3J3v0LRwNg0NDSWJYmwgkdNuZsEODYyHualBcIivWCxGbW0tZd96hu1mgZanzqeystLZ9AgNN/FiMktra6sjNZJleTfWUtM0J+jG/txisZjjatLnmd2Hj2O/cCkRJBeKN4jiDdGcyDHIHyUWK+e91xYTjdcQKSsrMQSygt/vJ6/lWfzev6mMVOL3B5FkCUsQEHoKR8ESccluyIoE3AF83iAHTG4gke4kKScIRvzkC92saP4Q1ZAYGC1j6OD+eDQ3+XYTIQmyKCMJIoV8ibkUPBL5osHazRvJdORY6qvEZam0NW1l29atuNwuXnrxRSxAkkSe/eezFIsm69atI69pSKLIfQsXYpoWbW3tbNmyFdWl8tZbb5HNZAkEAixZshRRLF3EXo+XRx99DK/HR0tzCy0tuxAFibffehuv1weWwIsvvYjH7aWlpQWtkCEWK6e7O0F7eweCINLe9tEQ4ZtvvglAW1ubM9G9dOlSh6Fdu/YD3G43dXX1LFq0CI/HS1dXd2ko04Lly5fj9ZaY4E2bN5eK657p/mAwyJo1axBEEVmS+Ne//kUoHAIL2tvb0fUC6VQKBIHKqirWrv0AWVZwudwUdB1VUWhpaUGWZcrKyli3bl3Je/0LwO0uubmoqkogEPgEA2H/f5vZ7i0z2VfGK5/POyyKHUhj33zC4bAzPW+zLaDR9tpJDDuhHXnWARyuT2Ni/Y08dG6SDdf/gp/e0MDB981j6p7Wb3UWZ9w7izN6/mnlttK05F2WjR3LuL3IRnINAxguQ3H1jzj7mtfZPOJiLt12ByfV+thzp9pNSF3N7c8NZeptd3P790IY/zyU8u8dzkWHVu3lMb1hQayeia+v48U336C5ZRFv6Udw6knjaFR6PbrwHPedWuCYl+dxmPpFe+ZlDDnzJ1xV9ROumjuJhyYFv+Dz9EBfyes3zuP8n+3E+rXDtaEtv4oL5vuIPbeBnaOa2XTfeRw0VmF68/kULvkRN4+9n1fum83klh9yzogrueKQ53jQczGjb5vOz34soAgSVuu/WfiHb/HrcY+zfK7Bmzee8KWPc8khL/DqrK+2Vf+/AJtsKBQKjr3ml5FWqqpKOp3G5/N9pkwhFoshCAJdXV2f2MhbloXQtYrn//5n7lo7nK8deSwLv/YkX7/mIm7b+lPO9e+JM1OIHjiZqcd8QGTbBt6uTvH+n8YzdcvxnDHgUwQihh9a3+e1nUFcz97Nu5vf5tWnF/G4axNzvvd9Jg2NUuFclhpt/76Lx4zpTDS3kMxtZXvTBraufpsnH27F/PoP+cX3j6XWyLBlyxYAx2t60KBBbNq0ySFtvqrBSQcn38mTv5vFuOzTPPC9S7ngxiHM+ePX+Obraziqu2Tnq3W9yV1n/4h3pw+hgi4Wv7OGYdc8xUNzG/C6XHRnTGLpbnTLcjT99iC7LQ30+/3IskxXVxexWKwvGbQPn4n9guHWLQHZ42fEhMl05oo89/oSlr63kXj/YfQbMgqPpxQKIkoCRg9rmcvlECUREFDdKrIi4XIruNwuVLe71zBDGEWSeGfRW2z5cB2NdXWMHNpIJOLD65fIFTr5YPN7vLVyCe9v2kAeE9Xro5SUA1gWlqFjagZm3iSby7NxxzZWbPmQZjPN4MYhDBrUiNvl5YgjZhONlBErq2DWzCMJBkKMGz+a2toqECxOPXUeXq+HAQMGcuCBEwmHIhx99FEEQ0GCwSBHHjWbmppqamqqcbtdfOMb54BgMWLkMMaPH0tFRRnHHX8MgmDicivMm3cKLrfM2HFjGDZsGNFolEEDB3LgxIlUVlYyc+ZMIpEIoigyd95JhMJ+Bg3qz8BB/QkEvJxw4nGIooUgWsw+cib+gIeW1h2cdvrJGMUstXUVDB85iKKV5YQT5/QM/5nMnj2LQCBAXW0N1dVVFIsGRx9zFKapI4gWF154PpZlUNBzTJ8+BY/XRXVNJdVVVXR2dHDY4YdRKBTQChoDBwwgn9dKDLfoprWli0mTpoH1xQoyVVWpq6sjGo3utd1XLBYdRqNYLKLrOh6Px2mX7gk7d37kt27LSaA0zGOzXYZhUCgUSCQSRCKRXr7ZLuKHnsE3fGfyu6sbGBKTMe6+mvNfzLDzXyfyjWuP23OxbbTRsuE1Fj/9W/72m1P4zin9mOA7nCm/vIkL7lxO825/bGGk3ueDxa+zZdNvObX6Wl6WRJav+y63/2IeJ++12AZQCMYqUaLVjO0XwZtazJI3m4hfMZezgx9fQtbyyi9O5sILT+TS00Zx4mQPghDEP+dplgTW8MITT/L3J98h+/J5nP7gRnpzW8byhVx19MX8cIy/9HqTm9iY1Mi3f8jGpF5qKa/tIKcn2bgxid7TYtatJB1rN33UYlaP5JTbDJ56aQ2fvw/ysVO87I9cbP6Mn10Z7fXbFFuWvs1bM7/OpTMHUVU1jcnHHsYRZoZWvYJxc+7hwauO5dCoG0/jdMap77M1oREc813umPAPbpn0Ha7U7uLXB36TH1o/4Mcz6zCX3fiVHKc1kfuS7/h/Dzarbcu87IG6T+tifRY0TSMajVJfX/8JD+c9oaysbK+MqBU5kJMvPIPZOzvxjJ9ILJ+i5tcnM2+Pxbb9hEdx5GlvsHzRmzx770+478lO6icNZ7j88avcorD6Wq44fwbfvbGFRS+9z3arirj4Mn+qv5FrLx1JYNZ8/nzayF7FNoCEK/cGv575fX70/EqWt9SgDJ/P7Cvu4vbr6lh6++/5+bMf4u1xcbIJDNuhw3YIgZLOe9OmTbS1tX3medoneMIMqq2ldvBJzDgohNmdoR2FYM0wRowYwaBBtbg3/JO/+C7mijl1uIQ21r+t0Ri26GrPk3eHqa8KEw0GKRQKdHV1OY4jtrWrruvOUHs8Hu8rtvuwT9gvGG7DyKIoIj6/nxmHz6KldTMrVixnQP8g8XgAweguMbUW5DWNzo5OBLHUxpcVGUG0ECWLomWgqAqCDIrXhZFJ0p1N4RJUygIhNC3DlnUbybcU0V0FPIKEJgiYskinlsUlapTLMqYiIsgqhmHiEUQUWUTO67hyEi41hD8cIJPVWNW0hoA5CHraUEuXLiGdyaDl86XdvmWxcuVKUqk0sqzwzNNPk0qn+eCDD5zBneeff4F8Pk8+n+eN11+no6MLALfbwyOPPEIul2PlipUgFPH7Azz26GM9A5oWjzzyCLIs89prryFJEAqFyWSySOIGPF4fzz33nCOTuH/hA0iyxM4dOwEBv9/H448/Qa6nBfjkk08QiUTJ5bLcffc9KIrM6tWrkCQZn8/LAw88AJSY3IceeohoNMqKFStRVJVcLssTTzyBZVlkMhn+ePPNZDNZXG4XDz/8MKFgiA861+FSS+ESzz7zLJZlkkomWbx4CcFQkA0bNpLN5nG5VF599ZXdItk/D/bF6aO6uppdu3aRy+WcG7Btz+d2u0mlUo53aiKRcKQnNuxhq0wm4wQ22amVgiDsOTkuNJlJ/a7mlcxFjIrcQ/n3ruFm7wK+deZPeXOIl4/D3HAl8w54mkXHTePI7n9wv3smk/95Gud2Xc+3Qh9/jyma/jaZEbcfwKmx5/n7EX/k1XvOZEbnz6nSdrH5lV/y2gO38qPc73nu7pOZspdTJLY+ye+mncZ9/vM48qCruWjEntjjoRz87csRXhFwT6iiIlrJY0EFdl7LiJkj+O1vT2bEHp9do23LRqwD6mkUoNRSnsSkZ4cxdcUbvDVyPhfUPspfHunHCdcdybKfvkntgct46/0pHP+1Xay5dxdb5/6VVxeeyhTRTeWwMfgf3sFW2P14+mre/PMfeXDktdx0RO1nDnDKk+5i9aQ23rmhdzHkIhAJQTpD0rBALdD2wXJeFqdwpCvE4HOOYzAABqn/+zt3Fs7h1KmV4DGpHTqBKaNXsvQtHRrHMf7AIQwLKl/tcfrwuWB3tIrFouPHbzOYX0RWYqe92jah+wq/308ymXQcUEoMu0b7xp0I9dM49ZJ3uefD/+Pxe3LUHLOAH53wAHe9fzF/eOcqvvGJje8gJs0dwfXrEjSPOYNZf7mKb9Xs/jyQ0wAAIABJREFUqRsloI68jKuuOYJ/iz/ksZnjGV4eou7Icxi9YB3vb+9ixLAm/nHmP9GuuJprR5WcNbZt20UxPInD3B8w9uuncEp9uGfWRGNXJA0HnsUP5jQgWEVHipFKtZH/4GVueaeKeWdPpaaHxLDlJfYauRu2LubWO7sY2L2Z4LZd+3Yiex4zufgKr/1KY8gfhrGboWLhOR66bhGzr76GkWIRsX0dy1Zu4anvHc9TAAOP54Lf/oqfTArjdrsJh8Mkk0nHrcZ2NbGTgfukI33YV+wXBbdX1ikLuQgG3CTTGqGAH6/HhUuWQTeQFQVBFBElCdWtoigKye4k1Jeir2VJBMGkq7ud2tr+eP0ehKyAIZqEwwFCZeVU9Y+Tz2doy7fij/mo6h8lkUuyramJrvY2JETcUhmiL4CkG6guHwGpgCjoJLu7USyFwcFaJFVFs0wyLo2kTyGQDZLLlWQFQo/Pc7jHDsjr8WCJ4PP6yGsFBETKyspQZPWjCHFBB1xggayojmWRYZQWMq/Xi8fjoqCX/Folv4RlgWmWinI7xark8KH0aKlLv3O7PB8N83ndiIKAqqiIUsk+0e/3k3ale6Lo/YiiSDgUoawshqZpqKobVVUwdAO3x4dpQSadob6+H3pBBwSikSgdnR2EgmHSmdJzNTYMZmPTRizTYuDAQSQTSTxeL+FQlKJZkm+4PW7MotkrIADC4RCZTBa/30dLS+t/7PtmW3AVi0W8Xq/jh+vxeEgkElRUVDiR7DbslrT9s+1EUHKAKd20g8HgJ2zCPsJwpl1X5IYl7Yx1qbhiNVTUX8hfz5zNiD1Qz2LDDTyUuwEKT/CHqg0c/cfxvL9hOId8otgGCDDwnPfJzV/F0xc8w9+WvcFtz0xk/BSo2XgbP1j9J24dcR+S1cioPRbbOXauX4dlDWLtKf9m63fGfozt2u3sIUcnMrVuPsN/PoVrfzGfQfvqiGK5GDQgvpsrgmnO4ZpXRvLXiW+w5B/P81zjHC5sLSCbUap/9SJ33DKbC7z3sOLpvzHh7O1sNwERxLJa4mv2IAFqe5QF37uTe6ZPYM6hFzL7C90rXcTHzWTuu7/l25dD+9CXeOG3i3FddQOnln30hFbqYW77wesUbl/MlTUSyZfOZdRVjZz5s+u4fOm77PrFNPovOIJZmSVsPX/oHhbjz3+cK2r+33Sf2f9hO2j0LvoEQdjNe3tvsCUGqlpyThIEAa/X+4WTAwVBcDppmUymJ/SmhfUPzef0OxQmnH08492bEU8/g1P7D6P8qHOYf8BgRn+i2AaQCR78Wx44vJrQzld5W8uTWf0oL21exL/+UsS4/iqum1JZ2nAKQaJxlWxqF01imP5Lvs4hRz3OIuUYtn/vCg7x+KmYfzLjq2RaWlpIp9MAeMsHEpeW0oqrV7dQI9WVpuzs4xkuGoDgyDAUpZOX77qOPz01GWnaOH4xvZaWlhZnY7PHAJhtS3jh/ncJd++kXu7atxPZ85j24lIeto7j3PHVfERZGCRfv4XrM2dy/6H1KKTJdEnU/+AOnv/G0UyI6bQ/Op9hF97NuBfOZ27/GJ2dnRiG4dyL7OCzfelc9KEPvbFfSEpEdCQMDC2DSBFZFFAlCVUSEXo8jItOdLeMrChoeoENGzawbt062jva6OrqZMeO7WiFPIgCgiRiYpEvaPjKwkRqqpk+axbjDz4IXVV4r6mJ9mwWJRhC8vlxBQKoXh+iomAiIoilwrarq4s1761hx8YthGQPB0+cymknzWVIQwOpRJJYeYyxY8chKwpzjj0WAAs4/PDDyeVyjBk9hkg0imHonHX2WWh5jaqqKqZOnYrX62XWrFm4XG6CwSCTJ0/G5/M5NnMnnXQSpmkSj8cZOXIkXo+XWbNmI/TYEx133HEAjB41msGDB+P3+6mrq2PkyJFgWUyfPh2v14tlWcw59jh0vUi/fgOoqa7FNOGggw4hm82jqm5GjRpDoWCQTKaYPWs2um5QHiunsrKaXF5j5szZJBMpXG4Pow4YjSTJNDYMRhQlctk8h8w4lHy+QDAQYsahh1E0Siz8sKEjAJHKeDWyIpNJpznq6KNKGw63i/KKcnS9wNix4wDQtDxTpkz5yi2lPo54PO4kiAHOBLodaqAoCslkcrdUMhu2ZZTtpxsIBIjH43i93k8s0lZqGW88/DAPP/w0G6Sj+UakCb2QJ7nyWR7++/c5p87dw7BPZNo/d31sQDFF00PX8+tLfs6CwyzcJ/enYfdnR9f0nsdYFJbfxLktsxmTqmbynb/mgReX8tKNP+DCe57h39skpk8YsJdBxS2sebOdyVfczCMDrufEW1fQ+qnyVgHXgRfzm+LlnH/fe/vuqCBobNzUstvfu46fwYyacjxMY85hw4j1WAVud83g5IP6EVXdDD1iKsPKgwiZj16UsW0NG8fuYXmrvpzfLHuaVx855wsW2yWIDdfxtw2/4cb4qyx/8kUeaj2NC+dPwuGXzZX869oruGbInSycPwI3IsEZ97D2Xzdz57EDKBeCNBz0Ta57ajX/N69xr8zH5z3O5x80/d/G5s2bSaVSX0ivbc9lZDIZZFkmEAg4Ha9wOPy5n88O3bI36PbMiJVr5NJnn+KpX13BlVd+l/lfO5qzjpnOKYeMYkzU3Yu13sS/f38pf/nLuVx5dJxhBwyg/phf8PRz13LsBbdz8xoZqiC/4WZ+d/GDvGAAVic73r6Gq8efx18XH8akgS7S0Qv4w6PnckZCw+XRUdffyas3nspZ/Y7gW/9cjz8QKFnwZWSGNpgEIlGnw2flN9O03uLI4eX4e4ZQbfLB4xnCMT97mHuf+RmXH1juuEHZHYU9nrNpl/Dkyy/zzjvL+fNlw/ftRPY85sFX1rP6+sUsmPEL/tDR47RireGNh96j9qKjmaiWHEeCI0/h6iu/ztiITLHooWL6UZzZspj3u/1ks1nC4XDJFCCdxu/3U15e3lds9+ELYb9guHUzBJIPl9dHPmFgmSo+TxnZXA5R1ZAMExciPknFJYgMrK0novhwu3yYokSwX4xodTVVsSpicpCQ4UUWZPSQhFkmsLptBc1KOxt3bERPZHBnLcYqdRgZg3ZTx1UTZlt3G0ohjWll8Gk6qmhSVETCQhhVlQgqXoaW11HRZuHp7ODQwHByFZ0sXrwYwzCor6/n1zfeSEV5OUXT5I477iAcifDY448jigJul4drr7mWQCDAqlWr6O7upra2lnvuuYdcLk9tTS2PPfoYUo8PdzQS5cYbbyQWi7Fi5QqgSFlZjPsW3kdZNEYqlebee+8lFAqxePG/MYol2YNeMEAQURXVkZxomsZdd92FoigsW7YMQRAIhUL8/e9/R1EUdF3n5ZdeRnW5EASRhQvvx+P1snFjU086o48HH3yQYChMPpfjxRdfJBKNsnLVKhRFIRAM8sD9D+Dz+UgkEtx8882EQyW2+uWXX0IQRNat+6A0PV5ezsKFC6msrCSRSPDe6tWUl5fzzrvv4HF78fn8vPDCC0jSf/ara6eG9fbKtlvFNssRiURIp9O43e7d2G578t4ON/j0lmMXre89zsObhlA7pZ66ASMYmnyU8rHn8Z2Tfs+tZZ69aKstjI2/5LIfzeXm96YQTL28h79p4qXLVtHvzycwovAiCy6qZsHvTa46fxSznvs27ZcdzvS5J3DOwS8xZ/JUDrlsL+VayxM8uvBczvhNNdWBP3LbH05k5l9u5enzx1H/CU1oD8QDOfGW57l3c+M++vi6iA8bi/+G5Sy6fAIzvhQVkKRpxTIY9YOPbUAA/FSMPZZPH2PbF8h4ak/m1CsUWp94lvIfXcxVDT3v1NrBe3+dz3GvXMxfXzuJKfZeTKlmUAwo1DP68kPRFMDTj4Ff9XH6sE8oFArOtWm7T/R2CPmsIty29tN1fTfv7qqqqi/0enpLSWyJi2A2s/mdoQy93L1bOE4mk9kDI1xG1PsM391+B01PLeC6d+fi/1YZg4+ZydzLfcx49QRmYrC8fQcXvXAex8spmv42ncZ7TuPm5/7FCbfP4bpXH+CuXc+x/i9v8MblN3Nl0/XcEvsdd/18ENGqCBG3G8MwqKqqQhT9lB+6lpu+P583NjzP0+9lYNAMBvWvpn5oC/rgKPF43PHGzmSyCIEBTB0uIhYK6OCE09TU1AAlHX1rayuqmv70c19WpKs7gwHIlo6u7eGzEiJUDWwk0pXElyuSSKQp7nidhXeOY+4b/TF1HVk22PTPG7l+zSH84qIJVHq9uPLdNDGA6QOiBAIaqVTKsajdk21jH/qwr9gvCm5JKvlrd3Z2lgzqpdJiVDSLFE2TLEV0RUSToDvbzTsfrmLYoCH0bxhMOBZDFHRMWUExFVxZEVESUJAgZ6FoEgHVTbatk7ZklqnDJ5DKdrPqjVU0Dh7CoRNmsD79Ien2NB5DRDFNRMNEkEQyRoF8oZuCqNFayCBuXMbEQaMY0X8wTTs3896295k2bDz5XA7V5WLc2LHkNQ2Xy0UykSAQDOIP+tHyGoqqEgjYHrAqHo8Hs8e6r1AoIMkSNbU1GHppp140Lfr160cmk+nRzpXY1/r6erq6ugmFQui6gaZp+AMBDKOAZZkEgkFyuVJ6YbFo9QTXuCkWTSc9URBEJFHC5/Oj9iyIiqLg8/ooK4vhdnvQCzo+nx+fz0c2m6UyXkVnTzBPRUWcfF4jGomW3msySUVFBYlEAkmSGNB/AM09riPBYLR00zIMXC432WyGSDhSGlqUZALBQOlGZFmAgM/nBaz/+JCKbRlot0NthttmvXVdd1gP2+nFhiAIVFbum5ZWCBzOST87nJOc32jsykVxiXGGle3NicUgv/lP/PjsIMe+fQknByRIQdXf3uW1H45ntkcELIwd97HwyUou+1OeDY+9heuxn3Fs57f5xnATceUvubpwM48csI43rlxP/Vkd3PT9P1P+4zM5b0T0oyJZX8ZzP32ATY8+w21BEajhgIv/xE8vmMmE1b/n91efzGm13j1vCgLTOemA0o9mx3Zahh/wqedCHP51frb1Em5440RmzNin07dnJB/j/qsGcPK/hn6y2E89w50X/4z7DlrAA+eO/hRpzL5Ao+WfN3JZ9sf89aIJlNzSEzTdezxfu0hi2K0TcL/4GA8Tpfzg6cyI97wadRKzr5v0nz9OHz4VvQed7WLbLrI/XnzvCXYyrC2JUBSFurq6L/x6eicRlsJUNMx1r3LPgZO5Pyw7Lh+2d7Q9jPgRgjRMnUHg8hX83wvvkH19KdaoeVTUVHOA/A9u/XkXK9se5U/h0/hdpRuQGHjOctJz2+jY9m8WbW/Ddcx5XDvpPNq+voCH/nAlF999IF/7kw9PLEykJ6fA9qU2DI2q8edz6axJNIau5d6GeoLB3ec6tmzZgmEYJZmgW2P1Pb/g5+tncPklMxgTKvlzNzY2AtDR0UEymURVVTo702S0PdubFuRGJp0dYtcdf+cnDXM4JnEzjzw2mGnn1CKtykJHEy+++So7m5/ipbuX0TX5MIaoKQRBoHv5/3F//QSeaXChKCKWJRIK6nx410M8OMbFeGkTGx78M0vn/oUbaxX8orLXrIU+9OHzYr+QlOzPiJXFGNTQgF7QS3IPSrZxJ59yCpl0hsmTJlNXX08qmeL8888jm80yZMgQxo0bh8/n48QTTiQcCuP1ejns0MOIlceIlcewTJOzzjoLgAH9BzBx4kTcbhezZ8+mrCcU5vTTTycYDDJm9JgeSUmAeLyCqVOm4Ha7mTdvnqMrPv+8byJJCgeMHM0BIw/A5fJwzvxvYBRNQqEIM2fOwu320NnZxamnnobb7WHo0GFUVVWjKCpHHDETRVFRFBejRo0B4ICRowgEQ2SzOY486mgsS6C8vIJTTpmLLMn4/UEmTpyMgMi4seOIV8ZpbW1j7ry5aFpJWjN8+HDymsb06Qc52u158+b9Rwvupqam3dgv+8Zq/9xbQlJdXU0ut7szRNkXCOX5XCi8yZN3Hcj8l37IeTU9xVX1PK6YfyPf9g6lYvYcjhqlotRew8L+ebbpLhrm/Zxza0S6t35IZlAHj7w4n/v/cDDKquXsvOAF7lzwGE/0+w1XjizDe/RNPNimY7Tcy43jr+Dvc5/hmVm1H+3OlYmc+Me7+VXyEs6YcQIHXnMPty7ZQWJPhGDheRbMvJI7H1tEwvMZ1a00k7OfncjWr9/OcwkVOTigpP8WQpQNLSMkCMjBARwYDDJwZBAXEu5YA3UeEZRyBg0KUmu1s+h313DrFdfxu7F7uFGmV7HkX8t4++U1n8OnW/jotfSG9iR3n7makdeexdkhu4uxhQ/e1XENz5G/5btce+21XHvtL7lhafv/j47TB13XKRQKDmNs4/Mw3IAzoyFJErW1tV/6ddmvRRRFrOImXrp5IyeeNYFYL525HTe/p1kQcdhsLluziTe1sfiOeZJFv5xJtTqB6T8+hnOPO4d533uGt9+8hJPD9vfIhSj5oekebvv7OMpDMlgF9NRW3n3vW9z06ATGvHoeR313AU982ElLSwupVIpsNovL5aX6kFM4oiFObdS/W5fPhiRJRKPRHlePHSTWLebfr73NRimGx+MpBZulUjQ3N7Nz505HP6+qKllxIMPKPE6RInhrGRb2kyDGQVf9g4UHP85Lx03noMuT7LzpVm6ZVY4cGMjwTX9jwYUXc+m1q9gw+DpeuvdshlFE05LsbBM47PQxDBGtHpcUkei0K7j/z42s/fk85py5gFtq/8qTd5yy1+HxPvThi2K/iHa/+Ls/ZPz48aRSKQqFAsFgkPXr1+PxeGhoaKBoFXn6jRd5deUiDMnArUjUVtWUvJpVlf7xMjSjSF28nuHlDSx7bQlrdm5mY3YXAwbVUlkRQhM0KBap9VcyrGwoy/+1AkV0M+7gCbS6dvHK+pcx0xYDpVrMlgLrM62sK2wlbXSAX8QSBYJ4CBXdqHmLQDRI3m0QXi/3+I362blrJ6FQCFmSaG1to6amms5Et+NV3d2VwOX2YOglW7pIJEJHZ3NJL11eQaI74Xw2iuJ2Cj/T1DGMArHychLdSdxuD6b5kc1VsVhAEC0EQUSRFdKZLF6vj86OLvx+f48Dh06wR5tn9niPJhIJwuFwT8Fp4PV6nbh2u+Vpe21LsoLFR6ENdnCMz+dDy5duSKIkOvILm1WXJNEZFEIwoWdqvZT4aCHLEj5/aTH3eUst1EwmjShKXH3lDxg4cOA+OY98FkzTpKury9EVBoNB8vm8YwVlM92SJKFpGvF43Lk5ZrPZ3TSIX+760dj1wJGcFn34C/gp50ltfINXlyXQiFM+dggj+ldQ3kv2YbXdxbdePpg/ndrwme0tK7eLncSp8ez5/Fqppbz21Au83jyIurGjmXHQMAYpnyyqrdT93DTrXG69cAXrzx78GcdNsfOFMzl89TW8c/nYz6lJtigsO4/RC+fy8K9mMnIPrwUMcm1b6PAPoHYv76sP//3o6uqira0Nd49E4uOBM/tabBeLRTKZDDU1NZ/qnGQ/92c97/bt29F1HVFI8P6CX/HIiCv44aQovp711HbHKBQKDBo0aA8svImmmbhcn36V5fN5EomEE7gzYECQNX9ZR+R8L6/Pv5/lZ5zJuYePLsW8Gzt57o83sHTIhZw2VEUURQYOLAmhOjs7yefzmKZJZ2cnVVUfJePqus6aNWvw+Xz4/X78fj/Nmz+grRhm8ugGujo7nTmY3i4xmUzGObf9+/f/0nrplpYWuru78fv9SJKEx+NxCBXTNJ2sBZ/P9xmpvn3ow75jT7X0flFwX/Ctyzjo4IOwTMvxR/5w/XqwLIYPH44syzz56nO8suItClKBQw+ZzvFHH0tnoovXF71NprOZQLSMeLSKEeWNrHx9GVs622krZvnGmaczathgdnbsYOWqZQRkLz7dy6JXl+AKeIgPrWLJtsWs3LGSumA9o4JDEFp1NmZa+LC4HV1IQUBEVfzUu+NE8OAqguRTaDP/H/bOO0qusv7/r3vv3LnTZ2d7y2aT3RSym14gAUJCCy1EOggiBEQCgoiAgAIK0lQEFUQQ5AeoKE2kSgudhEB6J8km23uZfvv9/TE7Q4AAEYh+8/3u+5w9J2dzZ+6du3Of5/N8nncZYIJelXmgbYvS0jI2b96Ez+ujorKCxsZGyioqaG1twzAMxu1Tx5IlSxk+fAS24zDQ38+IkcPYsGEDsuymoryStraMNVJa1Zg6ZSpLly6lsrIMBxtVVSksKKK9vQNV1Rg/fgIffvgh4bwgqpoe3CYVCQSCxKIxhldVs2XrVnRdZ8rkKWzctJGAPwCCQCwWZeKEiaxeswaPR2FYVSV9fX20tLSy3377sm1bA8FQENkl09rawtSp03j/g/dxuVyMnzCB7Q3bCYfDWLZFR3s7sw86iHffXYLP72f+MfP5x1P/wLYspk2bzqZNm1A8CsGAnw+3fMiBBxzI+g0bsEyTcXV1dHZ0EAwG0Q2T1tYWJk2cxMaNm7jqisspKir60haBWUSj0VynKhv6k6UxZRcOkiTlnotIJLJLj97dnVS/CHbLO7wb3o8Dgv9b7KYM4h9uJjqyjsrP4nwPYQj/QTQ1NeWe82zS4c4L9915hgVByFHLvijcZnfHhp6eHpLJJFb3Zj5IlDBrVCH6IA0x66CS5T2Xl5d/6ehwVVXp6+vL5FWIIiUlJUiSREdHB4ZhEIlEPrZT19DQkDtXWVkZjuOwY8eOj6UuFhUV5cTsyWQSr9dLa2sroVBokFLioaurC1mWiUajORF6dhGRLX6zNB1VVXG73V/LzoGqqsTjcWKxGIWFhaTT6Vwhr+s6Ho/nU3SYIQzhq2BXtfRew+F2HHJK6Ezn1Ec8nkDVNPIcEY8loJjgEkSqIyU4sQSvP/M8cVXlwAOm0xWLoiYSaKE0CDYioEgyWjRF7/Yuurq60aIWwUKJjnQPwbF5tOudvN+2mna9HTUIlk9Gc4HsEnC5ZNy2iEdwISJS5I5gN8RYsWEFou1geAU81XkMLwkgy24Gon3kRUKkUglULYXP70HT0vT395FKJUgkkqTVNOl0ip6eLhTFg2VbdHV1DSaWBYjGYiQSmSgPxxFyqZA9PT14fQqqqhGTY8TjMRxHIJFIYJomiXgChEy0eTqVJmbFEUWJVCpNKpnGtm1i8SimaWBaBqqqYhg6aTWFqqaQJIFYIoFp2fT09ZLWNNJqxu3F0A1My6KzuxPT0jFMjba2ZlQtiZwSSaaSaHqa1rYWVE3F7VHY2rAF3dABh+bWZkzbwNFsUqkkjgOqrqEbOl6vl46ODpLJJG6Ph2QyQSgcQjd1/MFM2FE8Hv/KBTd85AiQjW7PRvZmuZxZHmI8Hv/CyfWrQqzcnwP26Bn+05AJjq5nF6ZfQxjCfwVZWkZWFA27LoZt284tum3bzi20s/oOwzC+1vEga03oLhjFfsUS9mA4TLa7bdt2boGgKF+eq+/xeJBlOUeH6e7uznHDM57ZmXE1e2/C4TDRaBSv10tbWxvmoCtYVjweDAZRFIVoNJrzrB42bNjHOO3Zc0Wj0dwObjwex7IsRo8ejaZptLdnGkrxeDxns5hdGH0VZIv9goKCXPpv9v2/jKPMEIbwZbBXFNyWlfGctrNCFgEkUUIgM3B6ZRmPKOG2wJEkPLZE19ZWRhdVs3LtOlwJGF5QSVRKINqA4CApIkXhfKZNmcSU2nGYtsXW1gbeePd1fGEvRYVFNLW1omkpUGzcaR+Sy4vgcoPoYNsWAZ+P/Lwgkl/EiNtohorf70ESJAyPiCgrpNMammYgia5BCkcQn89HW1sbPr8fVVXRdB2fz8+6devIy8sjHo+jaTqWZZNMRjNBNpZNS3MzrkGXEtu22bp1K7Ztk0qlSCQzA1QinikUJUlm+/btgxZTHhActm3dSuWwKmKxTOTwqlWryC8oRE2n2bx5My6Xi2g0mrO1W7FiRSYGV9NoaW7GHwgwaeJEVq9aRV5ehL7ePtzujAd6w7ZtSK7MoNja2orf56eltYVQKIzX62XTps0UFhYhSiJr16xFUdzILpne3h4C/gC2kyl4yyvK2bJlK/mRTBGdVlVKSkvoaO+gsKgQRVHYunUrfp8ft9tNOp0mlUp9LHjm30VGYGrQ3d2Nz+fLBdukUqmcz246nUYQBIYPH/5VvspDGMIQ/svo7u7OjRnZQvazkF1sS5KU2+XKOhjpus64cbtpVbebyHr3w6eFmy6XK9cYyFrpfdmiO0vjyNIOs1Q6v9+fS8Vtb2/P5T6Ew2H6+vowDAPbzgjsfT4foVCIdDpNLBYjHo8jy3LuM5imSTwez3Wus0m7iqIgiiKqqmKaJvn5+bmGhtvtzglQs/7mAwMDjB079iveWaiqqqKrq4tQKITb7f5KSaJDGMKXwV5BYhRFEduy0DUNVVXRNf0jD0/TJKmlsQQHW4D8/AJMzaIwVERxqIyJoycTEfOQkhKSJuHoNqahY1oaBioGKqJo4pVE6kbUcs6pp/PNY07kpEOO49vHfovqyEjsBATwUCD7USwBNBMBgZiaYnPLdjY2b6VB7yBdLRHZbxgl+42geNIwrLDAyJEjKS8vR/F4mD17NslkCsdxOOaY+WiqxqRJkygrLcU0Dc4+6yzi8TjjJ0xgzJix+P1+TjjhBILBILZjM2/evEzMeziEIIqcddZZOI5D7ahRTJ06jYqKCuYdcQQ+n49UKsWJJ55IOBxm1KhRFBcVM23adAoLCpgyZQqBQIATTjwRURAQRYlTTz0VRVEYN24co0ePRlEUzjnnHCBDoTjssMPJC4fZuGkT537nOygehclTJjN6zBgURWHhwnMAkUAgxIknnIzPH+Dggw+leng1pmlzySWXZAJ0QmFuvPFGJCkz2J922mkA1NTUMmbMGNrbOzj//O9iWhayLHPQQbOJxxPMO2IeeXl5NDU1ccYZ30LTM161Pp8vF8TwVSDLck7AU1hYmAu6sSwLx3EoLy+ofjpZAAAgAElEQVQnEol85fMMYQhD+O8im2i4O04k2W1hSZI+FpAjiuKXpnN8HrKF/SevzzAMDMPIjUfZa/ss2LbNjh07aG5u/pSYsa2tjYaGhlxcuaZpOQ1KWVkZ/f39yLJMf38/sVgMyBT74XAYVVVJJBL4fD7y8/Npb28nFovlEjIFQaCyspKysjJ6e3tJJBL09vbmrj3Lzc66Pvn9fvr7+2lubgbIOb4oipL7/IHArgWZXwbFxcX4/f6hYnsI/xXsFRzu711yJdOmTs1QIlSVdCpFNBqls6uTunF1yKLD4vfeYsn6FXi8Hk6dfzz5SpDnnn6BeCrNMQfNoWhkJaYIaizBsqXv0pjoQcr3cc3FlzK9Zh/cjgtbyKQLJhMqA8kE9zz2AE9/8ALuYpmS4mKqPMPw97np2dRGg97NVqmNpNMLPgszJCLKbsSEg5QC0XawRZsDE2OJxWJE8iLEEwlwHIzBOPWSkhJa21sHRZNhotEYiuJF1w2SiSRlZeW0dzSjplVG1tTQ0tKK35dxXpAkF/F4IpcimU4nKSgsJJlIoWk6gWCIdCpNIBDAskwsyyAYDBKLxbEsh6KiIvr6MjZ+WVFkMBjMdSSynfZgMJjpRNgWxSUlNDU24vcHKCjIp6e3F1EUM/zCtEogEMC2LSzLyljmJZMobjfCYMfG4/XiMBiC4PGCIKBrGhUVFfT29eFyufB6PXR3d1NdPYLOzg5kl8zImhoaGxsJh0NIkkRnZycFBQVcdP4FORFm1lrqq2JgYADTNHMx7uFweLcH56+Lwz2EIQxhz6GpqQnDMHKCyWzXeFfIFthZrrdt24iiiCzL5Ofn7/bO2u6ODdki1R4MdMvSVrKizmx3XZIkysvLdykYTyaTJBIJNE0jkUiQl5eX61RDJuwna9daWlpKf39/LqirsrKS5ubmnAWhLMtUVlbmrr+hoQHHcXKBXpaVEfhXV1fnnKNaWlqIx+MEAoFcJz1b2GfFkS6X62POT47jUFiYcS7ZsmULfr8fQRByxbeiKEOCxiHsVdh7OdwOiA44lo00aOPkcrtJpFI4ooCJjBGHQMqLpIm8/vzbeAIBmnqj2I7AS++9Q/6mfAoLSykqLSHlSPgVL4m+NLf++h7CniA+QSSRipOyVDTbwNRNjJRGoVZIwAwSToZxeTJcctMR8aoeaoThaFYZUgKcHhPdMRAEECUJYXAFX1hcTH5+IbZtU1RcQjQ6gM/nxxkMMSgoLqSrqwuP4qW2djStLa34/AFckkwqlaSkdDJtbW34/X4mTJhAdCDbcZCprR2VCQlQXODk4w8EyMszSSVTyLLC8KrhmKZJKpXAdmxCwWDOwSQvLw+/P0g6reJRFNyKK5O6FQph2zY+n4+SkpKMa4ltI3sy8b36IPfO7VYGuw9BBqID1NTU0t7WhsvlIi8vb3Dr0IviUejp7mbUmNG0tLTgkl1Mnz6dNavXoGoqI0fW0N/fh+xyEc7Lo6OjnalTp9Ld1Y1pWgwbNgx7kMMXCoVpbW1hxIgRbNmyBSDnRdvb2/u12PGFw2Ha29u/FqHOEIYwhP9ZUFWVdDqdS3XcnSCTLD1i50AaXdf3iDXpzrzynSfrbMGd5XDv6rpVVaW3t5d0Op0TAobD4VxabhZ+vx9N06isrMTv92OaJslkMrfwyBbdWYemrFsVZHYCFUWhv7+faDRKQUFBjmbX2NiIpmkIgkBRURH9/f0UFhYSiUTo7+9H1/XcvcwuKHb2FVfVTNPG5/OhqirBYDB37Ed5E0MYwt6LvYJSYlkWqVSKWDyGOmhb5/V6ch0A0e2ipKKMferHcdDcOcyYNp3xo8dw5Ow5HDV7DvX14ygsLkJySTimjWwLeByZ6uIySgNBPKKA7Zj4fV5Cio+SYISq4lIqy8qoqh5OMBJEt1Q6ezvoG+jBxsR2TAxTRRBtBMlGMWzyUgKhuEMwahEcMIkkIBgIEvAH0HWDMaPHkEqmSafSVA6rIpnMxMZ6FIVkMsGoUbUkU0k8igdByAxupaUlOQFJXjgv51GqaRr19fVomkYwEKCiogJVVRk7Zgy27aCqKhMnTiSRSFBRUUl+fj6y200oHKaqqgrbtpk4cSKGoaPrOpMmTcqp0yORTPDMzJkzMxHrikJpSSmCINDe3s7EiROJx+OUl1fg8/twbIfa2lpsG1wuN+FwBEmSyc8vQHAEBEFi5IgaXLILt1uhtLQ0ZxEYDofw+/0ZmgwQDAYJh8MoHoWCwQ6S5HJRWVmJaWTCdoqKihlRPSI3+TmOkxMSfVUIgvCxbtAQhjCE/z3YuUudLaI/D9nCN8vjzgqqPR7PJ0Jnvh5ki9JPXoM1KJ7MFt6f9OHu6emhsbExEwzncuXSLi3LyuwGd3bmji0oKMgV29ljduZYZ8WE2fuzc8Hu9/tzuQPV1dWUlpbS2trK2rVrcxQQRVHQNA23251z/tA0LfeTdYLKdrazC5cs1ScYDObCxXZ2kRnaORzC3o69glKyaNGljBkzBgeQ3TJenw/NNFi2bBnTp09H9npIJJKZ9EOfDwky3GRAFCAhJkinTYw0pKIq0f4eInkewpEAoktGNUwMxwLLQTJtREfAERwSuormWNguSKXjmPEU+kCSns5eBLebcFkhokfC0NMImoVgOgiAJIi4BBHBgZ6eTgzDxKO4M1QSwyQQ8BOLxVEUBcHloKoaPp8fXdPRdAPbdhCFwQmBTAJjPB7Ho3jRtMzg53LJ2HaGW2g7GcqIIAhIogsQME0LUcz4ZTvYKG4Zy7axLBvTyHDoHEdAUTw4toMg2oO/y/zts1y7QCBAOp1Gcsuo6TSRSD5pNY1lWiiKGwdwSRI4ApbtoCgeTNNAklwIArmiOBD04wgM2j9ZBAMZzwor+29BwLYsfH7fILXESyKRQNcNyspK6e3tzaWcqWmVgegAV112RW7bc2BggPHjPz/JcE9jiFIyhCH8z0YikaCrqwuv15tLNfw8ZJ/pbPfV7XbT0dHBiBEjdhGt/sXvszs+3Fk6h2VZKIqSWyR4vd6PJeBWVVXR2dlJIpFAVVVCoRCyLBOPx/EPCvIFQchlChQUFOzS0zobPON2u3Pd6qamJnRdz4nIR48e/amuuuM4NDQ0oCgKup5xldI07WPXm/XShsyioKenB6/Xm1tEGIaRo+Woqkp5eTk+n4+WlhYSiQSBQCDHGTcMg5qamt2+50MYwn8Tey2lRBRF3Iobj8eLL+Anrap4JPEjxbQg8e7y5Wxt2oE74EXyyLh9Ei63iIOFKadRXGEivmLyPUU0tLXiatdJpvpwe2Qct4TpONhpg5riSkTDZtv27UgBD4XVZUSNBF09HQRFhWJfPpIs0NnTwbodG0gYCRRFQvcLJEQTLBsBIUODseHwsmkkEkk8ikIwEKSnpwdNN3C73ZlYdC2Rs5yK5OVjWXFkj5uurm6qq6vpH+ihqamRcePqSKXSGIOr/Szve2BgAMkloChuioqK6e7uQVM13G4PopjhHqbTKXrjMaZOm8bmTR9i2zYVFRU0NjZj2w6ewY5EdXU1jY2NGfpLURGpVIpkMpmJXk+nqaur47nnnmXM2LGUlZXR3NSENFgcexQvmq6STPZSXFyMyyWTTqfQBoWu5ZXltLa1kE6rHH/88bz88stoqsqs/WfR3tZOPJEgLxymp6eHYDDj771mzRqmTJlKLBqjtbWV0tJSent6KSgsyIlqstZW4XCYzs5OSkpK/svf1iEMYQj/k+HxeEgkEpl5ZdDy77OQ5SBLkoQsy6RSKQKBwB4RTEKmQZEtMLPCwmxHOHud4XCYVCpFW1tbrltfUlJCZ2cnbrd7UJ/Tl+sOZz2vW1tbqaio+FTRnXUOMU0TTdPo6+vLcaqj0ejHnFwMwyAWi+XCYrK/yzo5ybKco4NkO9ZZi9VIJMLAwACO4+QsAncOFgNy7xkOhzN+5IMCy6zn+RCGsDdjr6CUiKKINFg82oPuFYZhkFbTCKKApBq4DJum5kaWrFrK2xuW8Nrmt3lx08u82fIWK9reY1Xz+2zqWE+UBLrs0NDZypqGjXzYtZ3GaAs9ei/tiQ7aox1sadxCU/sOmlq30dK6lWiqh4QZI2Wn0B0dR7QxbIO0lkI1Umh2Cl1MYIVUrDwdO0/DzNNQA0mGDS9lwoSxIBgcethcRAmCAT9Tp01F0zQmTpxIUVEhsiwz+6DZpNIpSkpKmDJlCoZhMmvWLAoLi9A0jbFjx+YoH263m8MPPxxBEBg2bFgmAj2d5oD99ycUCuE4DgsWLEAURerq66ifOIF4MkHt6FFMmDQRG4ej5x9DOJKH4JI48ZSTiScTTJg8ibHjxmHYFsedeAKi7KKkrJS5c+eQTqcpKy/nmKOPJpVKUV9fn6GwWBZz5x6EJEFhYYSammpcLoGKilIKi/JBsJk4cTwul4vhw6soGhTHBEMhvB4vwVCQsrIyXK4Mj7yuri5zrrIy8iMRXLLMPvuMI+APoSheRo8ai5rWc/HMWQeBnVX1QxjCEIbwSaiqmiuiswXt5yHrSCLLMul0Gm1Q5L0n6CTwkb93tjuWvb7srp9hGPT29pKfn59bCGQFkF6vF4/HQ39/f47vne3gy7Kc88D+JJLJZM4mT9M0UqlUjj7o9XoZP358jrLS1taWE3UGAgGKioqIRCK4XK5MHPug3aI9qFESBIHm5uYcVzsUCmENzuHZz5W9z9lMCcjQSkpLS3P3I3tMd3f3HrnvQxjCfwJ7BaXkoouuYMKECSBAIBjEME2S6RQvv/oKcw6aQ6kvxOK33+DFJW/SbUYRIxJKgYQnBJJio7gNXHqIkmA1dcNnsH75ZjramugaaCZcFMDld4EoYCZ0qvPL6W/pprmxkbzCMP6ID1W26InHKPTlU1syAith0tTSRlNnM0kzhqA4kC8h5EkITkbkKQyuZeb6puHYg84khoUoSChKJpbdrXhQjRSiICBJLjRVx3bA6/Whqlpmte+YGINcOrfsRlWz3RgBxyFHKdG1NF6fD103cEkyLpeMqmp4vV5kt4uUmjH7l13uzDEumWg0RigUHkz3MskvKMjYT+k6spzhiYuSiHtwwMt4cuuIkogoiHi9HkzLgkExkSzL2I6DOJiGJghCxpnEthFdEn5/ICc88ng9GaqNRxm0ohpA1zQKCgsyri6RCPFYHFHKdG862jvw+4NYtk0sGsXB4UeXXkp7e3vOjiqbFllbW7tbYqivG1+NUmISX/sE/3Qfxklj8lFYw7MLfsWSG37Lzyfk8XV9GifdynajmJGhL2GLFX+dJ+4yKL/wYGZ+mRRMs5ttjQqVNSE+3z24nQ1/fpyVs87imyODX+Gzx2l5Zi3RI2ZSt8uY9z0Bg1hLDHdlAV8tkHoIewJtbW25HcXsmPF5RXfWOi+bPOv1enP86H8HuzM2GIaRcxD5qKPrYG5bzBOdo5h/QDUh0WCgLUp49GiG54fo6+sjlUrlIuYjkQimaWKaaRIDOt5IAL+ioHW+xSMviBwwv579x43O0Qebm5tRVRWfz5fTzwA5l6ZoNEpLSws+nw9h0LCguLg4pyNKpVI5u1Tbtmlra8sV9rIs4/F4comR2RCcpqYmjHQ/3XGJYeX5aKqau8+KopCXl0cgECAWi9HR0ZGZVwYpKv39/dTU1HzluPchDGFPY1e19F7R4c5y2hwyA4Ht2IiShOzKPIg2AjZgWSYCJrKoU+B3qMwXKPIkCXvi+OQYjtGDYMZxYWLZOrqpojoq+AWEEIgFElF3mh4hhhUAf76HwkI/lpkkpcUxsbFwMG0HQZCQFAVBkRFkEVG1EXsM5ISNYohIaRu7X6eqqoqKigoC/gBHHXUUkiRRUFjAmLFjkV0uZsyYgdvtRhQlDjn0UCRJoqysjNKSEkpLSpk2fRqO41BQUMA+++xDUXERRcVF+Hw+jjrqKFwuF8OGDaN+/HgqyivYd999CYfDhEIhDjvsMAoKCiguKaGivIKqqiryC/Kpqa2lrKyMuXPn4vF4yMuLcODs2Xg9HoZXVVFRWYniUTj44Lm4ZTfhcJjaUaPIy8vDskymTp1KIBigtLQspxw/+JBDSCaTyLJMTW0tfn+A8ooKBDIdlAP2P4B4IoFLlpk9ezaqqhKLRamqGj5IDbLwB/zs2LGDSZMmkU6l6ejsJD+/gIGBgVykcUtzMzU1NSSTyRynMht7nOUS9vX1/Te/rl8SLvzelTw96SROfrsXel/lpX/JRL8wCt1E7V3Phx/8lWcfvIxrT72RWzZ8uouVgYOx8SpOKfoht7TvJDJ1utj20mZazC9YKAQmMHP/J7n8ohdY97mNwU28cMFopt76Ntt2fsv+J3jwW8UU37EK7XM/koGtPci537yOH/98AUdc/+bH32e3EKftxdM5/JxH+WezDqjEWjeyfv02tsX24Na0/hx/mngK317Wz9fZtnDSLWzb1bWbXbSsfJanV3cQ++QJnRi9G9vo/uTf1YnRu20969vin/g7OJjx9ax6+lXe6Ex/rdf/PwXZSTBrr/dFi+OsXV622NyT8d+O4+ScUz66LgFZaOD5Cx/nrX4DNbme1y87hkPvf5+17XGSWqYxY1kZR6dsgeuRe3j7+qNZ+GxLJqTGbmLpzx/hkXdX8sxzy9lmODn7wEAgQDTaS3zVU/x5RxJV04j3PM7Vk7/Bza83EgwGc/HrlZWVuN1uWltb6e7upqenh+7ubnpbP+S9N19g9ZKXeepPt/Or+15kdZ9JKpXKXVMWXq8XseUxrpx+Gb9bn8ztIGTF+t3d3XR2dtLa2orH48nRebKBOJaVIt78Om8/fivXP7KcLcbX+U1ViTX0fPpZ+oxj401v8PTT69mWHhwQzW5aN/Z+7PVOuoWNrbHPH/OG8H8Ce0XBDR/5oYqSlBED7uSNmrJNDAFMxwRLw5VO4k0OUKwnKIj1E3GShMU0ihbDradxWyaSaYMDmqaimilUSSUppekyB/BVFVB/wCTmzDuQI4+YS93YWoL5YVxeD4LoQpRkDNPGMC1cbjfeoJ+8wiJKK6upqKylomIURcVV+PMK2bF9Bzsad6DrOu+88w6artHU1ETDtgY0XWP58uX09fWTTqdYs2YNuq7T0NBAb28v8XiMtWvXkkqlME2DzR9+SDwWJx6L4zgOa9aswbZturq66OrKiGfa29uJx+Mkk0kaGhpIJpPEolFS6RSWmVGsRweiqGqa9vZ2NE1D1zU62jtQVZWenp6chVNbWxuiKJJMJhnoH8ilYjY1NiLLMq2tLSQTmQFz1apVmWCEdJrm5mYkSaS1pQV9MA1t1epVhEIh+vv7eXfJEiQx83fctGkToijS1dVNa2sbxcXFrFq1Csu2cLvdbN2yBcWtEE/EGRgYIBgMsn37dnp7e4GM4l5V1ZxiPxgM7oUFt4M50EZv9bXc8c9pjEq3sfLRB3lsUT2lt/yOW1f1fPZgrS/m8e+fwXHXv8F9zbV4TjqUw4cFPuNgAfeE+ZzoqaCmKLslbpJadglnzpvJxDtXk9zl6zQ6njme/S5/hbWTbuPv837DGfeuoeszJ6UxHHrdjSxs62ZrX5Lo4kUc/Zd1dBedx5V/+B5jl/2NSx5cw6c3hzW6XjyCqvx9OfO8IOPqXHTvdyt/nL+C3/ziTdbv9sRqkFh2PnPPnMyFK2/h6pEKmM9w70HjqK+vpTY8nPAx1/DjNQO7VVT+WxOmewEXvD2B9PxfcXf31+GcY5JYcynnzxxBbX0ttRULOPKlZnQcjNa7uHF+NcOmzGfBpBmM+snLrNv5HmlPc/ekq/l1207XEX+WB88eSXVtPfUVdVT9OPuaOG0vnsTxE8czecGhzKk9gaNeakb91PXs3ciKrLMF9xdRSjLNEJF0Op0LatmTyHKYs9xtURQRAhGkyXVMKnBjbn6F23vO5baD1/HkyTWc8nwn8UEKiK7rDHQu5qnrruMXPziHK56K8uHPj6HwoBM45czb2fKNagI9nWzasIxVrZnkXLfbjaqq5Od76V11C2eefz+vN7eSMGoYO66DlOzCjA/Q1p/Odaij0Sj9/f3Y9g4WX3kg4446g1MuOo8fHXUt922TKB5bTeX6GzjhsmfYaJHjmbe1tQGZnVKrso4Z+XkE8lxEIkHKlCBKOG+wO2+STqfJz8+kDWvpVTx84pGcfuN13HByHYHAftSc+wDXvKnR9bXuZJok3lvIgpqf8Ov2L3h2jVW8em0dk4fPYcGCekYdfSN3tarYG6/i1HHncOm6bFBPB8vvmM64U//K69bXeKlD2CuxVxTcNjaqrpJMJbFsE1EE27bAtrFtC0cwkUQBRXChSDLhwgCzjziQCTMnMWXWFA4+eB5lY/fBDnpxDBN3ysLjuPB7fSheGcGlI7hUdFeCPnroErvocDrxVngYsU85k2fVUTKqBN1jkXJ0VF1FlMAfUpBDLiyfgyBLuFQXwbQPV5+InXRw+X24FTeKW8mt0AOBAMFgEMMwkF0yoiDg8XoIBAJ0dnYQCgYRRTHHo4vH4xlVNyLxeBzHsQd/MtujLpcL1yC3zTANGhsbc93gbIBAMpWiv7+fRDKBrun09HSjahoffvhhbqBu2N6AaVm54AVRFFm7bh2WlVGcNzVnwiIEBNo7OohFo8QTCRKJOKZp0dLSQjKVCd0ZGBjAMAziicz5FI+HaDSGz+fF5ZJQ02k8g3xDx7EZGBhAFAT8fh8uyUUqmcLr8eb4+pLLhaqqOU7jwMBAzuUk6ynr9XpzXZR4PE5ra+t/8yv7b0Kn9/UTGSNPYtJtW2m9eX9mvHc+vz/BQOm6gZ/d8grLP2uwdh/OGX9eyfqn7+Gpn5zPVUeVEV6xnBWf08VN145gnAustT/mjOPncPizx3JJczM9l0xi1+VEjM4P32d5v4syv4+K037LbRu+wSH3rt5F0d3LpkcX8rOf/pj777yRC372Ml0FBu89tZbWlxYw4drN5D/WhjRjJIU7v8x+nYcPu52n6x9j1fNz6Zs/j4W+B3hyXSstrzzNOv+/MVTpz3HfkSsZ+beLuaDio61np99NzR+W0bDmNh6c/BduOfYyrt72RWW0RsczCxh30L08vVv1s4B7n6u44fI/86MHVvGVM1D1Z7nvpPtZfsUGEnYP2//QyytH/56X+jfzxEU/5reTH2Fxb5rUhuOYe/OVXP5aN7G3TmbEN3/LQw39yIKE07WUv146nkP+spqV9y7iXM/dLE4ZpBq+zXG/+CEXvdaLvfVGLvlGHP0X62nW+9n0q0ZePPNu/hT9/IJ0b0O2u521sNudDne28/xlY9R3F9mYdfio8M42EqR0H7F0C2/f38Cxd5zKEePP4+qHrmffD17ghXX9eAbt+pTQvpxy3ZWceNUTrF58O1eeczoLL7mWG7//Xb55wmwOOfwYTj1tPjOkXvx+P7W1tYwcOZKIfytP3l7I5ZfNIX/t6zz3t8d4q62B3x19NPO+dxN/XDlAEnI89kyQjZ+KUWVMPu9G/nDTeczx7MOs+UcwY8ZBTJ9cRMEB+1Dndeds/RId63nt2WdZuvRNlr/5Gi36En5z0lzmzBlBceVEak//DRs1MXefY7EYvb29+AL5jCm3KTrpBm5ekib66r5UTziaK2/8CXeeOoVRXxNdzIk/xh8uf4zXv/DIOA1/P5tjXjmdhet70VP/4r6CG7nkN+8SH306x455nueXNmECWCv54LkulPnTmPMlWHhD+N+FvaLgNiwDy7FAcDB0HcPQ0dQ0guBgGQaOpWEbOoZuYggOA47KM++/w2NvvcOzS9fy9L9WsK4jTlwJ4kgKoiOgWQYaJnhELI9A1E6TlnQ0KYUuJfEUuVnXupE/v/Qk/3zjeboH2pEkB9s0MU0Lw9IxJB3L72CFJIaNrOS4Q4/gktPP4/IzL2DOlH0J+mTGjx9PeXk5kiRx7jnnkk6nKSos4pBDDsEluzj44INzUeLf/e75GKbJmNGjmTJ1Kh6Pl1NPPY1AwI9Llpl/zHzKysopKyvH5ZJYtGjRYMhAMQuOXUAkEuGUk0/Obc0tWrSIRCLB+Pp6Jk6ciM/no6amhhn77ovX42XhwoV4FA+hUJgzzjgDv8/PtGnTqK+rxzRNLr74YgRRpLi4mCPmzSMQDFJQUMApJ59MQUEhBxxwAMOqqlAUhQsvvBCPojCsahiHHnooPr+fww8/nLKyUlKpFGecfjrRaJTCwkIWLVqEZZmIosDsA2fT19fH6DGjKSosorunm/nHHkssHsfj8TB9+nQMw2Dy5CkUFhbiOA5HHHEEsttNV1cXzc3NOUX/wMAAsiwzfPjwf8uy678PhZK5Z7DQ/y1+fXUtYwpdmA9ezXdeStL26vEs/OmxzNrVYG1207n1dd575jYe+OXJXHzycKb5D2HmTb/iu/evpONjB2foApvee4PG7bdxWvlPeUUSWbn5+9xzw6mcVOn/DK60g77hZ1z8q3O4+5ZjmSAC7MMh11zBsb8+mEN+t/QTW7physJJnh1zD3feqSEN82KaEYbVBIm+38eUY8YhjJ3DYWzm1ebkRx1mcX++cVsPTz5xL787/SXKP7iWy7Zdw91nFdGw5ChOmjeBcbs1sTpoqx7hmrof8qODCj72mZykgJJfyojxp/GNyy7jh4kH+OO/tpJdmmRoG420ZLeHnRh9OzbS2ZcGK0ZLW+snaBgOZqxhFzSVIiacdjbHX/svnlK/4na3sA/7/eAFHjypFr+QT2l1GSW2TswuYcr8h/j7VccwN9+Dd9QBTHGvpymqEZr0ff447WHu3PdirtT+xK3Tz+NHzhVceegIymfewCM/OZbpXhfesjFUiiqaYSGWHMs37vo1D52wD5VyHjWT6hjZ2UdX8n9Xwb2zd/XuFNxZd5Dy8vKvJVjr87BzuqTjOAipTbz24E1cfdFNLO5+kzsu+yF//jBN+/P38aOF1SgTn6dx0iTG1RQTHxigu7sbXTcx7E4a//UULy97jvXvPsj95x7MAb97i8V/f4EnnrcEu3UAACAASURBVFlJc1rNuTml02mam7ez9q938acFl3DCMAeX20NBeT5F4gTO/fX3OW24jAebpJO5xv7+fhRFwe/3YxtBKkJJWtcuoSOxgl/OvZy7WnyUDKshT5Hweb25Tr1bbuPps27l5jYPw+oLKBcu4I5ly3nxxZX87cognQkojARyuwler5exY8dSUeHD2TKFyeMrqPS6CI2tYfRvt9D9deoynO0sve0yrrb3ZdYXHuyheMbl3HXvD7lqXD6ydwoTpoYwOweIKXVMPcZLx7vr2eSA0/omr78zi3mzRn2BbmUI/xewVxTcjuMMhg54MUyDzs4uYrHYYGpYioFECs2x0CSTNBopbAQxSGl4H6bVHsHUmjkU+KrwuvLRbYGko5MWNAzJAbeMJipYngiCGCBPClJXVEWZO8COrTtYun4jquPi8CkHMrl4JH5DwmVJ2IgIHi9yIIg3nEd/Ks7aretYt2MT23taGUgnEB1Y/Opi1q1fRzqd5uZbbs4IS9rbeOaZp0mlUjz99NN0dnRg2za/+c0dOI7Dxo2bWLp0KbFYjEf++lc6O7uIx2I8++yzbN++ne3bt6PrOrfffju6rrNly4c8/sQTdHV18Ze//JXOzk5M0+See+7BcRyWLVvGBx98QE9PL2vWruG1xa/R1dXJgw8+SF9/H93dXfzhD38gGh3g9TfeYPWa1Ri6zu2//jWGrtPY1MTzL7xAf18//f19PPzww/T197Hk3SU0bGvAMAx+f9ddSJKL7q4u3nrzTdS0yjvvvEMqnaa8rIzHH3+cyopKTMPk/j/9iZLiEnw+Hxs2bGB41XA6OztJpTMR7S+88DzFxUXkRSKsXbeWcDhMU1Mjuq5TUVnJ8uXLCQWDxGKxnLjIsixGjhxJKBQiLy9vj3It9wjC+7Hv8Hd4JzmLkohC0Q9u4k7fczz4rdO4YMyn46PtrVdycnAO0378V+678ydc9LbKhn98k3P6N9P14qO8/4MZlOaOjtPwQD3Bw27gFzf/mf936AX8tuFa5uVJlGnt7Fh8E3edV0netx5jySfqKyf+N351XIopL/6Ac4tcZDjj7/HWy+M5444DCV0yi/HHXMmF/1jDNsMBXIRnfYtFKxZx5Y8ncY54LfOm/Yp1bRtpUQR6b/o9S9f9ku/d/gyPvLCR7Q6Ag77lj/zpriUwcgGLXvgBs639OTn/53z7/DWM/kkHy/a/mlu/aJsXAJ2+HVsxjpnIzM8b3cL7se8RMtHGTmJYxNdcxqKZI6itr2bYxDM5ZXELZvv9/GDEZCYv2gg7buDS4ZXUz75nsNOdpO3F4zl+Um2GpjJI9chSMITSfZkR2MHWvk9uTTiYrX/mzjPv4P6W3SCpyGPY7/xZ1PEhK564lFt+tozwXWdyWEGE0Wcfy5ygBJjE3/5/3K+fzUmzSsFbSeXYacycOCiMHTWFqdPHUBYKUDLrLE6sNOhadgcP3HAjv15wFdceVATBWXxzYR3FAsB23v3nYhrOOowTy/YK59h/C1mKQzZY5fNgDabcAnskWXJnZPnbWRcV/COYeNjZXPmrHzG3ajIHzr+Kay4oI/iNi/jRNd/jR4ZGR2MXdmkZZWVljB8/Hrfbjcs3gvGzagmn+3nF+QF/fO1NXr3pW5w9Pkh438mMKS2hp6eH1tZWWltbcXpf5f6711JgGrj0D3j09Av4/nMNbGhwQd4IJlY18sr7zXQ55IJtHMcZDMCxESMRHGwGfPO5fsM93LRvOYJjMKwwTDIW+ygQp3Bf9jvZpHygiZf/toR3nSs5o2QSxzz8JltX2Mw/8SBGSg7l5eWUlZVRWVmZsV9UN7B5+zCK/SLgYKYTpJ1WXn/6d3zn6ld3oSeJ0/bGlZx582sfp1h99p0n9vblnPzbM/jLL2ZR+4XHywRGf5OF9eHMgj72T566PkH9MVOpJJ9JcyciPPQuL/dpdCx9ib+XHci88XtTA2gIewp7RcENoGk65qDfp8ej5JTL6XQaI23g2AKOCLgERJdCOu4gJcOkGmW2vNuKRw1S4C1BcFzYkgMeEcEjYZg2ZsIm1diL3TKAqzPOjPIq8jULd1xlRGEFEdFHnikztqyaiBLE1C0MGzTLRtNNtJSOaut0mQNs7tnB+9vW0hTtRPZ7qauvo3p4NR6Ph3nz5uHz+igqKmLcuDoieREmTJhAIBDA7/cze/Zs3O5MuuTIESPw+/2M3WcsJcXFRPIjjBgxgtLSUkpLS1EUhRkzZiDLMuUVFYwaNYr8SD714+vJz8/H4/FQV1eHy+WiorKSoqIi8vLCVFRUUDW8iuLiEmpqaohEIuTl5TFl8mR8Pj+jR40iPxIhFA4zadIkXC6Z0pJSRowYQX5BPrIsU19fj8/rpay8jGHDhuH1eZkwYSKmaeDxeCgrKyMUChKJRLAtm0QySU1tDT29vZkQhVGZSPquzi7cioJpZQKBJEmiubmFivIK4vE4LS3N5Ofn09vbM2gDqfLh5s34fD4GBgYyoT6OQ2VlJVVVVQSDQfx+/xdOov8zMY79f26xbFkPkuJGKayguOp87r1+HnW7aOSItbfwaHo9zQ8fRd0HMznqpKm0j57CQeFdPdJBRp69nvSSqzmu3ISGN7n72c3EHajYdjdXrJ1BfV0YaeqowQ42gIPRehsX7r+a7h/UU/3YIq753nTmFU9gwjVP8NiDhzL5weO4ZN0bPHzuNOaYKTTVJPbWd1l45rn88uEuVh83mdiw3/Di43MpnbEf9VV1TBylUHbVd5iTLmHu0RMYKQAIyKXVSMoNPDjzGW6Y9ho7pq7koYZzOOcbNXgn/ZJ7V17FuaVff/Fndg6g9T3JTya/yPsXraA51c62WztZf9R1XJO+gAcdlba/T4GaX/Ko4eBsvYyTXACbWfLgi7xz8QpSTpy2xyJ0/OYN3stO/lIJxSXpXZxRp/ud27no4ev50T8/6q5/IRKref+V53j61TH4Ix52XoI58ce4+4o30O/5HldWSMReO4cJV0Hisp9zmftkTr9hf+ofOJTD//xhZpubbna89zTPPLEDV8iPx73zF8wgsewnXHfrPBZdcQT1/3mznz2KL+JsfxLSoFYoyyfek0in0zmL0ww85JUW4dGiCOs3E68cTp4IUs8SfnfNo6xwhlMzYQwjS/05YaPjOCiKQF/rCp59qZ7v/Wg84Zdf5J3kCj647322fbCSLT39OWtdt7ubN3/7KhU/PIuKN3fQ6Z3O7PPHMnK/SdQ4y1n3/B/53cMejjxmPPUi+Hw+QqHQYLS9DIKE05fEGx6Gz/UOj114HAc9tp2SghRrW3qRBukhjuOQSDiMrCumTaji1IVnMy3/Kh5c+zJ/mzPAmpXHcvbxkygvLycYDH7M59ze8jp3HDyR/UJbefY7IQLzn2G51Ubj0h2Yh+xD7aeGvC0s+eMdPHz1b7hj066ewU+g+w/ccEwDo/7+A06s/nRz43PhNPHBnTdw8+F38ZsFVQi4yJ98MGfYy3h9YxMbl21FPOkgjt7luDyE/2vYK9oXlmURi0aJxaIZD2rZjWFkom11XcftSLgsB9GwECUHO22S1tKguFi74kNkKcmw6mEkUwlsWcZWNRxTx9JSJKwEpmjg8Up4ZZGxI8sZPW4kU6fWM6Gtm0hBGeFAPlvWbmXtki1oqoQ0aH9n6yYkdTAderUU/VKMpq5esERUVBxJZ2phDYZhIcsKiXiKtKqRTKQxdBvLtIjHkhiGjSBAMqlimQ6WleGoy7IbxxZRNQO3auCN+FEHfVQNU0fxyNi2CbaDCwnNNJAlN6Zpo6o6itePYYNlOwQDQZKpJG63giS6MC2LcDhMV2c3tmMTCAbp7evL+L36fPT39VFcXMymzZuRXBIeJbPICYXDCGImlt3tdmMOBhMEQyE8/oz/qi2AIwiDxbSFS5ZxEFDcbmyfN2MlCCiKQiIRJxzOy4kzccgU4KaJLGd8Xd1uN15vhg8fKSwASQRJJBTKxMLvaW7lnoQTX8Fb/9pGJ1CiHMXCSANGh0ps9XM89toj/PmM73ASANOZ9dw/efuosp1oEnEaHr2RWy+6nc0Hv8LcrdWf6M44GJqJS5ERcNBX/opzOucxKV7Ofvffyt/i3bz8iyu46qFnWTpX4oBvjNiJw22iJudx9Yo6KtIrWb4hzfNnP0vvHzeyeYGb5Tf9lWcqZnLcuNG4xu10yv3P44THCpl5yQOcd9+LrDv7ZOwPuilrfZQznzHZd8M4as/bj5NOrmJmyWAH1onR1zWcud8FLVrDrBsXUSJezxOPm/i33c0Dl/2M7tU76GzfwXtT/8Q/7j+Nue7PqgQl/JEI9nNNbHGmfWHB6B5VTmjL/+M5e3/OOHIfKr0uOPLbnOpcz/ObBqAm7zNeOZz6Q0cjXPA9pm2cw8xJC7n94dkclJ1XzW1s37aryVuh7LhHWfV4ksCx49htc8bIyXz37uM49eTjOeDg2/nlgXfy03IX2Kt59aeXc92Y+1l8Vh0ewDPnITa+WkRN3lP8QtiC/8Dz+OmxR7PQrBwc8Ecw46LFPHHmfVw7/ttc+M+ZrD8pI4izW3/PDee8QM9Dy7htnz0rENxbkOVT/yfOk3NOcVRijStZ8txDPPxOK60HXMx1oxXkRoeBkjpO3LeQlU88yTNPjefwg6dRV+xi48aNhMMh3NH3+ed1SxEee5aL6xWik/dBvuscfnzUmdwyXuWDJx5lsTyKeWfMYVzTswycfzOnmX/jtaIw+dpm3tiWT6TQIagfz4IbbuJbIY1U8iM5dV5eXmaspom2DXEaex/ikfwedlDNjJMWcsERVUjPp7Bld87dRFVVJMlFwbAKNvzyTq75+zJeaGrjd+P/RlVNEN/tT3JPaFdFaZqWNctIzD6fOmE0U/4YR237KXPnjOL35y7nh4dcy1Uv3sbtE8I7vWYyC257kccv34ejx39RAb2Rxbdcz20zvs/PPdtYtnwDvVikl69lRXACUz7X/jRJ20uLuPiGeVyx7jQOzo5JZUdy5Ik3c9bLTzLtCZ2xvxjH8N37Cgzhfzn2ioLbtm0M0yAYyKRXWZaFY2dcRizTAttEME1Ew8I2NQiB2y8TTw6QMGP4FB05KBLt7AcxgIKAZDiIZsZDWvRJ2IpJWrZoF1X+vvQ13I6IaICdMBFsEVn0o2og2j5US0cAFEkCyYXLJaC7LQxJRLBdCJaIILqwJZN4LIYxWDw2NjUSCgYH481tLNtiIJrhHfv9PhoaGkAQ0DSNRCKB3++nv78X27IxTZPGxkZEITMoKYrC6lWrcbvdxGIx+nt78fkDdPX04HLJCKLI8uXLCQSD9Pf3A1YupteyMpy6rs5uPB4vpmayZvUaFCWTumboOg7wzjvvEAqF6O3pyYk9ZZeL1tZW3LI7w7NWFFyyzPIVyykoKCCZStLd3c3IkSPp7ukmHA7j9/vZunUrY8aMJhaLsWHDempqajAtC8uyCfj99Pb2kE6rDB8+nO3bdzC8qgq/P01fXx8jR46kpbmFQDhMYUEhOxobKS4u/o90nfY8+ula9w8e2z6GyplVDBtRx9jYExRNPpeLT7yd3xd4P5NbbW67iUt/fAq/XTeTUPyVXRzTwMuXrmH4XcdRp7/EfYvKue92m6u+M4HDX7iQnksP4YBTjuPs2S8zf79ZHHTpzgWWTHB0PUGA4GQmyHcwr/N6HjiyHIGV7FgqMP3H5Z8eQCyF/BkWqx52c9IrT/DoyAe45IxTuGjN1Xwr1Mv7P/wWz82cwbHlH73S6XmS+6++nYddBzO2vILaqjAzTQV50ngmTv0G5bXDKNLimYMjVdR+ZrEN4CI05WgWHfU0f7rmKH5d+xl+vZ0v8fIjhQx/qBSFPmCn75IWI2Z7UOTPm2z9lB9xL6++1ExH+wq2LD6Dg/9yLS+8sYh5EthbX+dfjGJR8S6GWLmGiSd8zlvvBHvbL7nwrDBHvvIdjlVkQjX11NGf+U+nlXX3nsWxi7/Hva+fyMxs9S6XU1MI6FVMvGwumgx4hzPSfo9nvnkdL172GHdOCSKExlM3RebJwZc58Wf402U/476Tn2HdN2uHfMQhRzvJ0iL2JLKFveM4CN3/4tZvP4/vJ1dz/8kfcOGVBoIg4pYd8FSz35FTKfrJeP4/e+cdJ1V5d/HvvXOn95md7YVdlgWWpUhVQAUbYC/RWMEau9GoiUZ9rVFfuzEaYzQmxhax+8aGCjaCKEpHYBcWtu9O2entlveP2RlBQTRqDMmez2c+wDJz59699z7395zn/M45/fwRBJ77jI1nTqSy0kvru/fw8zsC7DexjfU3TMP34koik4/ngnFW4kvX8PHYaTTU1VFmqMfjcmH1XcAFQHB1Fk2DlGEMR1x8LKl7buTm6st5aZgXsTeXddDZ2Ul5eTmiKOLz+ejtWsLWlXtx2sKr2UtdyB+fXsmUmRMYYtPRBWjpXBqlaYBNdzqdxEaczB8uUZg4rYex+wWZtupnzNimzlY+f5FXSg7jSPfAvacu5o3LPZz8RuN2GuhevYFM4+088fr1XNAaRhvj3GacFJBK9uWYbxI6LK/m05f8aC3XcNVbcFX+54cHYckrPDNlZ45PWaIrf82vjkpTvOAWbh66zd0ijGT8AVWkz7mC/+E0rphSupNtDOK/DbvFOkd+mS0rZ8lmssTjcTLZbE6HJ2dJaElkQUEnSkiCEaPeABYNxZfBM8GBNELHst5PCeqCxLQ4WUVBhy4XdiOpqHbQivRobiv+eJpIQiIc19HaESKtN5Ay6QjJCUSLHkECRc6gEzT0ehHBrEOx6BDNRix6M2ZVxKIKuE0WLGYjo5qaqKqqQpZljj7qaBLJJC6XixEjhmM0GJk+bTomk4lEIsmxP/kJmXSa8vJympqacDqdzJ4zu8AmT5s6DZ/Ph8/nQ9M05p06D0XN+a9OnToVt9vFAfsfgN1ux2g0cMrcU9Dr9TQ0NFBbW4ter6eivIKmUaNwOhzMmTMHnU6H2WTmkEMPwWK1MrxhODVDhqDT6Zg7bx6JeIKS0lIaGxvRDYTbTJk8GW+Rl7FjxlBU5EMn6jjttNNIpVMUeYvYa8+9EEWRffbZF0mSiMaizD3lFPx9fvR6A+eccw79/WEEAWbMmEF/uJ/6+mFUVVWxZUsrJ598UiGYYv/99icYDDFp8iRKS8vY2NzMEYcfTiz2nf0f/i0g2PfnJ9c/yTOPXctd557GJYfvy7gGD0ZPCSN3WmzLpFrv4Yp5Dg5dfCHHDrAwZY8uY1G+4Q8NueMJnnypj7Saovn5DzE+fz2H2oP0NKqIK27m15nfcu/o9bz3xEaq577JHZfez/1rgl+1v4u9zAPzUhy/8DQONwgQeJf3/34wjVU7KMn0Tex17Hh0n81jVn0Pf7/o/5BfvoCTd8heDfwOfKfyy7+tYNUTdzP/9su45cKzOHjqEPSVjRwzexoz6qsZNWpU7lVu33XzkXcu5923lIeufIaFmS80nIJTJbJxOe++/EtuOPc3PLTnhVxzaBX6kQdz6h6Pcs+dz7Fg6bO8et+93L3nSZw+yQ0Y8dUMpWbzWhYt38ja9+7j7qUBkF/h93UncvqaChxTTmLfyZXoPtpKS0wFWvnoqZdYectBHPyVelsmtuKXnDXmIi77BraEos9Hmf9SfnHHy7y28EGeuusxnpnayH7eLJseP4Ijz9Ux8mcTMb35PPPnv82inm3OnmEKs246kcPzFpBiCd6GlfzhN3/gjrffYeFfruKhl/dmfL0bsu/z9Lknctay4zl+L5EPnp3P/JdXDejy/3uRt6P9VwRp5dlgVVXRio/k1vf/yDX7V2KUM2QlEVlJEgut5Y2zp1H9S5XESV5YvZz02rv5/SchnOlFvJuax8MvXck4+3j2vOhxljU30/L0zfzitDns0eZmzIH7cNA++3Ds4aMZqheIRCIkEglc2ha2uKwkkmmcNaMZWuShTH2a8y9+jPf6BRAEYrFYIcnXZDLhCSzlidHDGWrMYjJp2Ny1uN1Oksk0nX4XSiBKRq8veJn39fUhGsqZfchkKrwa+s2rWLKddWaU1vfv5M9r82N7mr637uLmsy7jrPDzvPCHG3j0zjO56Y75aC1XM7dOj2PcjTx2RA26ox5jcUEt1MnqPxzImLP/yuvRXaxOSMdyWfMXzjVax7XM5Wyu7VjAM1NMxFbcxIUnPsuizLb3gYbc8j9cePjvePak4zk0u5Jn58/n2ZW9Az0cDuqnzmA6wEHTmVX5T4SMDeI/ErsFwy1nZeLxOHL2i5hXhNwrFo2RlDxkjSKapEdQJRxeN7oyjR6hB9ErgD5B2KwgZwQiWpJ4Jk0WEcFsBlsK2ZBBMhjQxURGuIcitSu0NW/B7rMjGCUEu4DJDGoyi5BRIZtBzabJWmRkiw7NrcdtsFBr9FGmL8KqN5GyZtmUaOONN94gkUhQXz+M22+/HYfTyZo1a3jvvfcZN24cj/31MURRpKS4lLvuugtfcQmLFy9GVVUaGhr440N/JJVO0Tiykeeeew6rLcdCul1u7r3nXpxOJy0tzSz+4AOGjxjBs88+i9liQa838Oif/kRJSSkLFizA6bQxfvx4liz5CEXRGDFiBE89/TQ6UYfBYOSF51+gpKSYhQsXYrGYcbndPPLww+gkia1btrB2zRomT57Msk+W0dbWRl1dHW8uWIDdZsPucPCHBx+ktLycDRs3smLlSg499BCeevJJ3G43Q2qHcO9v72XsmLFsaW3lyiuvZMqUKfj9Uf762GOMHz+eRYtyZkzl5eXcc8891NXW0dvbyzPzn2HihIksWLCAkrIKTCYTf3r00e00fv91yLzPS3+axKkLptJkHihky4/n8lMP5gzLXUQOGs6Ertd5fZWMMO1ejs0aOeL4G6gnS3D5BuJDx/Psm6fy1D2j0X/yCJ1nv8EjDVs55ZpDOarpYi6aczuP/uVi5vp0yIGXePSI+TQ/8RC/a1rGI3s/iX/c2/zxzN/y8Q4b6tL0vvpHnrrrfhb3b+Tde1/md8X/asmPl+FnPMlLm4/i+J9LPHbbT5llNmGvqsfxxBWcxzBKTvgrr557CLOdOmAeV7ycwXLVJZw7BfwnXMHvnz6bUwZYNmn8Vfz55nn8cmYDo0oOYsa9R3OJdCTnLl1J/69nc9B5CtlpJ3PC6+dzllMj8v5lHDr/Yh5cOmYHNosKsc0f8NaqKMZVfm4d4/r6Qdgxj18vyGC76lwuvNpG9Oxr+cszc9nHuIFXl2UxNsqkfvdzrgOglKr/fYwZh1bsZGNDmHrVa7x151lcd8avuLryfE5Z9Cvu28MGXZ/w8afDadS/y6Kfv8siwKwdyUmTrueS/6DGyXxi5DfFN/Hq/j7g9/sLRZ+qqoXoedn/FndechsfVP4vkhRkw8Ios/6waofMazh8MEftFUZMbKG7VY/d4UBRUkhyhkgoRA8CZouZaDRCcXExqVSK/v5+QiE/ro29tFcYyKx7hqvuXI7+zFt5438qUBddxHmjbuTan8zhsDF1jNr7YI6bJGExd7Ps8bfY/7p32KvaDbKBeEUJtvY1vPHoBdz66FKik09iayAAkoTNZsPpdFJUlDcD3Y8jHryDWcOP4fV5I6kKtlBjW8FrfzAQ/2sfyjQHavt9/OzRC3jlsZl4Prqf13RjqB9zMPsfcw1HnWGgeHgpvh0Gg/XR+vESVi2q5d3e45j9bVJxBSfeEVmcAoBMdOs7/HWdjslxFQz57WTwr1vL0qI9qFt8N3cvzv1Um3UHo+6aw0hAHHkoP2l6jHWHT2HabkFrDuJfgd0i2n3uaWdjtVpxOp2FwU9RFNra2lAUhcqx1WxpaWfp4k+IC1GG7z8M2zAjq7esBJ2Kpk/SLxgplsqZmBlO35JOopJG2J4gYggQt8SQ4zGcSQtjLA0kN4YJ94bw1pUge0VCUj/xZBR7xkG5oZJsWKEj1EvAGidZrKE4BKxpsPvBFBXRayIxU5KER+YAw1RSqTSqqmHQG1FUFU0FScpZP2WUdM6TW28gnUqDkItfT6fTA530aZLJJFZbzmc1P+EQhVz6mYaG2WgilUxiNBoxmMyk0xkymSyJVBq9wYAkCchyeiA+V4/VYhvQRufi1XOsSs6mTxpoRpUHfGdz+6bHYDQWfMR1oohOklAVBYPRiMloJBKL4nC6BjrXNaqqqvH7+3C53JhMRmKxOFVVlYRCITRVo7yigr6+PjRNpaqqis2bWzEY9Ph8xXR3d1FRUUlnZwcgUFVVRUtLM96i4lzgTmcnRqORW6+//se7KHeA7xbtnkearqdnc6JnPgsPKtr127dDimjLeyz8NEyaEnx7DGfUkOLtHkpa35847619uO+E+m8w2w6y4ZUX2TzlJGYVG4EkWx/fk4anTuCuhy7hvIodFNKZN3nwGg9H3zpxwPFiW/Tx0cm/ZePDN3Cy6esZQ/mjU5iy5TcsO65614e9M2RX8e7VG9FuPIoZXytD+R6ReZE7xn6C+a2rOb9iJ6IMLYJ/fQbD8CIc/2FNif/u6OvrGwgSkwtSka+DIAioqorP5/tOVqO7Ghs6OjoKkfOqqmIwGArBblrXezy1aRinzDCy5qKLePfuhdxSrS9sL5vN0tXVhSzn+pokSaZ9dQeWEUMwZ5MIfYu4/5JreX7K3bzw8yl4dDqKi4sLGQbt7e1oW17g2rYDuW+6F79RwqRmiMfjVFQUoWz9P/72FlhHDGfs0DIsgoLof5f303M4bloxcjJJe3sbVqsdnU4kne6j+dHreXzUVfxmeiketxuj0ZhzXtkOKaItC/lwyTKWbHTiHD+OxlFjmDHUiZEskXWdpEfU4Psn7hEt2c76eBHDi0w7WSUcxCB+WOyolt4tCu7jT7kAt9NBJhXH43JgsxpRFYUNzRtQVZUh9Y1sam3h42X/IJzw0zhpJPYKBxs6m8EiUuErp8JTSaAriFWwsXX9FpLxJL6yIrxlHjZ0NdMe7EZSJRrKh9G7uYv+Pj81QypoHNuA/2d1WgAAIABJREFUwWagefMmUrEMOowE+sKEwlEEq4TBa0Ixq2RTMVLt/QjdCpa0CcEEhioT8w46kdbWVtLpDDNn7MfjTzzBmNFj8Xg8NG9soXHMCBYv/gc6nY7DDj2cZ56ZT3X1EISBJbzGxhEsWLCA0tJSampq2LhxI5CLuD/s8MN4/rnnKfH5cLvdBIJBqqpqWPf550QiUQ6cNZt333uX8vJSMukEyVQKh8OJ0Wgm4A/Q2DiKJUs+QhRFJk+ewPLlK6iorCAWjeEP+Jkzew7PPvssdXW1uN0ewpEwmXSG+vp6unu6KS8rp7e3h2QyyZxDDuHNBQswGg1UVVYRjUWpqqpixYoV6HQShx12KB988AGaBscddxwvvfQi4f4w06ZPo7W1Fb1ejyjq6Onp5ojDj2ThondIJpM0NTXR0rKJyooK+qNR1q5dx9FHHcW7773HTddc8yNfmdvj+ym4QW3/kMXOPZn+bZiZ/zREP2ZR/1hmVP2wVmyD+O9CZ2cn2WyWVCqFxWIhlUrtoBD8ApIkkc1mKS0txWL5lg4W22BXY0Nzc3NBurJtME/eNzybzVJSUoJN1EiY7egyaRKJBPF4/CvHYDab8Xq9aJo2kDocId7eQdBVTLlZXziu4uJijEYjXV1dJJNJDAYDdrsdp9NJOp0mFAoRj8epqqoinU7T09NTsARUFKXwp16vL+xrKpUqeHRbLJb/7pXIQfxXYzcuuE/DbrMhy1msFhNejxtVU2lubiGdzlA3tJHOrk7e/+AdgrEA3nIXJo8Zf9yPotdwOZzY9HbUtMbQsqF0buoiGAhithmxuExElTjBRBhRESlzlhJo99Pv91Na4aNueA2SWcIfDKLJIpJmIOTvxx/oR7Tq8dX4UM0qgb5e0r1xzHEDJsVAWsuSMKXYc0gTwWCQqspq/P4AeoOBTDpLJpOluLiY3kA3oqjD4XDS1+fHarGSycgkEgnKy8vp6ekiK2dxu9zE4jHyos+8/V06nQZNQ1NV7HY7kWgcQRRJptKYLdZcIEw4iNlsxOlw0B8OI8sqbreb/lAYg8GIpoFOp2E0mUgkEmiqislkQtLrURQFVVGQJImiIh/t7W3Y7HYqysvp6+vDZDZjNpkQJR02m51wJIwoilRXVdPn78NgMOB2u4nH41RXVdPb14ten2Oy/X19KIpCzZAaOju70OslfEW+nLOJJA00eMoUFxfT3d2NzeEilUqRSCRIp1Pcev0NP+6F+SV8XwX3IAYxiB8GHR0dqKpKKpXCYDDs0os7zzJXVFR8Jzekrxsb0uk0bW1thcCbbd+T9wvPB3rlGfptQ3Igl1KZL9IdDgc2m22AxMgV7G1tbaTT6e2Kep1OR3V1bgVpw4YNuN1u2tvbC31CXz7edevWYbPZCgV+vtDOZDJkMhnsdnvhNYhB/LdjR7X0biHO09QY0WgCu8NJVpPpCQSw2R0IeiPJWIJoLILTaafYV4Kk19HvD5GIp9AkEVESCIejJMQUZKHGPgSyICeyZAWRuKKQyibQKxpoGpFEP2IG7GYnyViG1k0dmG25pkYJPQ6LHkmWkLICajRLrD2EZJOwKBbMejMGqw6DYMSs12Ex5Bw4cgOfgM1uQ1U19HoDDlFCkvR4PB6SiSSyLFNaWpqLQjeaMRqNqKqK0+nMFZs2W04Sos+dsrwHtcFgQCcKZNMZ9HoDFotGOpPB5XIhKwoGowmPzoNOBEEUMBlN6Kx6TEYjTqcTnSiRlbMYjbn90Q8wJfnB2Wwyk06nEEUdRqMBvcEwIGcZiBwWRUSdjnQ6g8Wqkk6nC64y8XicRCKZc5NRFbq6u+nq6sTnKyab7aC3pxejKbcfW7a0YrPaUBWVcDiMz+ejdUsrJpMJVdVobW3F5SkimUjkLuJ/QRPTIAYxiP8sbOs4kk9A/Drk3/NDRruHQqGvlbdIkoSiKHR0dBAdSODNa8tTqRR6vb4QlmMymYhGo1itVlpbW6mrqwPA6XQWYtkFQSAajSLLOTLDZDLh8/kIhUKFwLCenh5KSkq2O2adTredV7gsywX3kZKSku+0AjCIQfw3YLcouAVFIy3LJJIhdHoTFpsTnUEgK+vIpAX0ej0Ws4nJkyYTjUVJppK5wlQEUSci62RSiQyCAm67G5NipsRVgiiBwaxHQUZRFVAAWUDNasiqjIxMRssgSBp2vYtULI2a1DDpzFR4y5H0OlRRQZFlNNGAYBYRDTKqBrJkQBAlhg1voLu7m1Con0MOOYQnnniSUU2jMZvMdHZ1MWH0JD5Z9gkgMGPfGbz44kvU1zcgijrC4TBDahv55JNPyGazjBu3B+3tHQBEo1GOPvoYnnzyKYbUVONyu+jp7WVk02jWrFlLLJ5g9uyDefPNNxlaV08ylVt69HqKMJtzwTHjx09k6dKliKrAtGnTWbr0Y6qrh5BIJPD7+5g1ezYvv/QyQ4YMweF0kEwkKSstY8SIEfT29TF27B709PSQyWQ4+OBDWPTuIkpLy3C5XKTTGfYYN57WLa1oGkyfvjerVq2irKyMiRMmsmr1aswWM01NTaRSKerq6lAUlUQywdRpU1m7dh0ej5faIUMIhoKMGDGCZCpDJp1in3324e9///uPek0OYhCD2P0gy3LB7zrvhPR1yL/nh/LiTqVSBRlGKpXabn/yk4J8mq4oioW+GpfLRSaTQafTIYpiQdoBX/h5J5NJmpubqaqqwuFw4HA4aG1tBcBms6GqKn6/n8rKytyKZ39/LlthQAu+YcMGKioqsFgsBQY+///5dN/i4mLcbvcP8rsZxCD+07BbSEpO+OkppNIygsFMMqtQ5CvB43TQ3dEGqkJZhQ+dpAME0HKshJJV0Osk0CBNmnQmTSaZQdBAUzQURSadTiKrMpJeRCeIaBqoioYs5xjaRCZJMpskK2fQFA1RE1BlFTmjoMoKmqqgqHLuhQ40DUlMoyIj6yyIehdDy4xogKTTI8u5QVvO5hpjzGYzGhqKoqLI6kB3up5EPIkgiLmOei2V8xoXcux0fhs6nYScVdDpJDRBJZ1JYzAYUFUNVdUQBJFsVsZkNKFqMplMElXTsJjNpFI59loj1xGvl/RomoAk6ZDl3MCdG8AlTCYz8XgMu92OwWBEURSMAyE4kLOHslgspNJpHE4H8XgcQRDweD2E+8PYbLaBwT+B2+MiFothsVgoLS0lHstNAqqrqwkEAiAIOOx2+sPhXKNlNIZer8ftcdPX58doNCBJEuFwGFmWue6q/0wN9yAGMYgfBm1tbQUnEGVAuvZ1LiT5gtdut2/jsPHt8XVjw6ZNm74yAfjyRECSJGRZJpVKUVtbWyjQe3p6Cs4r+aJb0zQqKipoaWlBFEWsVitlZWVArsBva2vD7XYjyzLBYJDa2lrMZnOhGFdVtbCdfPEuirnnUTQazY3vHg8Wi2WQ1R7EIHaCHdXSu4VhjaqIaJpEX18InSjR2baFts3rMWgxMuEO+jo70ev06PUGDCYTRpMZg9GIKOgw6Y04jHY8Vjdumwu7xYbZbEKScoleep2E2WjBoDeiE3ToBBGdKCAKAgZRwiQaMQpGdJoOQRPR6SREMecOogkgiDp0OgMokI6HSfR3kYl2o0T6UGMxhtTW4nG7sVotTJ26F8lkkvLycobW12M2mxk+vAFRAINRz/Tp08lmM1RVV1FTU43b42bSxIlomkZJcTF1dXW4XC5cLheCIHDgQQciigJer5f6YfUU+YqYPGUyZrMZnU7HAQccgN6gp7Kykrq6oRQVFVFWVkZDQwO+Yh9Tp07NJTWajEyZMgWXy82IESPwej0YDAZmzJhBKpWkuroGn6+Y4uJiACoqyvF43BQVeUkmE4RCIZpGN+H3+0ml01isFmRZwe1209nVRVd3N/XD6olGY0SjMcaOHcuGDRto2bQJk8lET28PoVCISCTMxo0bqaysJBaL0d3Tjd3hoD/UTzqVQlFUWlpa8Pl8pJKpH/mqHMQgBrG7wWKxIAhCwX1kVwx3XlP9QzHcyWSSTCaznbRl233KTw7yUFV1wAkqR3ak0+mC40o2m0Ud6L9RFAWr1YrNZiMajbJx40ay2SwmkwmXy0UoFCqk+EajuVCpfKNlXi6Sj7XPZDKFlQGXy0VDQwNFRUWDxfYgBvEtsVsw3MccfQJpWSEty9hdDjrampnYNJSaEjs6JcEr77TgLamkpKIMvcmUCysQBORUBmSFTEZGEEUkSYeqKYSj/cQTMdKpJJqqodNJ6HQSiirnmPB0zkJPkZUB5kAllcmQSqdQVAVFVQrx5Hk9s0GSKPUaGVZpxGYUaOtI0t4nUD+mlt6eHrzeIiTJQFdXN3a7g0w6g93hQFWz9PT0YrfZsVrtBIMhzOactZ/VaiOTiRGLxzEaTYiCWGC4BUGHx+Ohr8+PwagnnU3jdDiJJxJk0hlUFdxuD8lkClGERDJGWWkZfn8foqjDarWiqArJZE4/7nK6AQFVVQYGYiMOh4N0OoUsKxgMBkpLS1i9ejVDhtTidrvp7e1FEMBiseJ05b5blmVUTaOqspL+/n5S6TRmkwmrzYLNZiXcH8bhdKAoKrFYTmtYWVlJZ2cXoiBgMptxOBwkEwkCgQC+Yh9Wq5WOjg6sFivJVBKz2UxzczOPPPjQj3hVfhWDDPcgBvHvjbzzhqZpxONxzGbzN2K4RVGkurr6nw7A2dnYsHXr1kLj5s4mAPl9yDd3ptNpysrKsNls9Pf3EwgEkCSJdDq3yglQWVnJ5s2bsVgsWK1WJEnCOGDtmkswDhGJRApyFKvVWrAYzNnHSgNx7DqMRiNut7ugHR/EIAaxa+y2TZOyksBkMqJDR1bux2RMU15mxN+1miK7RJHbRTqVprOzmyy5mbhOFIkEg6TiCSTNgMvtRqcTSWUTZJUMqqbkBlpNRVE0NA0QGdCmyUiiiI4c4y0KAqLJhN6oR1EVVEFFlHRoCCiKiiqriJpKaYkHn1vFaRTQKWb8wSDxWAyny4UgiIRCQWzWnHOIqNOhKgrRWBSDXsJsMdPX14PN5iAWixU603v7epAkPQ6Hnd7ePoyGnM2S1Wpj8+ZNeDweUqkkiWQMi9lEPBZFFHUYDCY6OtrweLyEQv0YDBLhcD+ZbJZsJg4CJAe63S1WK319frxeL8FgCLs956fa2dlBUVERiiITiSQLS6o9PT2YzabCA0uv17N582Zq6+rY2taGIOR09YFgEOdAx3xPTzclJU1s3boVVdMoKyslFosWligTiXhuYDd7aGlpoa62lnQmQ3d3N0OH1uP3BzBWGBFFkc2bN1NZWfkjXpGDGMQgdkcYjUb6+vqwWCyIorjLyXG+mTHvxPF9Nk4Gg8GCfjvfnLmj/cmz8bIsF1KH+/r6sNlsmEymQqFsNpvRNI1UKoWiKAwbNqywjVgsRigUIhqN4vP58Hg8uFwu1q9fj8FgIB6PF9jsPFNeU1ODzbazaPNBDGIQ3xa7xXRVFtxkVAvplIZOg0Q4QG9nC+PHDsdmEUkqSVxFbobUVDJ2xEjGjmikurQch92Rs7qTYwhGFafPjsvrwul0YrPasVntWK0OLBYrDocDp92J0+7E5fTgdHlxeDzYPW7sRW68viKKPF4cNgc2ow0TBoyqDotowGm2YkBlU2snnTEP3WodG/tBtOuZMWMGXo8Xi8XMeeedh6IqDK2rY9LEiTicTg477BBKy0oBlQsuvABFyTJu3FgmT55ESUkxp5xyMhaLCYfDzuGHH0Z1dQXV1RVomsIVV/wKWZZpGj2K/Q/YH4/XzdHHHEVRkRedTuBnPzsLu93GzJkzGDFiJG6Ph+ENDUydOhVfkY/jjz8Bl9uNy+nkJz85BqfTwfTp06msrMRkMnPJJb8gnc4wfPhwZsyYicFgYMKECcyZMwej0cgBB+xPTU0NmUyGCy+6iEAgQEPDMKZMnoyqqRxyyCGYzGaSySRnnHkmwWCI4cOHc+aZZxCNRnE6nUydOpVYLM7IESPxeLx0d3fxs7POIp5I4PMVMX78eNLpFNOmTqWyopJkMsmpp55KKBj6sS/LQQxiELsZJEkqWP3lC91dIf/+7ztxMplMForsvFZ6Z8gX3alUCrPZjCAItLe3YzKZCl7X+ebObZm1cDjMmjVraGlpKRTVvb299Pf309LSgl6vx2q1YjAYEAQBg8FAbW0to0aNGiy2BzGI7xm7haTk0KN/iqKomK1mRE3B392GmgxT6XNiFFU0VwM2pwcBYcBOTyEYDKGqKoGAH5PZmGsoVL6QgmQyGbKZDOqAH6nRYEAZ0McJgD6fuKgoSAMDbjKZJDPQna0quUbGQlCBkiabjpPNZhEEoaCf05skFFVFJ+rIZmT0BiOaqhGLxXG6XEQiAUDDYrERi8Ywmsxk0hlkOeerHQr3IiBgNptJJFKoau7cWC1WFFUFBBA0YokoZlNOUycgkpUV0ECvNyArMgaDAUVRCt6zBr2BWDyGzWpDFAWyWQW9PrccmVtGNJBOZ3A4HCQSCUCjvLyCWCzHSLtcLvx+/0DAgZVINEJlVRW9fX2ARk3NELo6O3G5XDgcDvyBPkaOHMHmzZvRiTrqhg6lt6cHWcl53Pr9fnQ6HQ6Hg0gkisftJpHMWQCWlJTStnUrDqcDSSfR09uDLMvc+D/X/cuvxa/DoKRkEIP494am5SxGBSH3rMgXoV+HfMNiWVkZJtNO0kN3gS+PDfmEx7zeOp1OYzQad6oVz1sDJhKJQiGcSCRoaGggFovR1dVV8MVWVZXq6upC+mTeySRf2Oc12nmnkjyr7XA4KCkp+aeObxCDGMT22I0lJTEkyYjD7kCvM2IxeklG40SjceIIlBTnBiBRFHNBMGg4HA4URcZoNKCqCqqq5FiKVCrnFa0oCKKInE5/kZYF6CUJcaABJRGPowHiwCCmkSvEdaKIzmTKFeUDy41qVkSvy3ljq5qKpmqk0yqlFd4BZw4r/f1hnE4X4XAEVVUpKysjkejH6/UCuQABj8dNNBIjnc7gcjkJ9neTTKaoG1pH6+bWApvh9XiIRnPbDUf7MRqNVFVVsmHDRjweLz67k56eXrxF3pznajbLsPphtLZuBk2juKQYKSAhiiKCKJBIRBg5spGlS5fi8bhxOovZsqUVl8s5EEITwWQysXz5ciwWM5WVlTQ3N5PJZHOpmS29WGw2ent6iEQjDK0byuo1a/B6PAytH8raNWvR66VChHE6k6a7q5v2jnb2339/Pl32KRaLhcbGRpYvX87YcWNZt+5zYrEos2bN4q233qKqugqrxcq6z9dRW1v7I12NgxjEIHZXaJqGLMsF2duuJsf5qPV8c+M/W3B/GeFwuMBqZzKZrwTe7Gg/DAYDmUyGRCKxnebaYrEUivU8sZJKpbDb7QQCgUKxn7cWzG8nGo0OOGNJVFVVfW/HNohBDGLH2C0kJZoKaBCJRAiFw4SiMfQ2J6rZTkQRicbjpFMpent76O8P0dnVRU9vD4FAgHg8TjAUJBAIEAgG8QcC+AMBQv39RCMRkgPxuKFQiP7+fsKRCMFAgP7+Ab1zNhfgEo/HiUWjhMNhotEosViMSDSnQU4kEsSTKVJphWRKJpXK/RkMxRg/fjxVVVUYDAbOO+98+kMhmpqamDNnDqlkipNPPglBFBAEOOecc4iEw4wdO5Y9xu+BJElccMEFeDweBAGOPPJIKirKqagoRydJ/Ozss0ln0owaNYp9990Hm93GvHnzsNvtqKrCGaefjk6nY9KkSTQ1jSadSTNhwgSmT5+O1WLhqKOPwmaz4nQ6mTt3HrKc5Sc/+QlDh9aTSqW47LLLkWWF2tohzJw5E5PJxPTp0znuuOPQ6XQcccQRDB/eQCqV5oYbbyx8109/ejypdJpLLrmYpqYmdKKOm2+5GZPJxKRJk7jtttuxWCw0DB/Otddeh9Ph5IQTT2D63tNJpVPcdvvtWCxWxowZzaWXXoogCJxz7rlMnz4dm93GnXfeidPp+rEvyx8IGnJkE+sCSX5QnjzyLPfNe5Rn2tPf6mNq+7Pc/n/raJe/4d5lu2mP/DAOD98cWSIrFrMu+yPvxiB+dIiiiM1m2y6Z8euQdwnJ65y/L+QL3bxeOt80uTNkMpmClWyekTcNJANLkoTL5SKZTG6XLqnX6wsBafmmS1VVicfjGAwG9Ho9FRUVDK1x0BnVftjxBgCZ2JqHuPW1jUSym1jxfheRr/3SLNHmxXwaSRNb/Ri//6id8K52MtvK8tb4dziWFNGt7/PG2gDfbmQcxCB2jd1CUvKvhqqqbN26tWC1BF/1Rd0WmqZhNpuJx+NUVFQUWGiAadMnDujkbPT2+rFYrMhZmUgkSnlFBd1dPRgMhpzswu/HbDYXZClOp5NYPISqarjdbgKBIKqSOzdGk5lYNOePnU4n0VAxGkzEE0l0kh6jKfd3i9WKqmRx2C3IsoxebyART2E0GohEYhiNpkJKmcvlIhIJIwhizlEkHMHr9ZJKJTEZrRQXF+cYlmSSyooK2tvbsVpzBXtPXy8lpaUEAwE0oKGhgdbNm7HabDidTsLhIA5nzpNbQMDucBCNRBB1OqqqKunp6SWZSFDkKyIUDFFVXU1fXy+iIDKkdghtbW25SGGdRDqTpqjIx8/PO/8HvQ6+Lb4fSUmW6MrLOG/PdfDB8/x1/LfQUcpbWft2Esf+DVRKu3JTiNL5xinMWHk57/3URG/LZjZ49+HQMcV8Lc8VfYWHTj6Xp85fyktDVdI1Ffh29l1aB6sfPIJZiYfZcOk4rN/oIFJE2rYSKaqn0vxlPkAjs+YBbpNP5uqxzh1/PPYqD591HGc9HYey0znvrbu4v7GLd6+YzfHiQyy4/kCa9D9USmma7ld/zuWBEznjoEnsW2LmW32T3MemkI1a3zf4nBYhsPYzVtvHs2e1nS9a+WRS/uUs2VDCqMmVOz83/8VIJpNs3rwZq9W6S122qqrb+VCXlpYiSd9+YfjLY0Nra2tBqpJfYc0z0F9FlkhvDNHjwGu1kM1myaQjyIEg7VIZ+0xqwEgunl2n02HUkvSLXswkkQesAPN69Xg8XkiWzDeAqp+fz5yRHVStfJKHR3+d1Z9GtmcxC2NN7DvUhtoRJFtuRN68jPWr3uKNJ0W46jKuG/PlezNKy5+PZW78Rl7e/88cOL2RBzuKWeS8ltdefo+FB+3M3zxNz4szqd1wH+F5C7iwfDONr9l59ddm9vzTpVw7xvXV+yT1ODc530PedDe/cJlxWHtZ/2wX0hHjGLrD+14m8s5cDrl8KT2NB7LX2n4qj+pg8TUhuh5/gdUn1X8PMgCZpL+FTT0OioeXfst7MkVkUwxqi3AM3sq7FXZbH+5/NbZlHzRN2+UAm9fGybJMOBze7v/qhw3D4XBgMBgYN24cVquFoqIiGhsbsdvsjB49GrvdjtlsZsyYMbhcLsrLyykqKqKoqIja2lqy2SxWq5W6ujpsNhs2mw2nw8GkSZOw2WxU19RQWlpGZWUFTU1NuVQxp4OxY8dSWlpKWWlpgc3wer0UFXkpLi5h3B57YDKZKC4uprZ2CD6fj4qKChwOO0ajib322hOz2YzT6cTj8eDxevD7/bhdLkxmEw6Hg0wmQyQaob6+PnfsAoXJh8lsIhzuJxgIYLPbMegNpJIpstksXZ2ddHR2kkqlCAaDdHd3EQgG6erqxmwx097expYtWwgGg7S1tdPV1UU2myXUHwINVq5Y8UNeAj8KtGQ7WzevZGt8NAecsopFd17EiVMsWK5+j+4dfmI9Cy7dm9MunMERjRVMnNzIoXNGMuzkv7F4h6RykJY3fsn1Zx7LtfPqqTp7OVuu/iljLnuam36/kNf/vpzPMjv4mLqG93/7Im+//Qjzn/gQeaSPzAm1VJ3zG678ZGfNq2n6FpzBPs+fw18vHPsNi21AfoUHh41h1v917GA/3uPJw94maN3ZlEAm8o+7OPfZC7k/+CkPj3iCFz7sQmYE+974Io8rZ7P/dQtp+cH4BAPe8QdzdN+d/OWACkpPvYUrXlnGp5FvQq2388lt4xl62WusBeBTnjvZVPCMFgQB022f5Fi37HLeurKRIU0zmDFqNpP/+jk57jVK5xtHc3DtJGZOm8Kw055iYea/mzzZEcwD1qP5pEbY3u962+I4zxBDTjOdJ2C+Czo6OgpWgPlUx503TKokV9zLuXvew9/7ck4lgtzGP+4+kclTZ3DQfieyzyPLSZNLj0yne1n1pxMZvddvWBin4GKSZ8LLy8uprKzczm1FrJ/B/kYflV4DIJPs6NsJ8yygyy7g6ZHHcuan3Sx/uJHivS/hNzfNZZ8H9WinH8uxw+w7+JyZspEePn/qbT7YHKFI18ziPz3Ch5Z1LJrlQxh5PY9EvjzxSRJa9yYbOjMob93MuLs1KqrrKNvvFp76cx3WSILthziZ6Kq/8UTncIY11TBlzXFUXPwqndoWPvvTQZy5MLCT36+EY8J09lplwLLqSf6WrGJ0nZXFdcdy+aG130Ox3cmah6exb+0ImprKKTnoJu7v+KYZEjKxj07niKFXc1eX/J33ZBA/PgYL7h1AkiS8Xm+B1dgVY5lvVMkz4ts2vtgHkhZVVaW42Ed/qB+b3Y6m5ZYJnU5njvUVBEpKSojH47hcLsxmM5lMBpfLhV6fG/TzWj2jMWeP53a70TQNo8FYGEDNZjOCKMBAA6lOp8NgNOSOQ83rF0Wy2UyBHcgN/hKZTAaDwTjwwNGQpHzipAFBhGg0gsVixulyoMgydocNq9WC2WTC5yvCZDJgsVpwOh1Iko7qqkpcA8V5TXV1weqwflg9VqsVl8tJTU01er2empoaqqoqsdtsDG8YTnFxCSUlJTQ2NuJ2uxjeMJzS0lKMBiO1dbX/gaELaQLLf8vDlxzGwU8l2bDfPdzkeo7nZr3B1hv3oXSHn6ljwn4Cj/VfxM1rO/jk4/lc6mlgz1OmM2GHfWBuaiYdwb5DN/FU1a+5+QAXR06N4v+sHeMvbuThKw/bywyHAAAgAElEQVRiL8OOPtfN57c+wO8/W8m9G8ZR+bOnuPniETT9/FfcMtS84+XbzGs8cUKGQ247nv0M3wc1k6b35au58qwruLJ+Z9ZsEo4D3yKbvZojP76aK1dfztUH1+Uemvpx7H/NzVzyxzM4/92dPXy/KwT0pYdz1C9e4tHP1vDROU5GfXwOF5RMov7SB7j17XW0JHfEqGaJLf0Vv7yq/YsfhZfw0d/25dh3NrF69WpWr25mzTljMRJizYNHctD753G3P0n49TKsc6/g56sSqKsu4bg5Gewvd5EN38pl607l2D+uZVBJ81WUl5cXXD0kSUIQBCRJKjQX5m368k2Gee1zT0/Pd/reeDxOf39/wRN722fFDps340t54n8f5x+oOStZNcb6Jy/m1KUHc99n61n/+BTSZ17Kr15fRzKZpMgdZ/U7m6B3BR9tyRE1Q4YMoa6uDp/PVxg3teinvDd/Pq+++hTvvPwCq5U3uH9qPXvs4aG4cizVZz3O69GvztrFyqu4d8UvOW+YFUko5vA77+V/z94LY/EYjt67gWrTl0qKzGs8PMdD+R0pJny8mic60giWUkbVell15iK6NA1t3bWc4fjS57QQ3Z+vpMOfwT50NtcdKKLjdR644X+49Fc6xkwu+1IxrMNsWc6tF7zIessz/O/r+3DjVQdQHlzM+x9eznn7end+UpxHc+xVRlxzTuCEqj9z9UkJpj34M053fn0z7a6hkfn0Ck4/dyIHroyhJt7jqaG3cfG9i+n6Jp+OzufBy+ez6DvuxSD+fTBYcO8EZrO5wD7sitUQRXFArqEv/DuPjs5OsrIMCKxYvgKPxzOgEQ+RSqVYv+FzZCVLJpNixYrPsNksdHd3EYtFiMejA8uEEslEkk2bNiErMrIik0gkWLJkCclkkrb2Nvx+P6FQiLVr1yBns2SzGdavX08ikaC/v59kMkmfvy8XlBAMEI1GWb58eaF5Zt26dXR1dbFhw3r6+8NkszKLFi1CURTC4TBdnZ0kkwkkvY7W1s2k0kk6OtpJpZOAxscff4TeoCcajdDZ2YGqymzavAm9QcJsMbFmzepc6lksyqqVq7A77DgcDrZu2Yoi5wN4FFxuF8s+XYYg5Dxz2ztyRYjf7yeblfF4PbRtbSukXv7nwEjRXjdz+c8nEGtzcNgRXtIv7c+ZJ4ynaKf1qh7Pnkdx5tsreeWt53j2oXt5LTyDfceVsOOSVEDyTGPG6ccy8/Y19Jz/NFedPh7rhCO5eKJ757umBglGRnLYSD+G+17l8QUvsmhVG4sPO4jGmTdwW89X2Rf5sye58uAL+NW47SUxWrKdljUttHyJ9dWSraxdtJyO6E7Yn9jz/PGyaVxz5nh8ch8tLRGyyXbWdUTIahEC6zbTnlRBXcOS30xl4qun8UzL9ZxXsc0MwnYUc3/n5Z1XV3yjB953glTGkD3P45QbPubD0DO8cGAH0t9mM8p9GNN+8yTPtH+xlKCFn+CeM14iONZR+Jm69VMWq3VUGgO0ZJ0UD69jqEMP6qcseaGb0lOP5lSvCcfUy7nwqLf5bOVWNi5exIcHHscl+5YiOY5l7iUjCLy/mlWDJPdXkC+g87KObfXciqIUCu78MyBPqnxXdHV1YbPZCg2P+WfFjrft57M/3cL9cgMTBqa1ktjOyte30HTcbKY7JPRjjuas2ev5tDmE2WIh8fm7vPxRHPiAv66NYt9JHL2gfcqb837PHX3FmMpqKDafzwPNrXz2WQsLb5GJxMBh2rbgjNLy6Bg8pz3Fh1X7sZd9E1s/C9K+6n1efH4xuhVXcozVR/Exv+OZ0DaFumE/jvtbgP5nruPcGVO57JRjmWaxIXYHqW1M8MGDl3H+bW/wj3xxn13Px0/exGO/u5z777+dU39bRYM3yj86KnFPDlJ50Jlc8PAxzPrSJF7re4XnXgtxWMUrLOlYxXufbmHJys20v/cCL107gWGLruSa/adyygfbTLblPjrXrGFL62aMIydi7qvBe9QNXPdLM9l37uSSE8dw8EgPJec8zuuxf+7ci+XHcdrbv+aaWiuCeSg1lUbUdJYdLSRuf0CbWXLnZfxancLUf+qbB/HviMGC+2uQt03aFfIMdt4lJZP54nYaPXo0Ho8HSZI48qijiCfiVFdXU19fj8fjYfq0qdhtVqw2K3PmzEZVFRqGD8NX7MPlcjJ79hz8fX14vB722Wdf7DY7dltOgpJvkJw4YSLDhzdQXlHBEUccmWPCDUYOPfRQ7HY7TU2jqaqqoqSkhPr6ekY1NuIrLmbu3Lk4HU6Ki0s4/PDDKS8vZ+bMmQwbVo8oClx88c+RJB1VVVWMGTsat9uFJOkYP34PRFFg8uRJuFxOskqWE044gWQiQbHPx7g9xqKTdIwbN5ZMOkU0EubAgw7EHwjg8/k4+uij6e7uJhaLM2LECDq7OvF6vJhNJjraO5g1azbhcJhMOkP90Hr6+8OUlZcjkAuLGDNmDIHgD8VS/kjIbmLF+33op13GPbFNbH39IR6gCPsfDuGEcU4817+/Y1mJdw6HH/ghzWEXauNt3NB8M78o1+/4O7Qg7d1pKDmeedct541rr+eOF7oo92zmvesP5sQx85j7djtfKXnD7WwxBnn+MxvDisJEFZXYR8dwbcda+lbfwq9KvrzwmqZvSwva6GqGFZ6LOW36uXvVUt9UT/34EzjyjTYyaGQ7fsu1sxoYNXMPqg57hFeyX+bzw7T87Q4eufoMfuaTkJedz/4NBzFzZh2NIw7j2LkT2atxDPWnPcni+ddx9NUr6br3WGY6dF/IMAAwUVxTh9gZIviNzskq3r/nTC54awe/k28ILbmRdR++zEdLF7PoGTOVZ85knzFNTCgZOEfaZpbcfQ13zXiCh66oB8CMTM+6z/hQfZC7p03iiD1GUnXEzTzQkQE1SGDxGCaNHGD4hDqGTTbT2tlLf0jGsHcjE8TcVsrrR2B8cQstP3bP6r8pioqKkGUZSZJQVbXANuclPECh2M5kMgiCQCqVIhT65zMA8s4o+TTH/Grll1dGQSG+7GF++eJUbrvycIYMPKqz6SD+zyuYUOdFJwgIQjF1412s6wzSE+iia8XbfLDXjTzxuybSr3zCop2de8fBHHxJJ+ZkL8teW8Ay7QqO09dS++hHrP9QYc9TDmTqdsOInaEn/5VnpBCBrAZyC81vT6D4mTO4Nn0ys466lQcfqEMurmCEbZuyQn6Z39fvTeOkC7nJ9hoPzD6T69Yt5A/uqznHGqOqrp/YrbOZNvcJFquA5MZbVIdl3xu58qqDmBDU4ygSiTKSmUd5aE8E2XThMKZ+SXImFE1nemOSlR/1EGn3Ybc6qHWs4C839TH7reOZdJ8Xz51Pc+eeHkAjs+p8DrPPYMoN13PRzAM54JEA7ckW4gvu4uHXlrByiQHXL17m9mff553L5zDVmj+mKJ3vXsHcWxayOrurmayAVHoo5+xTjq77Ff7v9+dw872HcM4Ze1KTbWHly/OZP3/717Mre8miEPngco777ck8cdtU6nd1UQ1it8FuYQv4Y8Fut5NKpQqe3DtDfnDO+53m08MA/rF4MclUCofdwROPP46iamzZsoVQfxifz8eHH35Af38/Hq+XV/7vZSxmC6tXryKZSOAtKuKVV16hyFdEMBCgpXkTDAhBTCYzDzzwAA6HgyVL/kE6naKoyMeaNeuQ9HoMJjPPzJ/PsGHDWL78M6KRfsrLy1n/+QZ0kh6bzcbDDz+ci4wXRZ577lmKinw0NzcjCAIOh4N77/0tJSUlbNq0CVXNUlVVRTwe45NlH1NVVcWnny1DJ4q4XC5eeOE5zFYLkWiY8LoQ5eXlOVbbbsNgMPLRkiX4fD76+npZ9O4iSkpKicfjtGxqobKyikAwgNFopKy8jE8++Ri3y02Ifrp7eqgoL6enpweH0wECNLc043F7fvDz/y9F4nWe/On53GY5nL2OGE3le5OY8ysXxTUnMfXUGm4fXr0TWckQ9r72KfarVen6ezM96nqaF65l69o3+e1nszj35pM4tmSgOWr9Ncwd9xlbR/WCez/GHzEcufcwrturmjEj3KT/8msefnJvXpl0Osdus8Srdq7h2eNO4uOr90Ue+hPmrQwQNRdTrinsdAjRjAyt3YZp77mTy/d4g48f+n/2zjM8qnJrw/f0XtN7QkIJCS303qRKEw4KIlhAaaKAveKxd7FgR1QUEFARLIAKSFWa1NAJqaRnWqbP7O/HJDE0wXOOn6fMfV1cwGSXmdnZ77v2etd6nr0UTkrG/Wkfmg+dz5rymYjuv4+nMpdzYMMQEn6+kb/1LDr3WGVv8eT9E5lfHGpg8gPSoJn4Z9bz3huDmKr+mH1rFtHhxrMUf7KCkt+ZB8VqPdorlR+o+Jz35yzk4x4dGN53GoOuaIVZwG/P5fjONfy0fgXvvS3HM+EaRgx5kccLWpOjbxzFeKj4fjqDX5nEMycHkbTxcQAk+HHKc5j48Xs8Ob4dSb71LJo0kqmvdmXC01GAFIXs4m9GJJdy0aqgMBdQX15Rr1VdX0pS/+/6YLx+m3qd66qqKkym31kROo/GK6QSiSTk9dCohKVegaTxyqio5gden7uT9k+/x8CEDXxPqAHL4/UQFMQo5dK6+UaGx+vGr5SQmiJiw+69yIe+zKheZ+hx+wZWn7iJQS0u1vMQQVprM2f8rRk3ZQKl88cyw3cfY62vcPsdM5n8adSFu8jacNV7Uex75CuOjt/Eq/3GsLDvae72dGK4YhsHdlXRY1xPWjdqTgweWccLiZNZufNW+oiBkscIplhIiAPRRhA6tCDmwwOcGJBFuhggmiYD2pD36ECGPCujQptKp4RO/C0nndTKGI4t/ohvV49lxILGeuEC/pofWf5UCiOeuZUfNvfn8ztKWX3XAnZ+uIu3XZNZtaEPt7ZNpn69Td5qAWtcgHCANbeuY4e+MxOKnuOhk53oMmMaM+5cwLJjN/PwhKzzRrgT7HhvPos/PYp8WOfLNJnW46f2zA9s+GYz37SazMMyKVSu5sP7P2WdyHXOlsKgF+n+gIuXh52m6co3+Fvq23yN7QrOEeY/gXDA/TtoNBpKSkrQarW43ZfOcTVejjw/MJdKpXVW6VJkchlSAQQB1Co1MpkMt1tAJpeFSijkcrw+LxKJGLlCjlQqrmtAdCCRSoiIMONwOIFQM4xGow3VGIrBHGFGIVegVKlxut0olCp0en2do5oSeUQEarWa6Jho/L4ger0Ovd6I1WJFLpej02mJi4tHLBYjlUqRy+UYjUa8Xi96vQ6/P5SRqaqqrJMpFOHzenF4vajUanx+H1KfD4ulhoA/QHR0NKWlpSitSkwmMw6Hg2AwSHl5ObY69ZPKqkoEIfQ9FxUVIZcriIwI6YabzCaKi4tBCE1YhYWF6HSh4dJut+Osdf5JV/2vwxt4g7XHZl4+sKtZyesPF6FP+Yavlu/g1z1mnHfN40nPvTy04Slu75DKAGUhJz+4mymtchgxuy0K9vPtc8upWLybE2Py+HTcXXz3/Xcc+aYj6n0fMz5Kzul1eZzI1J/X+e+ieP8BYvo9gmnLXB747iTHt0iJy1jPQ28NYvyTl6gvF3k4lVeGhyQUgP/MXn4IdueGIZkkyqRww3oKOouJMOzltRUCLRa3p5VUAV3GMFixio8aDnSG7fOXUPDpeoY3WkYuUvThmZ4pSN5V0uKqbmRGfY6o9rKaYVgKjlOjHHqZ7eqIv5sX9nbg5vgB9LmiYLuSfW/1YtzcGDR3XMvYgZ+w4rHmpKvEgB932Va2fLOCbz/cStHj21jcZBEvzt6Ees5tJO35gv0naqDqNF/sKuOGke/xcf3HlfZhyNgs/A/uJffx7oAfj68+denD7wlC3bwveP14AQUCfr8XQROWNvg9oqKiqKysbKjdbizR56tT+Kh/TRAENBoNLpeLgoICkpOTL3t8q9VKdfVv6ylut7uhZrw+011//N+s3UvZ/vYrvJcygpeUBew/lEcVFeQdPoqlix65BAJBAZfLhVzuxKhw49JFofPtZcu3HryfdkXzCEBTLAfLEFqkXET1RkFUaiJ5Dz3FQx9+w1K7DYdsIZEpciLf/or559dUA6EmvnsZp5/F2gP7iZxwD90My/BOHMckX1+yb3qJ1/o0rpX2YckvIXpWV7J/GET6+E0Ux6QSQWe6HzlJk7MPcN3qRZx+tRUpjU8jSiWzR3PsJiVXt1vH8jsGs+3ezZTc0osb3nmKVe9u5M1zVtUsFGyLY+CaAUg/6cb0kgBRI1Rc/fE4DNMWs/aGfJq1+i3YPgdRKwbc3BfXQjsyhRqxYCKl7Dv2aGfx/Nj0iwRI7Rj50jpW3pPJ1VcUbAPIMHZ5lZfX3MmohzrT+9nuXPvRHF7OnXORbY+w4a5evNTpTp5UnmLnnlyqCODac5C9utbk6P7ZuvIwfyXhkpLLYDKZGjIQl6Jexs/pdKJSqbDZbPj9obrWjh07olKpCAT8jBw5EqfTRXxCPE2apKFUKOnVqydarQa1WkWPnj0QiaB582YkJSWiVqvp378fNpsNg8FI8xYtkMtlyOWhjHvXrl0BSE1JQavVotfrycnJQSwSAwItWmSiUCiIj49Dr9Oj0+nRarVERUUilyvIatkSuVyOUqkiO7sVgUCAzMwW6PU6pFIJ3bp1Q6FQoNPpiYyMQG8wkJSUTLPmzZHL5GRlZREdFYUQDHJV/6sIBAKkJKfQLqcdYpGYXr17odfrAYFRI0fiDwRo0qQJE26YACIwGo307NkTBMhpl0N0dBQer5fRo0ejkCuIiYmhZ8+eSKUSOnXsSFxcHAhw1VVXYTJfeYbpP4FgwV6WXN+C1lcynhpMqDY/zdK2n7B8dx4rnvbhT2zNwJ6p2GI7cN/1g+nYKpHKYS/y5Yw2dVnmJrQd/RXLRiUjIoBra2uavv4xo1qOYUa2FnSdGJ6pB4/n3PrC4E5+fLQVY7rFo2/REvHP1zJvw30MODGEaTd1vkTWXUFMZju0y35lx6VuG/smVs17g3Wnzqs293vwCvWaJgL+kwt4aNW9PHlV7B+T2LsYwe18/fp+Wo5oT8sr2kFLdLth9Im5VJPm+USQNXYV31b/yJ7npnN//6Yk2DazZelMHpuYQsyQxbx4th9Zr23k/c5a/Ke38PkRD6V/H8OIIRMY8nAefHMPc8e/w4d3TWfS1vpAzUl1WRV0SCJOEUPGmFy27s4LKZME9vPraidpqYkkNYnE993OOmUSC6f27sM7LJ2W4bTKJdFqtURERDTUcbvd7nPcGevruJVKJX6/H6/X2xB0l5WV4a4zUqsvCak3pqmuriY/P5/KysoLzlnfjB8MBhuUUBqroYiCBRxedxxh64vMHTuGUVPeZiNreWfKUyw9pSOp11nWHS7HFB9PSqKFI99Vk50WhXPPUpbX3MCMPQUUFn7D0skl5G49SsElPrs05wk23f8ir337Pg+kvsvGwHEqzhziyIRQoBk4uopVDfXYAv7qJbw+ysvQ4UG+vaM11/cQWF/yJkd/fZAJtTkMGxWNo9zZqIlahnnYt+TenI3RYKDy3m04fhhPX0lz+vTuSPNENTHZKSRc8M7k6BLG8uSLGaQGYmn/4N+ZsHoZn639lTPSRJqkRaAEBI8HHwLeAw8wd3o/WvUex233NGNMz2JO5+vxN53GI49/y/3T2zGw7aVWREUoswcyffHHfHzIBgnJGBRD6bfhZkZctNlbhDSmN2PaXEY+FQA7eavH0nPBPhwAojhSs+J+fxf/IfZ+VYnwwyM81KsHXUas4Bu+YMWIuTyb6/r9fcP82xMOuC+DwWBoyG4rlUqk0pCah9frbVgOhFAmWyKRUFsbsnevqKgAYPfu3bicoYbAVV+uQqPRUFxUTFFxMVXVVWz+aRsBPwQDIjZu2IwgiDlx4jRlpZVYrQ7WrVtHeno6NdU1HDp4qGHZMxAIsHHjRgKBAPkFBVRWV5FfVMC2HdvxeD0QhP179lJWcpazxSXY7DaKi4uoqqyirKycsrJSfvnlFwCqq6s4fPgQDoeDM2fysVptBAJBvv/+e3w+HzabjaoqCzarA41GS3FRCV6vj6KisyiVanQ6I1u2bCciIppap5uqqhpUKg0lJWVEREQRFRnDrl17iImJIxiAzZu3ERsTj0ato6qyGqPRjNVqRyZXEhkdw5btOzBFRhERFUOVxUpCYjK2Wicmo4mMphnkn8knIeHCYfo/lwoOrN1G+lXZXGY4DiHOoettRk4c2M1PK5/ki/VeEhOiiU1JR7ptGY/MGsE9j/2IvFU6zRomDR2Jw7uRJQPvvo94oNcwpsRXEpTLUDTMKxX8OvMNvmrogfRh++kVHp54M9MSZBA1i9d2pVA2pj93DpjEzamXLl4QtxzD3wue49nNoVp7aeZQJrX4lE8WfcfqfVv44c37mbXWjjcygzZTZBxduYp3Dx5k76L5vOmte5gSDvLNfWtIXDKKrv/0SGWneOV9TK6dx6NDkq4seLd/zcIbO9Lv/f2UX1HjoQhZZBPiLxJkZ9y3l8I9C/lq7hhuaG5GAUg7L+dk3f0sCG5KPsuBSZ9TcHIuPfSrWfnOMhZs2sTWL+/g6XtFNB/enmRREt3Htsby+uvc+e1mNrxxP4/su5W/9UomvvffuO3nhTz05jp2rL+HF+YqaD+68xU+XPzvotPpMBgM+Hw+DIaQhnRIsUl+TiOlVqtFIpHgdDqRSCS43W7y8/MpLS3l7NmzlJeXU1hYSFFRERaLpaEkpbGHQ315Yn2Qfr4CliAICOJOTNl0mjNnznDy5ElO73iOa7ieZw+u4pmrOjByYhpFiz7hwS2/sunNOTyy71Zu76Xj+O7DnB3Yl7Ftk0hM7E/vgc0JrviJb6yXeOqVNafTVfEoRSAtO8DPFY2bn+2c2fISH+Y66v5fyb537+bhaydx69F7mPfABEb9eB2zHXVBoEhLd80qljcbydCNpZcxnpHSQljJkgdkpMabLsgiB0/ex6TWtzD500qOHGtBYru/MW9RPLvf7cg9X6ez5/Ev2eB1ceyBN1jlFyFv/SafnXIS/GUec/rlI/thI8devJphslIKc72kt/iJHzaduMQ9LODNr+TkpAGMaq1CufZ53n7gCV7YWPdAewElHHpnAK2nLr6oisu5qIgwB3DPfo5bVm1h+/pHWfDWccztmpB6ya9mLHefFBrmeaF4HpOYyrzi71ne+Q94MoT5tyQccF8GmUyGWq1uqL3zeDxIJBKUSmWDe1djGan67EVpaSlVVVWkpqWh1WlRKBR079EDr9dLUlIiRoMBk8lEdqvsUHmG30dO+xykUikpKSno9XqMBiNdu3bl9Ok8TGYTmZmZCHUlKTqdju7duyMSiUhLSyMmJobY2Fg6tG+PUqlEIhHTLqcdkZGRJCYloVKpiI6OJj4hHnOEmaioKLp260YwGCTCHEF2djYmk5HY2Bj0eh0ikYhBgwbh8/kwmUxER0ej0WgoLS0lLS2tzozHiN3uwGKx0LZtG8rKypCIxcjlCpxOJ0qFgrMlZykrKyMmJoaysjKqa2pITEigsLCwzq3Ths1mw+12U1pWRnlZGfFxcZQUF1NQUIDL5eJsaSmWmhry8/PJzT2CVCpl377/Hh3uYNECHn9nDk8OuFLlFRPNO3XAW1DCAflouryyiy8GxaNodj0Pdx1M/+mvM+XFzey4q9N52SMBX/EHPD0rhb+/dDWJEjPxNQt58M0VLP3sJZa8OZlnPj3G4fLQxCtYl/Lio0N5/55uxArVlOyaz9uzXmbVde/ynnkWna6+l1s/28LGAvuFrmySAdz4TScKxrzDYmsA9Dfy4PcvMeP4VOa2u44xO67nga0P87eIeAY+s5xPY1/i+daD6LejO0NbRdJULWDf9BBTmr/D8+cpnSCLIj1djwIJysgMklTiRq9dBKGEo0tH0+HOQcxfNoOx2isc9hwH2PnjXrb/kHuF2t0+qr/ph27AWzx6ojPRM7dxYuf7oSA7O+ayxhUidSItIlQ4iKTrXcv4POtdPhrel15P+ql6ZzWbr89AjIyYkSvJfbIK231XMfTbq5n6699Djasxd/HCwbGM3TiO7tMqKfhgJd+OSPjnVwb+B9BqtQ0Z6sauj/WZb7/f3yDjJ5FIGoxk6hsp6x2HxWJxQyNkfda6cVBdnwmXSqUolcoGZav689SXtdQf2+fzoVKpSemQXFcWaLzo9b8x6ghHf4mm5y296C4GUBCTM5ybjSWcLLhMy6+0HyPf3snbzcfQ5877mThxLA9Pb8+1U2s4eqaC0GgQRfuZS1jdaRPvvzSF5TOjObCwP/O6FfL5h2v5OtWErO3LvLmjM9qzDs7XLZK2vIOFQ5siBRxmM+KU+3hs6zd8NTTmgrcjznieT8ssONbNZJReDIef5fqPM7nx6yl07P86Wye8wy13P8WCFfUBrxiFQoLf4kbdQ8UuSybx991Hv9Gv8WGnj1n5yyOMeKUL7e98h/m7is9zqxQhbzWLt27rSFZ6JP5ZH/HDV4/woGUVLzz2Es9+d4KKc7av4Myunzn44xZ+Kr+cNrYUfY+P+Oo7FcbnB9J9xiG2jPmezTP/gC+ByEBEiwgM4Zv4v4Kw0+QV4HA4QrbyNTUYDAb8fj/BYLDBHQx+01Ct122t73p//oUnOHb8OGZTBMnJyRw6eBhzRCTBQBClSkVkRAS/7PyF+Lh44uPjKSgoQK1WY7PbMJlMREQYWbbsM0aPHo3D7iA/P7RAaDCYiIuLp7y8HF/Ah9vjIjY2FqfTTU21BaPRSHV1DdnZrTh58hhV1RVcddUAtm/bjkyuwGQ0IZFIQ0YzKhXBYJCEhATKy8uw2WzodHpSUpKprKyktjY0kTRpksahQ4eIiYklISGByspKnE4nCoWCjKYZnMrLQy6TIZWFXCtBREF+PnqDnuysbIqKi/B6fXTo0J7c3FxcThdt2rShoKAAs9lMWUU5LrHyBeEAACAASURBVLebIUOGsGvXLsrLy2nXrh3O2lqqqqtRyCQUFhaSmprK/v37+Xjhor/qV+Ki/CNOk4L9K14bsgvpZw8zM+Hyi5S/7ejF45ehuGLXRA+VG2Zy7fr+3DlnNCNjFISc475i5fsf8ePGPHLTh5PVfzxPjW1JtMjN2Z9WczpnDN0Vm/h44Ao23zaakb26MyxRg8h/mn2fTuWhv//It3kCot5P8O6K+5kS1ThfFXKz7H9wHrvvbnflk0zoA+IrWsta+jM88Z9tA7RT/M07rGszi1sSr7Q8BMCPqyKfKm3aRVwvL4HPjg0t+j/NzTLMn4XNZqO4uBiNRnOOJGAwGGwY00M+BqIGZROJRNKganJ+cN34/02aNAEgLy/vnO2DweA5pSX15/V6vSgUCkwmU91Y+mfjxn5qI9t+3sPPJwwYctrSMqs1fdINjR5iqzj8wQ7c44fSXvWbakfxsmsY6HqdnTdnXv4eL3mMrAFZLD88lqzLvqfTbL1mAbsXPs9sc6NaO6GYw4snMPOmFvQpeoPH4gNUbriVEZ+1Z+SkMUzrZsb+9T6sg7uSJQt5SviKPmf5+9v5NbIJTfrdzIyWGvB+zVtDRjNjgw/xkDu4Jg6MLVuRaG/ctN2BPncNpY/ut/tfcBVxrDaS5pHK8MNsmEtysVg6HHBfIQ6Hg7y8PCIjIwkGg9jt9oa6vvOdKOsNXqRSKRNu+BuCAFqtDqvVhlqtxuf1EwwKKJWhhkipVIpGo6G6phqtRhsqWfF5iTBHYLFWEQyGrONdLjdSSSgjolAoCQZD1ylIEI/XjVKpQhAgEAjZvAP4/UGkUhGI6rIBgohAQECukON2edDUnU8mk9ZldkIDv1qtprq6CpPJXJe5EWEymetkDz1ERUVhsVjrymwkBIJBIqOiKC0txWAwoNPpsNvtqFQqFAoFXq+XyMhIrFYrgWCA2JhYHA4HXp+PxIQErFYrQVGohMfhcBAZGYnL5SIQCGA0GKixWNCoFEilUgoKQg8dD9/3wP/T1b8y/njA7aFi11ZKs/vS6koDujBhwvxpnDlzBrfbjdFoPMeYpnFCpT5ArlctARoSLPU/V6lU5wTc6enpABQUFCAIQkNfkEQiaZgrXC5XQ1mLSqX6fwq0/5/xbuWdb1OYPCrpn1RsEPDZnAT1mkt4DoQJ89cSDrj/SaqrqykvL2+o5fZ4PA0Db/3A3NgSXi6X8/Qz8ygrK8PnC5CVlc2O7TtISUnF6/Xh8/mIjY3lyNEjqJQqklOSOXPmDBHmCJwuJ8FAkPiEWDZu3EBOuxyUKjV5efkAaNRakpOTyc/PR2fQ4XTVolSqiI9PYP++/SiVamJj47BYLOh0GkrLikmIT6C21onHE1IWiY9L4OCBQ8gVchITE3E4HCiVSkpLS5HJpLRu3ZrDhw+jUqkBAZ1Oz5kzZ8jISK/7vCIsFgtisYgWmZkcPX4cESHDmqioKBwOB1VVVZgjIjCbzdQ6QuUn7Tt04MTx47g9HjRqNSaTCZfLRWVNNSaTKRSA22yUl5Wh1elCJT1iMc5aBzarlfiEePbv288nH350yWv1V/CPZLjDhAnz74XdbqeoqKihPKS+3EMikTSUENZnvYFz/j7fPKee+oD7zJkz56yQ1h+ztra2IaNdX8IYJkyY/1wuFkuH02p/ALPZjEajwev1hizU62q46zMe9chksgYzg7KyMiwWCx6PO1T+4fPhdrspLCxEEASsNivBQGh/m9WGEBSoddZSXVUdes1mRaFQ4HS5sNlseL2hDLMgBHE6nfj9flxOJ16vF4/HTVlpWWjZUyyirKwUIShQXlFOIBBArpBTUVlBba0Tt8tFXl4eAgIej4eSkhIkEjGlpaV1WRqBiopKPB4vtbW1uFxunE4nMpmUiooKFAplXfOoB6lUhqeu9lEsFiOWiAkEg8jksoYmIYM+5KJnNBoJBoNodTqUCgURkZFIZTL0ej0GgwGJRILBaEQsEqFSqzHU1borVSoiIszoDXrkcjlyRVhtOEyYMP96dDodMTExDdrYGo2mYZyvD7TrDXGAc8b/+p/V/7txEF7/mkwma8hqQyiRI5FIiI+Pr5OQDQfbYcL8NxIOuP8gSUlJxMbGNgyS9TQ2MahvrIFQXaBIJEKpVHH06BEMRiOVlZXIFQpcLjf5Z/IbBvYTJ04gEouoKK/A7XHjdDk5duw4gUAQn89PYWEhcpkcuUyOPxBg//79qFQqKisrqaysxOv1cfr0acQSCc7aWsrKyvH5fdRUV+N0OikqKgoF/B43gUCAs2fPNpTFWCwWnE4XDocdQQiiVqs5fPgQarUaj8dNZWVFXeOouy4Qd1NQkI9cLkehUPDr3r2YTSY8Xg82qw2RCEqKS1CpVOh1On799VdiYmPx+X0c2L8fjUaDQqGguKgIvU5HRUUFUomE2JgY9u7di0YbKnWpqalBoVCQn5+P1+NFKpVy8OAhkpKS/qpfgTBhwvyXYzabadq0KVqttsGo5vzkSn1jZePA2+/3N8jEnp8Br9+mfj+5XI5eryc9PZ0mTZpcUJoYJkyY/y7CAfc/gF6vp2nTprjdbrRaLX6/v2GglUgk58hJDR06lKSkZBQKOffeey8ul5OcnBxy2uWg1+u46eab0Ol0KBQKpk6dilgkpk/fPmS1zEKr0XLXXXMJBgOoVEquu+46lEoFSqUCrUbD7Nmz8fl89OjRg/bt22M0GJg69TZkUhmJiUmMHj0ao9HIoMGDSUtLQ6vV0r59ezJbtECr1XH77bfj8XiIj09g2LBhREVF0r//VURHx+D1epk79y5qax2kpTWhd+8+KBRymjVrxogRIxCJRIwYMRKj0Yjf7+P+Bx6gtLSUpMQkOnfpglQiZciQIYjEYlwuF7fPmkV5eTlxcfHceNONWC0WJFIp/fv3x2q10qlTJ9RqNQWFhdx5xx04nU6Sk5JolZ2NpaaGa665BrVGTXV1NTffdBOlZy9qdB4mTJgw/xKkUilms5nk5OQGKdZAIIBYLG5YxawvC6lfPm5cx12fDa93HYZQuVlsbCypqalER0c31GuHCRPmv59wDfc/SW5uLmq1uiE70TjDLZFIGDduNAqFAq1WS3l5BXK5ArFIjM1mC2XKa6rx+nyYzWaqq2uIjIykqrIakVhEhDmCquoydDodep2ByqoqAoHQtdGoNdhsdsxmMzaHDa/Pg8FgxGKxotcZ6h4CgphMZiyWSuITYqmqqsJoNFFaWo5Wo6GmxkpERCQejxcIEhMTS3V1FRKJBK1WS3FxCVFRUaEGH0EgKioKpVJBdXUNJpOJ2tqQe2R0dDTlFRUkJCSE3CVVKpISE6muqUEiFqNUqQgGA2g12lB5idGIUqmk1uHA6/USGxuL1WYjGAxiNJnwuN3oDQYslhqUSiVmk5mSkhIctXaAhgebeQ88+Fdd9osSruEOE+a/F0ddD4rb7cbn8zWsajb+U5/ZbtxEGQgEaN68ORAeG8KE+V8h3DT5J1BvV15WVoZarUaj0TTY9YpEIv4+72HKykrRarWYIyLIO30ahUKBRCJFrVbh9nmwWKx1jo4G7DYHUqkMu92OXq9HrhCxb98+OnToiNPpptYRkuOXSGVER0Vjt9sRS8VUVlUQHx+PXKaguOQsCrkCjVaHRCwhGPThdDlIT0+nuLiEWocLrVaLRqOlpPgsSpUSuVyOyWSiqqoKj8eNSqUmKiqS8vIKBCGIIBKRkprCkdwjGAwGEhISKCouRgRotBqkkt8MgQJ1jpIhScFajCYjUok0FKQ7ndhttgYVE5lMRlJyMoWFhXg9Hsxmc4M2bU1NDSKRiISEBKqrqxHEoWVdv99PUWEhny1e/Bde+QsJB9xhwvxv4Ha7sVqtOByOhmx2Y5nA+nHKaDSiUCgaFEfCY0OYMP8bhJsm/wTEYjGxsSFdapksFCjX12SLxWLkCjlKpRKvz4fJaApJ3kVFoVKpcDhqadGiBT6fF71eT0rd0mV0dDR6vR5BEGhZZ7/udDppmpGBzxdSN5FKJMTFxeH3+zEYDEREROB0ukhJTQ1llZVKjIbQIG8wGJDJZFRVVREZGYlCqUAkFhEbG4tYEjLqiYgwEwj4iYmJRiKR4vf7SEhIRCIJNQ1FREYiQoTeYCAlJQWAJmlpGIyhRseOHTsikUjQGww0bdoURCIymmYQERmJRqOle/fuBAIBFAoF1153bcNybU5ODkqFgqZNM4iLi0MikdClSxeio6OJiYkhJ6cder2e9h06kJqailQiIScnh8zMzL/ysocJE+Z/GKVSSUxMDCkpKaSnp9O8eXMyMjJISEggISGBxMREmjVr1lA2EiZMmDDhDPe/mKqqKiorK/H7/ajVam6fMZVaZ21IR9vpQiwRI5PKsNltREVGUWOrQS5XIJPKsFptaDRafL4APp8PrVaLzV6FVCpFJpPjdnuof0aSSKQo5ApEIhFenweX24XJbKbW4USjCdWVu91ejEYjjlobIlGQ5ORkiotLQBCh0+moqbEikUgJBgX8/lBZi8PhQCwWo9NpcThq0WjUIXMfsZiYmBjKy8sRgIT4eCorK1GpVJhMJs6ePUtcXBwWq5VAIEBCQgJVVVVotVpUqpDeeHJyCtXV1bicTuLj47FarchkMhITE8nPzycoBNFqdbicTqKjo6murkYulxMbFxcyx4kwU2OxYLFYiI2N5f45c/7Sa30+4Qx3mDBhLkZ4bAgT5n+LcIb7/4GIiAjS09NJTk5GoVDQpUtnUlNSkEml3HTTTQhBgeTkZDp17IhcIWf06DEhLW+5jLHXXotcoaB169ZkZGSg0+mYOHEiJ0+eIj4+nuHDh6PRqNFo1ERFRdG3b1+0Wi1t27Yls2UmarWKiRMnAgKJiYl07dqV2JhYevfu3WBG065tO5KSklCp1Nxwww3IZDLS0tLo1asnsbExdOjQgejoaKRSGRMn3oBEIiE5OYXMzExUajVms5kuXTojl8vJys5GrVbjcDgY87cxWG1WDAYDzZo1QywS0bZNGzweDw67nZ49elJWVoZKqWTw4MGUV1QglcmIrwvcExMTEQSwWa107NSJmpqaUMZcr6e8vJyWmZnY7Haqq6vp2qULubm5f/WlDhMmTJgwYcKEuSLCGe4/mT69uuF0udDrdCEnMb8fg95AjaWGyIhIXF4XtbVOjAYjNpsDhUKBVCrHarUSHR2Nx+ugrKyctLQ0yssrkEpCzZkymQIIabp6vG6cbieRkVF4PF78/gASsQSfP4BBb6C21oZAgIiICOw2By6XG5PJhNvtRSyWNBg76PV6amtrQ42NBgNSqZRAIGRlLNQ1cRYVFWEwGIiOjsZms+H2eDAY9EglUkQiEbW1tYglEuJiY0MZbLkMlVLV4Mrmcrsw6A0IgoDf70ehVCCXy3E5XUikUpQKRUMzUm1tLUqlEoVCgc/nQ6FSUlVdjVgsRqvVMmPy5L/24p7Hn5bFEuxUWJREmWTn/wDv8cW8WtiF8b2bkij9I0bDZ8n9ZCW/druJ65vorsyi2FdKkSuKRP0/qBMsnOXwZoH03vH8ARP7MGH+4/mHxwbBi8cvQyE79w4VnJVUySOI/EP3/B9EKOfUVi+RPRIxXMFpBPs+vj8eS5ecWPR/+G0J+Mq2srY6i4GZ5su4Rwr4bQWUypJI/FMdev24imvwxUeFPs8f/D5AwF+9h22OTHola/6QDbxgP8DWmnR6XNF+Phwnt7JH14VeMaqw3fy/CeEM91+A2WxGrVKh0+kwmUxo1Gr0eh2xsbGo1Sq0Wi2xsbHIZDKMJiNqtRqv14tOp2voeDebTAQCAZQKJVqtDq02JCMol8uRSCQYjUY0Gg1yuQyT0YhcJiMyMgqdVofZHIFSpUIul6PRaImKiiIiMhK5XI5MJqsL8EPW8iE7YUPdseTU1tYSCITq0QWBBhlEiUSCx+PB6XQiIqQnW1paiiAIiEQiAn4/1XXa34IQ0iKvrKxEIpFgt9mpqKxEJBZjsVioKK9AEARKSkpwu1xUV1dz4OBBBAQKCgo4W1pKMBgkNzeX0rIySktL+XXvXiorKv7qS/uvRbBRdfoQeQeW883rfcjo/DRvFntCP7N/xqtJgxmysZTzep6Rp7Wm3bohDPmy6LeXvRtYfP0CPil2X/p8fh9Bz0dMuX4eDz05ksGPb+bU78UCQjGH3h9G5/cO4vHbKD5Sha1+e8FG1ZESKvyXCSYqv2LJteO5Zn0hv/POrhAPpd9OY+LizWwqc3HFYYxgo+rUYQ6X2PGc+wP8ttMcPpxPkSt48X39FZyuOPdcgusMuZv2cdju+0c+RJgwv0/1Au42jGLKXiv2k9vZa/MBHkq/HkT02MVsv8SvKrixn/2FnatXsPJA+RXcbwLubTfS8vntFLhsVPoF8Kxn6VU3cN3Stcx/axcnfOffZR5Kv7ia9o9v4FAQRN6NfNNpHi+f9V/+bK4znNz9YaPjipDULOPV1i+w0HrhhxJKPuC+GU/w2rwBXNsqgk6tm5Ax6gUWVlz+XP8wwh5Wz04m9aEPeWllLnbbSt7p15nsqfcyoct0HjjouMhOfmwbrueq7CSSevRn1NTruCtlArcedP7OiUrY8VRPbthahrPChgcBz4FHuWrUszz2zUpe3Vl6keu3n1XXd2fcj0UEAO+xefS7+zvC677/3oQD7j+Z9IwM4uPjEQQYNmwYgWAQvV5fV3KipEuXLjgcDlQqFZ07dUIildKxY0fMZjMqlYo+ffpwJj8fg8FA7z69cblduNwu1GoNHTp0QKFQEJ+QgNlsRiKR0qVrV6RSKUqlgtTUVGQyKZmZmej1elQqJYa6gFqpVNG3b1+8Xi9Go4nExETMZhPx8QkoFHICAT/9+/dDpVKiVquJiY4mKiqKQDBIYlIiEomEuLhYJBIJDruDvn37Uut0IpZIiIqKwmw2k5KSgtViIRgM0qx5M+wOO2qNhqyWLSk9exaRSIRGoybvdB6pqanUOmupsVjo2aMHpWdL0Wi1SKUSqqqqyG6Vjcftpra2lu49enDg4MG/+tL+azn7MnOav8ijhTEo3GfJizESr6szwtD3oMeEXKxOUaPshRt7wU/8smkzZ1UmNJPmMuWgA3/VKhbdeBvPpkqptHouEoh6KF83mGRzZybdpqNllpSKLs/x3vC9vPr8Zg5fMKmG9qn4fjK9vpjG4lltkOyZQu+WD/02sZ59mbktJzBzT+3vf8aoqTy2dwztbhzHNRc8PPxR5ETkDGV0xUt8dFUCsTc9w/1r9tQFJJfA/jUf3dyE1IxsshOySH7oew75BMBOybqRDExIJzs7laQ2Exm9oZhzp/Iidj+fQ3rDpCbgK36NeYOakdW3Ha36zeX+I5f5/GHC/FEietMrTUJUpAznobvp/vx6Du78iv0nahB59vDyfctYZ68LUG2f8sLV/bipRwTtm6jRZz3BnGN2Ttp8SFwF5B/8mE/mjGTcylzKL7j5Kjn28waO3Ned1B7XMmTZUco2f8bHk8fSuWAfNuPFQoUiDm/9mUK5hhgxYEgkXmUiWnOpsELAe/BOxvZOwBQ3nsn97+S9qip8uU8yocenHEzuzQC1kaiL7C+KiSN5+WGOjVzK+wfK+Pr5dkg7dWVo5J9lFuTDtvUFnvu6F23MYmp9p9j2+nI2jm9NTNoAZq54igeytRfZT4q+TUfifQ/x8pvP8Oz8hxmr60Cfpr+jte7dya5vtvNpz3bEDXqYx06cYeviPLrd3ALRrrMXHyet29i+Qk9Qq0WCDH1kLKoYI+Z/0acP8+cQDrj/ZPbs2cORI0ewWCwsX7ECn9dLYVERe/fsxWq1sH37DmodDpxOJ9u2b8fv95Obm0txcTFer5c9e/YglUiw2azs+3Ufbpcbt8uNxVLD3r17cblcFBYWUlpaitfjYc/uPbg9HioqKsnLO43P6+PUqVOUlZXh8XjIy8ujtLQUq83Krt27CQaCWCw1FBYWUl1dTV5eHjabDZ/Pz5EjR+oy2S6qqqqw2qx4PR7Oni0lEAxSU2Np0JwtKCxEJpUiAlwuF8FgEKvNhlqtRi6X43F7kEqkdc2cIZ1tsUSCVCojIiICn9+HXqcnIiICm81GRERESH3FHIHZbEYsEhMTG0tmZiZer4cmTZr81Zf2X05JSg5jdAcoKnQSM7wfIwJf8vzdP3HYF09EgpnESM1vGwsWyn54kHFbE0lvYiDvvtm8wGx6xP2M5Y0jHH56KrNbGs5dXgxuYvGAV1idvYJ93/alevggblEv4otDxRT9sJpDl5oovd/x6XgvVz8/jn7yf2bBUoQsYQYPrkqh+uq3+MB2yfTclR0rdgTXzP2KRb8e5pdpBrJ2TeP2mI5k3PUmz/54hFPnZKor2P/udKYo32KD04fz9I1c8/xdzNpYBVXv89xQgcjVxdQGK8mbd5I1E5fwZUPE7cOx8z7ufajRKkJgLe+PvocFV62n0HuabcM+57nbFrMu8E98pDBhLoqC5D3TmDRxB+6nhtHm7xtZ/nZTxkwfx6Qb+tBVW3ff6q9nztJFvPhEb07e9hELE3oye84t3N/pIB8Nf4rHt0lwebewdkv+eQG3gP/UfCYvfZDlH93DM4uXsb3PGh59ognXHHmaryOHMH18e5qeV9ZC2QpWvHEDc29uTxQg+A0Ykyo5vGkRL99+Dde+soXD59ziIuStHua+QWIS3l3AE9PMGExucnOPo9hXxHHx74wtkmY0H3WUisJf+fGD2bzxVh4tOqQT+6fUTwh4D9zHsHXX88JCP8dORjN9TDzenivYvmAaE5f/zBGd7tJlM4ZEWjhz2bQrn5KiPE4npNFScamNrZxaNp+Pb/uSJdNfY9VPz3D7gbn83dQK1bzNWEdPYnan2PNK8DyUbfyE+ZNv58lORsCP3xBHUtkxdi6cyeyRc7hjcwl/Yu4/zD9IOOD+k5Ep5Ki0GrQGHQIgVcgJCEEkcilSuRxnrRuFUo3HG5L7E4JBHLU2/H4vEqmI0tJSDEYjYpGYsvJyVCoVKpWqwfZcKpVSU11F0O9DIoaiwjPIpWL8Xjd2qwWf14W1prpB29rtciOpc0irqqwMBcMeD1VVFSgUMiyWarxeNxKJiJMnTyCTS3E67VSWVyCXyLDWWCgpLEKrUlNcWIjTUYtcKiP30GGkUilWm5XTeXkgEpF3+nRIJ1ws5uDBQ6hUGuy2Wvbu3YdYJKHW4SI/vxCtVk/+mUKsVjtul4dDh3Jxu73knT5Dbu4x3G4vO3fu5uzZs5w4cZzdu/cQDPx3RTb+wly2N9nGkuGLWDZwA1uuS0esE+CNV3nzlPfCHUSxZFw9nPbLDrB3z3F0gVP8XCjB1rodXUQFHP7pTT564hZuXd4omyXuzqiXKvni83d5fcJ64nc/yt2nHuGtm6I4vWMoYwe1puX5kyrg/3UJDwy9nfvaXiyj05j6sozDv/051aj0BAAp2k53ce+wt/nk5+p/8Ns6D2kcqV1mMPHxXWyrWc6XA4qRfjaYLNNwuj+1hOVFXkBFbNcnWPrwCDqqpKjimpModuPxBcBjpUZIpGWzKNQiM7GpcYgbreEK1k+ZP/krqtvoG14LnviaVTtHMu7aLiTK0uhy841ct3Unm4rDpSVh/hX4sJ9ew4bl8/lBsZwZL3djbvUhVt0SjeiXo/wy80GeGdaVEW0a10uXcvy7L9ix7xSuj5/njTP3c13XWcw52pUpP7zDwmmZGDe355ZZ/cg+Z+YvZO+afny0eSjp3hr2bD3B2chZvLj5VZ77fgcLs2LRXfD+itj1/tusfOVW7iyfziCdCLFqENOO/sjq7XKUw+cyeURrMurP4zvG7mWPseDvM/jsFwu5k6cxdZUVa5UHRUIC5stGIgm0HDWARLEcf/qtXP/gK9yXVsHPPy5kyeMvM/+iZRf/KCLkrR5i5W1qajcVEtXqDB+PepPtr2URmTiJeYGPub3PCyz+3YSBH/GZVexcvISPc1RcOt7exhrzYjYPDeLWrWbtoVqMA5ay+ZnFrD55G9fGXKTbxfEFi27TMGlmJ3xvpKMTyVBlvsbRVet4SzycDrffwE1to/izcv9h/nHCAfefTLdu3YiOjkYikXDzzTcjCALNmjWjXdt2CAiMGTMGuUxOQnwCo0aNwuf30atXLzIzMxGCArNmzaK6uhqVWs3kybcglUqRSqUkJiZy3XXXIZFIGDx4MM2bN0cul3PX3LsQAU2bNmXIkCGoVCpGjhxJTHQ0arWagQMHkpaWhkwqY8qUKXh9XtLS0hgxcgRKlYqRI0eQmJSEXC7nnnvuBiA9PYM+ffogk0lp06YN48ePx+fzMnLkKBITE/F4PDz44AO43W7S0zMYdvXVBPx+xo0fh1qjweVyMWXKFKqrq8nKasmUKVOora0lKSmJTp064/f7GThwICaTCa/Xy6233kowGKRp06Z06NAei8XC+PHjEYlE6HV6hg4Z8k+WI/y7UcOxnw/T9s6nuGeOCIXtEItf3shxuw9B0Zk+GY0HXQ/lP8zg/ltTaZ6yiKOSZ5nj+TsP980mK81EzqF3eGH21Yy/6gA7e9zKoBaRdROygPfEe3ywYAc0Gcn07+bQK9Cda81PcuO0AzR7uJSd3R/kuQvqLz1U5J9CaJVM03MmjTx++vwzHnvsMZZ9/hMFQLSoln1vdiE7O/u3PxkPXVjTKUompa2ccqvrCr4bAV/RB9xxx4915R+/s6XrBEe2reaXndvZtFxF4pS+9GqdTfsYGaAlpttN/C3RR/nO+Sx64ileHvkAj/aOgtirGDpqKW8+/Arz376JubdsIeOpgfSRAkIeP7/yCC/3+ZR3789oOFfQWsFueRu6pobau0TxOeQojnLqrOfiby5MmD+EB2fFGY4KySTZnmH5xmkMkkWT2sJE+p0D6Pv5Ntbl1543DgpYD77Fp0d0NL3nLoY3e5PPRn3HvuJfeG+QmebK8dzddjxdo89vvk6m0+z+ZIm38O1MfIUXAAAAIABJREFUgfSeaRjy3ualB4czuX0Ok25NRN1xNvNO1oe0Puy/PMTkwsGMuP9bvs58j3W2/ay+VQMmE94yEZl9ezAo3fBb86PUgEFtRtTnBlqSxOTta/h4QhxZg65meI8JDHpyCEOkgODDU98LEjzM9tcfY9FLU5h07STeWbeBDXdP4I2b2tNh3nrefH8Zr7yzjlWHfmb7R9v42Vv/bdgp+el+Jj2z8bJjxiUR9rF6zAReGb6aJaNvZOYnMxl342o2FlVjWTuBMUelKNWXCJ8EE8a4dDrf9gI3T7+Hu0akoTm8nq9P2y+ctwxDmT0sEfGJD5lWPJQhzUUU/TibZ+7tSI+e/ZkRl4Jx0gq21+eXhAJ2vfg6+eNK+ey7AjJmncJe+gzTTCBu6qIymMI1A9qToz//Gof5dyD8EPQn8+OPPyKTyQj4Ayz8YCFikZhDBw8RCAaQy+QsXbYUESKKS4o5duwYSqWSTZs2EfAHUCgVvPrqq0RGRlBRXsE777yDXBYawoqKiylYsQKFQsHatWsJBv2oVCpeevkl5DI5J0+e5Nix4yiVSk6vPo1YIsLucHDixEn8/iBKpbLheAUFhZSVlSBXKDh18hQgIJPLefvtt5ErFJw8eYKiomL0egNOZy1fffUVcXFxbN68GYVCgdls5o03FmAymygrLaWstJSYmBh++P4HlEolGo2GL7/8kpiYWMrLy1myZEmDe6TP5yUqKorc3CMEg0ESExPZsGEDRqMRu92B2+0mOTmF3bt3kxAfj9Vm4+jRo6jVv1MT95+G9yd+WHKcvZLZ3HtYj2h+Md7XHmVqx4UMvmBjBdF9ZjFoa2uafiMjZsfL3PbI09y5pgd3v6dlZ9fpbHyliGdX+ujVsyt/a7jDRchiU5EonuCjrmt4PGkjFf1+5bPT05l5RzqqthN499cSrLEXGRIEBelpMecpB+Rx+OvPKS86RovECgrJIkrQ0uH+coT7Afsa3p98Ew82vY6JcecfU4pKq77CL8dO3jdP8/rrvdDc3YtnkhtPJAJ+ey7Hd67hp/UreO9tOZ4J1zBiyIs8XtD6EpNOBWd+Wc2az88g7aFBKRdBQEtkMy2Vy7/li4pTOE5mopKJkAl+Kr6fzuBXJvHMyUEkbXz8nCPVimQo/kyViDD/w2iJ6TyLGe1/4uMlY5h5vZm0eSd5+aludH5OwBS3kMeu2cGaOQ/zwtiOZKvEgAyZ2sWGVYmMmJaCvvxB3n9VR9SaOAyV9/Ck4wHGXnB7Oyj7ZRFr9ubhOL6R78jlxLMZpNzio3TVdUzZuZQFyu94Tbcep1oKCPiLFzDp2Wv5dmkti9eUoxcFsG2axx2m53k2pYZWk9Yw/aFoVj49gOz6FTNRLE1HzCLt5L0MOP4gT2dZyL/biadzFRXBbAZM+5HFk2fzgXc6j9S/NXETMvumsPnrVgy8NYXOKdtgzW4qP3+aT/zHKWrai67mi93jJ9jx3nwWf3oU+bDOvN/qSseaRohb02Z4LOt1+aztdCdLWunpm32G95+ZyuafsmilOH3x/fyn2bvgHhZUnKBo0jra5v3Izpy5sH8bO+dH8f6Xb7BsUFKoRMR3jF0rVnC47DQnfv2F2CU27kqS8UaXfBa3+ZTN9yRjPH0jutfFGCQAdkrWPMjT7ZexJPpeVu9SIBVO89NzSznz9L20LuvJi8cnMXbdF3xRf44w/1aEM9x/MllZWchkMvQGPT179sTldpGQkEB8fDwGo4G2bdqiUIaMbzp16oRCoSC9STomk4kIcwQdOnTA4XCg1Wnp3LkzEokEiUSCTquldevWmEwmkpOTiYiIQKPR0K1rt9D59HpiY2OJiYkhIyMDpVJFXFwckRGR6LRa1Go1bdu1QyKVoNfrMJpMJMTHExUVhVKpQqPRkJKaSjAQwGAMqaeEZAOdxMfHIZfLMRj0+P0+XC4nyclJ2OyhJ3iRSERQCKLT66iorKSmpga1RkN5eTlWq5WYmFhKS8twOByNjIJ8lJeXcfLkSXw+H1VVVRQWFnL8+HHy8k7j8Xg5dvw4xcVFeDweLBbLX31p/0VYObX4KV71Nqf5nOd4foqCXoMG0y5uCL2zjRffRZpBhxF7eHu9ifiuXUhKv57ZK5/i7shyyganEWNIJFF2Xi5FsFFdnkLfqTF4rOl0e2o6tw1IQSrxozn1FovuHsLkSf2ZkKXEOHEJG72N9hd5OJVXdp6qRz9mLFrO4cOH+XzRDLo3/lFwPz88Np1Zijf56rG+pF8Qk5ZRdKTqCr8fPc0mb2LPnhd57Jxgu5J9b2WRHX07E9cbsA78hBWl2zj85r08M7wNLV3b2LJ0Jg8MasPEXxqrCaTRadYGPv/ldaauv5G7vyrAtuluxr1wNfdtWMvmr/PYdqg9Gbc+ygdbv+XF2ZtQz2lP0p4v2H+iBqpOs35XPrWiaDSNs3F+D14hHHyH+Vfgw5H3JWvfv56beo7jlY3/x959h0VxrQ8c/y4sLHXpTcACYgF7b4ld7B0Tu9HEbmLvNXYTW2yxJrZExRZ7F3vHBmLBhiDSYReBLez5/QEqIigmeu/93Tuf59nn0WXmTNmZM+85c+adtvSZ4MnRnjJK7OxMPeua1JlznAurKlPzz/qUde9A2zMxCIwRGa6UmdGVjvEhWDZqh//XCpxscgelOpJ27+ZCJoACSzsbEsyr4qF4wXmH3nQa1ps+tUvhrelBg+7zWRZRhmLer7JsaEmMqMeiwBZ4yGVoXJ0pk7iGydNbsGJiQ4qRwGXlN4xP7U7DKfs4r37dNYvuyVx69/Nj7OXO1DTywn/ZWBqsK0+9XZFg2oiukwbit6AV/mavziNz7Mp8w9ixHejW2J74zT8z98U1ts+cz6q1vahTaQDjHuZ1R6kibeYfZvuNVSz9O8H2Kyme+JbwpmitYFJCT7LPpAaucpt8hr/oSA2bwYi6q9lWchpDazlTst8gepWxo2iHfkz7cRiNDDeJzDB6q9ffzsYc85JuGN+P5fl3vZg+rCVVXa3RdfuKGjOPE+Hui/f1V0NXEom3WciWVoUxwQRXZwsST05mWvH1bGtlDnFpKJvVwbtjL9ruvE/cf9dt4P8KUsD9mb148YLYmFjS0tIICwsDICUlhejoaFLVqSQmJpKSnAJAdHQ0BoOBzMxM1Go1Gq0mK3e3To9OpyMz04A+U5/9ycx6qUx2hpP09DQ0Gg3IQKvVYWxsjBACtVqNQqFAo8lAo9FgYWGBPjP7TZaWlqSlpWFsLMfczAy1Wo2NrQ1yEzl6nQ4He3syDQbkcjnm5hakpaVhZ2eLmZk5mZl6lEolVlZWpKenU7hwEUT2K+1fDQ2xUdpgZqbAYDDg5uaGTqdDqbShSJHCyOVyrKyscXFxIT0943WDAWQULVoUrVaLo6MDHh5Zw1scHR2wtbVFo9Fia2eHQvHf0H7Xob45iZ7XJ7FluFXWQy5W8RyZP4z1kRZgUosBod/SVp576IUW1f0wUstVoqyVmrvd/ai8dA5Ld9/Cr4xnnretRPxO1o7vwtez1jBsxX1uyRNJNSgwqVCW8pX70WrgKsb8soMFgdc4N7cVtV4/HKnApXRFrLZc50JBnnEUUYSs6kWrCyPZsLwjNfPogDKEr2LFqo4E1HIt2G6Se1CpUu7cvA74BezmQOJxrs0dwNiGPrirTnPmz0FM7V4El2Yb+Tm6AX6/nGRNdSswXGJvl6YMDlYDIFOWxa+SCWDgZVISCY2q41/YDJBjXqgkhY0TSHt0jR1hGl5M60DrZl1pNvEx7B/F8M6B3HWtQWvdeQ5nZyYxPAjisLYsvp7/Dcel5N/LQMbjXUx/2pm+R44wsfEedmyPwbP9CbaNHsfW379jShtfGta4wIXRjzAk7mL3Fy7IyAStklIecCWuJEUnfkVNm+xLvCFH45AEHpxZxeEYPWCCVYkejGkRz7lzUDPxGTd7jmfhuasEJ3xFT+UBzkTkzL6jwLlmBYrIgZRIouL302O0MT3mhRNYuwxfhZ/mt2VXedZ6Et9f/Yo69b6mzeHnCGTI3Yax5ngv/M2eEHpiA4eOPyRDGBG3qguVjcpQLbQXOwaWxynPfeKMV9MjhKeGErNzEVP61MTEoSw1PU3zmFaG3KUuHco7/4Ne3mc8OeQAQOa9ptT7eRFTrc4T4ZlfyCTHrMhAJv1ujnrYaaJG7WPJk5ksanmcU12KYxQTSqihM73rub15kF3mSvEWg2kgv8H5JFuMY08yrvdWLj95TNzXjWhw4jrhqpzPKhWhXF0nFOhQxT8n/ugv9AwZwHy7/tQvNY2bF/5k4M5qtN9qBwPKULzJTJbHSo9O/ieRhpR8ZrGxsciMZMiN5YSHh2NjY4NKpeZl2ktsbGy4E3YHhamCtPQ0oqOjsbOzIyQkBFOFKVqtlkuXLmNrY0NmZianTgVha2sHQKZez7Vr13B3d+fmjZsYy2W4uLhw9MhRnJyciY+PJyVFhZubG7dv3cLUzJTExCSSk5ORYYyNjZLDhw/j5lYoq1EQK3B0dCAyKgoApbU1Z86cwcHBkZgXMeh0mRQuXJiUFBUJCYm4ubnx5MnT169u/+uv3RTz9katUnH3xQu8vLy4HRKCpYUFcrmcy5cu4elZmMjIKJKTk3Bzc+P582g0Gg2enp7cunULa2trHB0dOXfuHEWLFuXJkyeYmpri5OTElStXKORZCK1Wy40bNyhSpMi/82f9NMQz7oUOYteSEtjceUYvIwe46EiTwdMplhZDZSdTlCYOQDBPryWjafCq8k0n9pGeqvUiCVwUhK7iGJqvUHOugifDJuR9uZI59WL01l6MzvGd/tJRTLS+dGha5b0vmjDy7cC0iCHMOd2eevUc8p3OHg3PjwxgyCA3mhxohm/EXUKxwsYrxwsqdJfZNWcd52ceZrV7QcYZ6km9NYGOU8owbENX/K1fXfBkmDh6USjmNGd2B3L8wG4WhjalXrfmBIyZzDM/l7ezCBi54FDiFitnrqTowEpUfjaLVXu+oPQUJ1zkFalzJJA5W4ujc3yCNvhXdhgaM7jlZMLFtOwCNERvq0Wh/RMIWd8eP3GLuD4DCFiwgUZ99KSt3sL5fltY+87wGYnkYylwbLCBc1884cnj41w834IuS7rw9bN9DDIezfUxVVDoA5lTKBhlGcccmYieEXHvDqe0B6kUtJLJqbWo8EKGT0tjlNVWMHiUJcGlo/B4cp7Dy1LR+idDIUfQBbNv5B60i36lTYO7eF0eQbsXkyjfpwfbA2wx8k7gah5rqQ+/wMbKbTi5uiuV5LA2uDIlHB7htXpM1tCVZv0Znv3iGBmAQoEpgNwSRUYCYdYV8LS2oVKvLWw74v6Bl+VY4VKzdPa/s54ryWzYn6p5Zk16TsjKnnQJ7sG8n7vQ1PpvvKjLkERykilgjKJsBSoXr0oVuT0O1iVxIwyZJpzQWD0BhV6d7zLkFnZY2Q3k5yuhHJncmcFlNnK0dzmcZWoeHdnGn0OXMscmZ8Au0EctZ/K0NsxboqD+9UFcGOFD/B/rqNn1W3o7CIrL1uexcsk8unkPk1or2PVNCRRc5KJXJxyCRnNqTBUUdKb+CxVRz00o5CzVR/9JpB7uz6xly5YUL14cU1NTRo8ejUajoWKlCvj7+yOXyxk0aBC2trZYWVkxcuRIjIyM+PrrrylVqhTGxsZMnjwJlVqFhbkFY8eOxdLCAksLCxwdHenXrx8KhYJ27dtlPWQpDMyaPQutTkupUqVo0aIFjo6OdOzYEXt7e+RyOc2aNsOnhA8KhRkjR44kPT2dUqVK0rBRQ5Q2NrRo0YJixYohkxkxdOhQNJoMKlSoQI0a1TEzM8PT04MWLZpjZWWFv78/VlZW6HQ6xo0bT1xsLF5eXtSoUQMTUxPatW2Lubk5BoOB7t27o1arqVGjOp06fYVaraZIkSL4+pYmIyOd9u3bZ+X0TlXTuXMXEhIS8PX1xdvbm9jY2KwHLVNTcXBwIKBjR9Je/hfkPJZ5UaVLSZxkMkz9BjGq9POsXhVFGXqu8M8a/xi7kKEVWrPgsGeOGR2pOP4iG2rVpuOkofSs4kLClRRKnv2BgOwUYenFi+H7qepa48b03F+NiA4r2ZiSCSZO2JZ2ePO2NZkNDqXd8DJN4MbBp8SWekr48PZ06tSJTp168+3xaACE+hjbR3ZisPM2Toyolk9PVm7pxN46QtDBIIJic2YA0ZG4vwHWjVcw+UF1nAed48HlNfw1vAPdyrjkcfEuSq0JBzlWdRv7+zSm2RpfvINWsbqiFUZlZvD7bicKL/GnSZOxdDnThq+vT2Kow9sXapmFB6UczLMqTVk5WizYxabCS/ilwTJmOa/lwE/NKCGNKpF8KnITUg/NZ5TCDz9nOXJPX9pOqUMpWXFsHH5gQevKVHTIeZLb4mw3kuFDp7Hgsh5xqx8dtH74ehTFf9FhNtRMRxmrRGXxHW1PHWJ3Y0dAoL13h/iZe1nmdp3bGhkYy+HFQx4un06bX3fwx8/jWR32bp4SANMKXpR5tQopkUTqcp4AcszdnXKcixmoosJ4+vQxycae1DC5TYxaRejuVczrX4uafn74+bWn2YbbeeQJB9ChDj9H2LPjnDrwhBJVfXDLc63ieHLlIrePn+HU3+3hNSSSlGyHjaIwbTaOYEDFkhRvu5+Hjfbx46ApbNPkFcRnoI6az5DKWznV6TDnuycQNHkP549OYsEIO5q1Lp9rfRO5d7gsg4K+wS35KRoZmMq1xEaFETRrMiN+/52lc34jrHIeYVqmNX4+r56r0aGKf4FOlmPfy5S4u0tvnfxPI73a/TOrVbsaRjIj7OztiIuNQ5+ZVQGoUlTYO9iTnq7JGmphrUSlVmFubo5GoyFTn4lSqUSrS8dgEDg6OpKYmATZp5AwgJGRMRYWFmRkvCQ9/SX2Dg6kvUzHyCgrv3VGhgZbW1t0mTosLM1xdHQkMjKK9LQMzM3NkcmMycjQIJPJ0Os1uLq5kZCQgAwZCjMFxkbGGMuN0Wq1WJhb4ezszLNnz5DLjbG2VpKRkY5MJsPc3Bx9pgGFmYL0jAxkMhl2trZkZGSgz8zE3NwcC3MLLC2tMBgMyGQy5HI5arX6dUNAq9UikxlhampCZqYBMzMFKSkpGBvLkcuNSUxMRGFuiqlCQVxsLKYKBcsWLPg3/rLv+uevdk8gbOFCgntNo6vdqwpdoA8fRYfqtnR8PJ7uygK0kfWBTGhpw+BDTfK5IGVPdqk71Z/O5FqnwgVYNzXPD3en4e0pXB1ZEcsPz/Au3U0OzYnHY2yDNw9TFYgGlcoIZe6HIHVqVFih/KiyJJJ/vb9dN6iDWHnNhz713JGLRCJjLPFwff+Lz99IJTo0DTu/Ag6tUP3OqEYKOl/qTCX9XYIeuFHP1wZ4wumhl5DP/4paOeNM8RJVmjnKV/n7DefY2D2JSpta4pfXKWm4RdD0QXx/rzIl3T0oXtgZzxKFcVIZ4VSxKE4aNdaySC7HlaDul8VweqcMgS5qHYuHDGZ04gRWBY7lW6e8exVEeiT3XjpS0tHs7wWd4jm3dqTg1rF0ro6BFB6uq0Pps9O4uqY95d7qsI7l4elUrGsXw1kuAzTE7K6PT3tLyq5fyK5uZXDOc2X0qM50o1HEHC51LYL+6XmC7WtS3doIVH8ydEcVfvrGh7ceF3+pItVCiXV2eYbwmXS/05NNrT2kIPs/RF6xtBRwf2Z9vunCi5gYhIAiRYsREnoHK2slWp0u66Uvdkru37uPpaUlboXciI6OxsrKipSUFBQKBW5u7pw4foJKlSuhVCp5cP8BAEobJfZ29qjUKhQKBTqdDmMjY8yyx2IbDAZsbGwwMTEhNS0NmSwr97ZWp0OTocFUYYqdnR0vol9gapr1ineFQoE+MzNrXLeREY6OjiSnpGBkZIQhMxOl0obEpERMTUxxcLAnOTkFfaYeuVyOna0danUqCoWCly/TsLXNeuAvKSkJS0sLzMzMsLOz4+XLNFJTU5HL5Wg0mtcpDlNSUlClvsTMzAylUoleryctLZ3UVDUWFhZYW1ujy9Tz8mUaBoMBKytLFs2b8+/8ad/xzwPu/OQTcP5T6isEJZenXp7jICUSyafy+eqG/zU61Lf2EOTcklYFbnh8YvpE4rS2OOWXFjAn3RNuRDlRvqilFAj/j8krlpaGlHxmfn5lcHLKaiM3bNQIvV6Pj09x/MqUwdraiiZNmuDo5IijkyNNmjTBYDDw5Zdf4ufrh6mpKd27dcfcwhyltZK2bdpiZ2eHnZ0dri6uNGzYEBO5CW3btMVGaYO9gz0jR44kKSkJXz9fatSsgUEY6NG9B5rsV7i3aN6cwoU9MTYyYsrkKajVKsqUKUuzZs1QKm1o3aoVri6uKMzM6Nu3H8JgoHKlSlSrXp3MTD1169albbu26PWZdOjQASdHR7QaDcOGDUOtTsXHx4f69euTlpZGQEAALi7OaLU6+vTpQ0xMDD4+xRk/fjxarZby5ctTv359DAYDrVu3wsnJiYyMDNq3b4vBYKBy5UpUr14dmUxGr169sh7etDCnQ8cOJCR+opem/L+g+PTBNoB1VSnYlkgk/4+YYF2uw78v2AaQ2xcs2AYwKUoFKdiWZJN6uCWST0TqxZJIJHmR6gaJ5H+L1MMtkUgkEolEIpH8i0kBt0QikUgkEolE8hlJAbdEIpFIJBKJRPIZSQG3RCKRSCQSiUTyGUkBt0QikUgkEolE8hlJAbdEIpFIJBKJRPIZSQG3RCKRSCQSiUTyGUkBt0QikUgkEolE8hlJAbdE8h9JT0bMBU5FvOSDr8oQKqKi0j883b+AUN/iTEHW+d9dri6UvXsjyfhU5X2AUF3jVOS/ammS/x4C7Z1fmXQ4nDgB8JKE0Aji9B86EzJIiVShefXfpF38+ONlHujymc8QxsVVlwlNN2R/oSctLsf8n5yG+MuLmHXwQfZ2FYSe1NBVzDn4AJXuETfPRKN677w61OHnCVZpSA3ZwIpLkaT8J1SSkv9ZUsAtkfxHeMypiV/Qq1dFihevjp+fPwGTfmCOdwMqbgtH975ZdScIbOxC6c3h6Au6OO0pNs+4QVyur4U6mMuHl/PnkkHM7FeLhtVK0WB3ZN6Brgjh2ODpLLqT8vrvmXdm0LNof0aEf8ylOonQRZWpvObmO+vziiztAJuLDWfa85xbqCI8cCKLHqg+LhDX3eD4xJb0+esK9wwGMuLv81ClA6Ei/m48KiHQqx5nfZdbPvvtjWjurihPIZkMmawsfr/eJgU9Cdd+pFPD2SyL+txBdwbq51e5cCsu/2BEH8ejuNwNNIFe9YiwhPc03N7adj3p8fcIDY3OO/jTxxOZ8t6jVlIgMuRGt7nQci2BKgMYLrJ7cCmqrrjE7Wh1/gGx4TZHxxSjUuAzAIT6MqHTFvPjkfME7rnNw9yBtyyN56ca025nRPbvH8HNpX7YtV3KtqTM/FcvYRXj2+/gpDprGv2l7/Ab+ieH1Yb85wHAFKU8mH0tf2VTYgaqZ/eJTM9vHjUPf29K7WXX0RjfZFv3I9w1XONw44a0ORr/nmUYSAsZSZ1fQ1A4PedmremsPzqSplUmMfVW8n9EB8W/jg5VZMJHdjAIdFFRxH/OHaUOYsuiK/k3BD/TMnfMOcoF9XuO689ECrglkv8IRanRuhA7D9tRyfMuYfovGTzUHycq0qyqBybvm9W0FKW+sMTe1hp5gZal5tGmH5jkYYldrr/IyCAl5inPzm1gtvVQRqw/xgb/QsjyKkbmjlvJtYz6/RovAEji/uVrJE/px+jiigKtSRYL7AsZEy0U76zPaw7eFDMXxN6+xJEYDZBO0s3ZLOoXyKpVp7n8oev7KyKCqz91oIt8FSdWtKW80WPOz6mK7y/XeHn5W2qUDuDby+EcH18Ov19v5gpo8t9vr6XsYt33gpKHn3Lv13Tu7LrCdYMcx/qbuP7LdX6pNIc1cQVuFn0UoT7InwOLUci9KrXKl6fwd5s49M5FJZKr8yrhPfIgd3J+nbqF+Q3K0XznI9LyLP3NtjsQT+ia2tQtVooyZQrh0mTG2w0J8ZgLM8rjs/JWjv0XzI5uZshkstcfs3lXP2MP6n8PI6UT0SUqUddGhvbGekY/n8rKBpfY2cmbCptzNca1x9jcvj1TvmnJN38I4gd7Y1S5OS1aruB8n5Io7oYRGhxMcEyuxpCsMJ4lPahQ3DH7XPei5qTTXGiWSPy9G+wNS8z7t7Kxw/bAXBbdTAVUPLpxkrsZ1hSz+lBoIcPUtwktCi9guGM5ig9dxbSrcfkEwea4lbbn7p/HOftYhaNxOOfXreWcRRhB/k7ISk9jrSp3BZBOUtgR7j/XknlsFhUWCtwLe+HWYDZ//u6FpSqNvx9uZaB6GJmjoZmzgf6qIRqa9Xmeo1Gke8jNHbfebezkpo/j+av5sz9ZDeHMd8rWYXj7u9fT5iTQR85mWMUVWY02MlBHnGLv+SfE6gX5N7afcmVFfb74PYyXH7V/dKQ+PMTeR+p8fs8cgbyVD2Vk39FyxUkuHV7GunH9GXkq6j0NAx3q+2cIfqde+9Ayc7Dyokjm9wzedoFzRzeyfW4ge178i2oikUseX0kkkgIA/tn5k75RTPaYLGafPir2/D5WLB/gI0quuyvSPzhjrLg8zVcEXFQXbDkvZouervPENnXm299rH4qL91KEQcSKKzPdhc+mx8LwdKxo6TRETL6TmkdBGeL5lprCd1tE1n9TVosJlh1Fn1M3xPnd48Xo7kvF8vspwvBmA4Uq4qQ4t2uKWDq6kqitqC78T8Znrf8Mb1HvcJRQ3TsjLiZocyxDJ1JODxHDujoLmXVzUWven2LLzQviwI8lhdW3m8Sxt6b9EIPQXOsuylhOFWuS9dnfxYors50EPbaIy1srCSgvau47L3Z8bSncVoUJXUH2Wx4yIxeLkU7VRcMjkTnKeCauzCgszCecEtEfsdYFEyOCfyosZPVniWWPokVkB4x+AAAgAElEQVTM/dVicUczYfT9IfHk9TRaob7URdQHQY8dIiTnes30ENT6RfylMeRV+Ott363WC8217qKafKAY/yhVGNJOiy3fWgn5qOPiuRBCaG+IoBmlhA8IxdwrIuPV/MnLxCh5ExFw4pEICQkRISHhIjzlY367/9/+Ud0QNUU09F4pDqnuit31K4s+N5OFEAahfbRCjB20SEw/G5XjGNOJtLi74k58msgIXSGWjG0j2u6+K57vmSx+vHRNHI5IFXn/wrHi8qRqImDPRXEy6o44v2qMWDL+C9G+rFzIqvQSrTffFjF5znhNbPPtIqZE6YTIDBK/FWsnhj14KdJjjoqDv07LtW656LaJOco5YturCXSxIir3caE5IFY3tRY2HduJxqZdRcDqANGk6Bxx5GAXUWxUUP7nkSFK3Nk5Q/w5raxw6L9KbDs2R8wsWk/UmzRWfNN8vTiU33FeEPoDYllls6z6UQghDBfFlo5mwmFpiNDr9oufvHn9e+P90+vty7zVR9Shjmh9Jvm9xesuBghvcpSRfb5G6U6/U/YZ3ROxvavinWlDchaoOSRWFa0jOl1KFAbxQoQsLy98QICVMOv2m7ikSs6uA3PNJ4QQ6t1isXcl0S24gNcWIYSI/UWMVFYUTU/E532sGW6Kv3q6iS+/VAqjis2Eb99Z4pfvCwnLERvFvhnFhKz4d2LMg4y8ZhTayMVivHPZd691H1pmzGIxurxcyCp9IaorigiP7yaKkQ0GiR7rfhdTpkx5/3H6N+V1vks93BLJfwqzBnSYAoq02zy9l0zSFTeKvtjOmAYNaLXn0XuGlejQa3WkPLrN2b3zWTOzB51GbeVwnrfMIrny61YiNnSnY+5eqPQT/FVzGOMfAMgwMUng/IpjpC3+lj4+FnmUpSH95UviTvzG10uOcmHTr+wZUgfF2VtcN/OihOlYvl99Nbv3GxCJRF3dzbkDa/n+TGd6P9vApNtL2LhqKGt2PCbIvx51vmpOzaLjWJjwat3lKGv3pUNLf/pr00naGswT+1JUrVYCXXwsj48vZnloSgF3cAy3Dp0gYeFX9LQxzv5OibuXJzx6SmhUApBCfOx9HuzSY2drmeOOQc79Jsvu0dK8Ho4i0iMJC0sgXWh4fu4b2leNwPLUYY41ds9RhgeVe31DwLyD7EwpaJd8ARluE3wgBtfO7ehbzBVnn040beSOIfklqdmTiJTNLOrzF4nllTlmFGjvzGHGpLIELOhOa9O87mW82fbWVkYYFerEN8fHM6mYJTJzb4p4KDBodGgBffBiBhumMW2s/durFxHMeYMXHooEHupscC7phbfyvfdtJKkn2Tu/PX07zeK40QGW9mzBLyEOhK+bzrBurijKH+Bi2RJU9XHIcYzJMVcmE7FoIRv3n+Re8CF2ty2F+9SrbFm8idXbrvPorS5Agfb2VEZ9V48f5sVw4WgokcINF6NjLCk8j6lDy2DdpBfLupTBWfZmHs3lrnh02sr5TMvs7wyoT89joL0tRgsq4FpiCXNjiuHmZIUxbxPpkUSGBxF8JoiHGSdZOKEfA5o7U9zEGfcyxSlefdabHmvTBnTamkDytqkMqFeLkd0DqG1hhdGLRIr5pnH215EMmnf4zfAA3T2u/DGDDUtHsWzZT/T6xZMSDmouRHlgVy0RjybfMnhNB/zzPM4LyLgi1TrY8vDyPSIAog9yYHsNGlQpgix8Pwci57JNJxBCIMJHEiAHUBF+PoiznOXw+QfvvbMjr76NcJE9f+Zltn/tRLmWlXEK3/tO2XXkCcgyFfhui8j6TgjE+vb4vS5NR+LR2QzvOpPF1ewQd39k+MBC+J6Nw6DdxdLE/ny94R751kZWLfhmjSu7lwdxvyCjPsRjLiybx+q+c1lazyHPO6P66z/TJ3Q4I0c3oFZocfy7VcBRJsMoeDPf3pvNlbCVzHnnDqme1FvjGNZtAn/GvV23FGSZOH/P3BtqouaWpXYHV6olbOXi3ZXsSynPqKlTmVi7UAHvDv8zUsAtkfw7ZV8g1i4ZxIyxXZj68zwWN9/Db3oXwtp3oVaRytSZs5IF9TzfHlaiWsuUojVp3dKTKtbu1JrpSOSV0/z5REmkS3taN/bC6Z2FCfThixix/gdmNHR9t2JSdmbQJh98zLWkpepJ2zWb74zGMtbkIOtmTGPq/P0EvbqwiRAODfCh4fSHYFuGMbVDOXH9Sxo8Evi0bc0A/240b1yWElV9cHtVvqwQpdotYtTUPpRKKUJ1pyL4VPHAxV5L+IM5bMsI48y8asjb1aKxfY7L9Mt4UjUZqIQdRYe1IuDFQqbPOwlpTzmVVJmKha0KuLOf8+SijDrlPHJUrgqcinijuPKAkPAk4AkRj5+RKirjV/jVwJHc+y2eG8urU6JFExoXK4mPf18G9vDF17ceXy9fzcSA3/krej7TfG2RFf+ZwBwjSGQufvgZxRP7siABt5rnp8bSY/ZJQj50G9rIDltXIzQvM7Iu5uIJ9669wMjWEisA8ZiLCyexoN5mVo0t/mY+3Sm2TlnDX4aDBNbwxabtdH7MMSb/3W2XIXdtSf8vC2H8Yi/7VvRn1uIW9O9TgyKAvPo6bk+qj49NzjBLQ0zYdc4ZfmVh7aq0qVgazzazWB6lLcA++B9mWZlazeczb/0YKsurUq7LnyxbJMO582jGTBrMGJ0GzdNYVCa5QgXTclTrVpJC4g4bM6ex7N5Dbi9pz+TSKbiUL4r7Wye+DNMywxk3ZSUTe7rj37gyvk42eDb9hvIv7hF6IQk/h0ds7D6GqbdSXs+jqNSWIYefECVMQe6Ks/l9ts78grnzW1NWJOO+eiknJ3enTwllVj0jQjg02BaZTIZxnYG0mn2KC6fPc1j40qT3JAYvCSPYkB0whk2hjzI7NNHvYUXxL/CtOoQZVgdZ3vRbpoadZKXdRPpbpuLplUzqnKbU7rGZ8wZAboeDoxcWdaczbkITKieaoHQ0Qk1p6rezJzItkUdDfKi1LyrXzv6Icw1HSlTxw2h5EPtT9KhCz/KHUyM6VzAn+eFtTlV/RuDoIXy74sSbhoAII/jIc+xL2JO56ypBBRrPokd9eird705gfhsP1A8v5l32e0Vw/VAEDZqWxxUNMbcucsS7AV2rOyIzKU/5L5Q8vhxOoswhn/nlWNfpxaTNJ9if+KHl6VGdG8HwH0tRo5I5offyHoYkLzefm4tTuXJCQzGHNDSaa5xdV52GPyzk+rpOVJbnFTIL9CoXii/9hX6mOeuNgi0zixmupZ04oe9B9w5NqWXkz9dNS2GZ7/SfnhRwSyT/TnInCrm7YptykGkP/Ok2qRmalp2Z1dKZ5sbbOTd0IYFae3xy9wYqezPp1m9M/fk6Z5MPsNTBlXp9h7BsyHdM/bYt3ZpUpZJ1rr4lcZv9Y/ZRZEdHar0+8x9z+scK+FbxpX0NRzyaj6NPuW7MuJhCImWp75pIRHQEqjt3uHPpANuvx2cFY7IyNF0Rwfk55XCqWBqbx3XpvGoWo/veJnDsIS4ajEGm4eHjmDwrQNP6mSSt+Y5R6U0pL4/m1o+NaK7QkxyTgGMdX0rJAHUQu+dMYc3yVRzee4KTBj0GjYGYkuOZOdEfjy9q0C5tM390X8zamL8/LtrYzZu2mjXMX16JIWPr4TF9EjO0ZfH1NHvPfgODoRVTTgyk48WrXG5ziIPjnnP4ZQ1WPBdvepte93Blk1lhaVXQB4QecGH1IjaOX8yiu+kfmNaHis1L8nLsRFr+vIZ1EzsxYnVFGrerQhE0xB0dQNOFPZgx2R/P7G0wI5PEI5PptbMD3U/d5+mDDfxVbwfry/7Iold3GPLZdtDz8skxTuw/zf6yjjjmDvreoiHNtBLdN1zjqc6AIW07yy2m88Pis0QXcE/8T5IpcSjtiVlaHC6P7pBc0gcbGYinh1kyaRvBogje5Uria5O7DzmdxGfH+WtjB+Ytb4jj/CXsenab4GVPCb8fwcPcbT2ZEnsXU9LU0TwysqXo5Q7ULTWYwMWB/FJ4FHXNrXDuFUDrYjkatjIrFIXtcTJEk6p3xsnKg+qNrhJqVxlfDyXONua5llGGposeEB6eQvq1PVxfO4VBE8Yz0NwKnl/hYgYo8oizDGGH+cmjD8svn+Lajr38vnkY3Yw98HYD2SMQxqVw+f0WD/7olnV8ypzxalweu8AmNGtym0dWGhTu1ehY25uixVy4t2c9B/YE0LqqS64lfcy5JkdZrT3DOEvQ3RjuXw2FXjWpr0jj0a17mDo74V7Ckwo3utGwz2ZOagVEH+TgzpZ8vXAEXS6e4OKDBG4sq4Gfn1+uz6/seVWVGc6xa+YFfKd2pKFpSp5lh2jtwUjLw4Xf4+fnR5UqvrmePUkh8URNKnrlCCvdrFDK4PXdvQ+Re1OsWAwpmg/UW9p9/DZiL9cbl6DMtZEsq9iZtkeevTseW+5EoZotqZSWiInfNtZNDEXXOYwT885y1yi/Ow8m2NYZxtCSVm93FBVomQJd/H0eqRKJM5RluPU65p0ycLl4WTx392FAsxo0/eUsof+CBzf/Fb3oEokkPzJ73Ov2orF2C0an73MsRIWtn5zoqYs4PnECVVNvU6hsXo/oyZArS1FJCSLqEleSgtk9fScdf+tK/Txvl+pRnZvOD55LOF4hZ49wMb4YtZlVNYxxqeHNTqUJEMfVWZXo6dObZQHZFfKQvFZeQ0ZaCndGzGJ20FJWycyQ1Z3Cetay8kRthmGMvd2bW8oiPYKI8CAu7dxLYqQpp79bwNrSZ1lSyIPuF32xJIFbd9Oo2tQtq2KyKkFJ75PcMKpM4Ut7iXZwpHmhO+xv0IhaV51wGtaUp+W+pUMHP+o4q4h8YYmH6/se1rTBzltLWEQCovqbiltm6YyrHZBUEp9WdtSeE8RDN3ucLY3es99A0aYe9dxT2UhtWjUojWNk7sAnD8l3uZ9knP9Dl2+pSJv5h9k+qjQtyuY1pCcna7y6HudhseVsO7iOnSvuEd52PL9/6QBxS/h5aBAWw/rieW0nNx8kQcIjLl4Nw/P2cwzdhjLmSx8K40PhTm2pM+wUF8LTGeZglu+2gwm2NRazYO8PtJ1QnbpzatPprVvZOSnxbruaDa/+K69HswA/9OODOTurwdsNEkkWoSLxwX6O/fEziw5GE9JuCfPKWkEIyFzKULe6I9d37GTv7rI0aVAFP+dXO1Ggi9rEuq53STs0j74lrGCZI1eXNqfVN9P4w/sGF348QqCnPwE9auAnTyLqwmKW9d/F1ZcNqD5JQarox6Id9ixp9pRIcx2mD9Zy6WAoy/Z7YXtwC8ebuCFLfUz0g9XMauGGb0o9BslsKTt8NI0GfUHfLZWodTmPu05yJ7y9c3+poIr1GXbWHsaiuX9xvG/5HENXdCQ/fY7zkJqUOeaPd+cgolyK4kB1aoeF4xU9jq/2/MajxWUpkrNIWVFK1ymJ2s6MFhUPs+37ppwbfZrnvb+k28qZ7F51kuUuuQ+6jznXAJsGNOg7nt7BJ/hiYxpVf/LDFisqDLrMAxNPPMyNIMWKCMfVbLrehvLxJ9hkZEX1U/uwNYrgRnAyw5vNYKpz0tvlulShZnY1YgjdyOJzQxi4ww0ZsjzL3nCjKjUy5Ti17M1UnwxAgVllL0zft+7RqahEJuqwszxJ/XR3mfTX/2Dh1YFMfT6fsS6g8m+KQ68t7H066t1zXFYEdwtbPH9aQK8mWgYEluTa2vLU/Mgu4IItM5P06wMpNc2dqtXL0qt8dVqEBLO1UGcc2w+iW8VB1G53lIu9auFn8g+GGhWA1MMtkfzbybFQ2iMLTiHWLBODthCNl3al0KxBLOhTnxY27ztNk7i/dyt7528huPVyvpp9jui8Guq6s2wfIKPzkC/xzlWnyMz9qNOk1Lu96PnSkfpoB/sXNKLW/v5suL2a1V7B7J/fhi7efRkS9xWjGlrwPDw6xzjoeO780Ybyrc5wuOomzm0fx/jyWu4un8rSWZOZXlwBmTcJ/rUqvoWzL3iyQpQO6EfH6N1s/nIiw1XPubgSql7QobvYEM8aTRjWugb1PK2RR69i+LGYD6x3YSo2Ksnd7We4kHNAvI0HHvaAd3HKlfTE1Q2wsMfJ0ui9++3jqXm0ZzVLu/vT0a0gUaYMuUtdOpR3xqwgxcvsca89gUHti5OU1IKOY1tTywj0j86wI0zDi2kdaN2sK80mPob9o+j29R6eCCtkRgKRfcwIvSZHVoW8tl3N4z0BfLHsRtbYcJkbRf3ccq/J2wyX2PdtQ3qcTcz+Io3EmASo4ol3Adoo/5OilzK66mY2l/+TIzv74nkrR7e0WVFqNKuMk2kXeg8qRcKO69lp1VKJvTiQhm2eY9n4PupZFbCXyTBqNIedETLSDlxie2JRzGrVws/JCns0PPq9DoUnmOB+8Dgzu4Zw5+QW1v25gMVdNxM0shMdH01nlcdEhiy+QZD+FCeauCHT3eDY7NksCfiB/Vu70UydffCYlKLqlw7cemmBVqspYNo9OekV5rMqZDydN1zg4lujFkywb3mAO9+UwdbGhvjR50g91pn6xiWpV7cqJT0scClTBPd3yjTF2j2AGT8Xp2imK5XHT6Prni1sPXSdJ3IPvIo5YAYIjYY34eZHnmsUpVzd4qgH9uD7Z11oUsEeRDT3/ggm/FX2EoUSpZEBW1kyN07exKhrfRo6N6TdEAO3Dt8kwqsRAQEBb3++LIaTDOAF1/cd4P7UVnylNMq37KxVN0LpUyG7jNa08rLO0Qvsikf7C5wKSQaMsbSzQ/40gTj1LQKHNKVWnxCMbC0wEe8Z4pZxh3uPPbM7IN7vhYk73g5yXl3TjBPyPwqEkcAt/CiBPgk8PHSCB+Z/r4L98DLlWJesSskm3VnktpSRN7xxqeVB+cBDnEq1xaNsRWza1qCR8vOHw1LALZH82wn0ei1GTSpQL+ERjx+Hsls0ompRAyLxAcee5PfCF4E+cgnzJrRjetcqeLWbwszTbak76xjX3sppqyF2/0TG9B7HRO+PSdeXnwxUD7Yw/Hw/fvttIN3dzcCyBIUtylDt2DYOfO2Ls7jOjb1qbCxe9bU44tfnOslPVrO2eWk85Kk8PzSYLhFzOd4zmcM/7OTaX4sZ41cPf4/swF9EcXtBJ3pbLudEf3eU8npMDhxAGzkY2SiJWbmdZcEPCH90g9uHtvLXzfAPDFEwwb7xBJbHD6X3phypruTeFKuhgCqeeNgWo5iXEdT2orJc/wn3m0AfuZB5fYvQYUADyhTo2vKckJWNKddvYx7p/fJbzG2OrNjFzYmjWVzNFsj1EJbI4PnWStBjBw/Cx9L2Cy+qbVjNyD/Pc/NWIDuWbWRbrXb0r6DIZ9vNcbDPJGPoXHrvPsP5I5NZtuI+9hW9KJrfOhm54OBxl+0rt7AsKIizu75n1mgZJVtVptzn7VD6/6vQeNak7OOvlkUw02vQOQNoSYp/wOF+tSk82kBaVwcIuYHmzkJWXE1CxOzl18dD+OPiUOoqS1Nh8V0ShcAQ9CuzRgbQ6q4z9QKa061JEwJal8XNxAyvb66Tur8XbVIv8iQyDkXlb5k6fQeLjs5mbMxYBq+oRvmiDth52mcPQwBEApHh09m5vDtVlSaAjrhHR9g2ogZ1rwzn5HElGTUaUmXhPvY8Ssl/TK1eQ9YoBRlyj76MP9ef1gW62yGnlNjOH+NMKFrI7p3b9IbwMfQo15s+m+MJu1cKj4odmfJbIa6uqsqofd5c+3EXJ7Tp3Bu3lL9ej0T72HPNDNdy1akF0KIerQuZAPE8uvIdfVed5dqTs1xc+ROL9DWo6/mU80tcqPpVD6aP+JHuAdVw33SOIwnvWY7+DMenedCglk/WMxj5lF29uBkIA6oHNwgMDMz6vJVn3ZkyDUtzNfAi94UcZaUWDDTsY+3OdEq19sKKMjRu4IsNWXe9jpw5k13OcYJiNICG2EMrmDu8Oe3f2/EDxh6+dNaeYN3hO0REHOPgthPo+pWnWp6/qQUeLUtxZ+QLejc6zcTonoys5pnVMx+9hjmXU/Oa6W8vMzP6IREKW8r5N6bc9uWMX5bA+RZd+LaCFQZVHOoyTrgWaIn/UEFSmUgkkg/jb6X+ChOHBlkJWZXeouOqQ+La6X7Cd+RS8WujMWLKjWfiyaFWop5RTeE7bpmYsvumCNe+SnqUJhJDZ4pRVSaKOa9T7xmE5s4w8bWXkVA0+UF033ReXE3RCpGyWox1nJIjFd6HfGSawbfEiduLKog6jZxEMVl/MSUyj9RvhihxZ3VDUXXheXFfaxBCZIgXu2oKa5m/aHoi+q00gomxacIgslJqOTgsFYdeb4JKRJ36QYwMKCwqyYoLp2YDRMDWOyL2g+uXlVpqnGt5UWvDq1RnUeLCVAchH3VcJIkbYm8fK6GYe0XoUrbks9/ixPVl1YTvihtC93yBGFZqvFjwPOn1d+8mtNIKVegUMdS1jmh6OKIAaR5fyVoXvL8TY8PzSpP17rZlXOokSskHiCnPNPlMkyGi97YWpYYdEHeEEEKoRNTRb8R3Nc0E+Ajnnr+I1ZEZHzhmcszj3VTUXHBahGhzJuOKe3dfqE6LA7PLi6pWCFmlr4X/+lv5pJn77/T36gYhMiMXibFfmAh67BCPxDUR2MqjAOdljlR9wiB0KU9E/LV+or5i7psUfG9RiahDrUR9WUcxMCxdCEOCiDo9THxTeaL4eccEMfsrB2He/iexOjKPYypqiuiqmCM2JsaKO/Fp2eeuVqhCfhJTuweI4d/5i04Hn+eZqi3zVh9RNd91yr2KZ0TgrWQhoqaINm6rxMnMDBF98aGIzfMY0omXsSlCJ66Jbb6tRLdfBwr/aUfEtbRMIUS8uLumiigyZIIY7JFz2R97rgkh9AfE8mqmOdKHGoQ28jextG8h4Y2bULaYKMbfTBK6W31ENdMhYvbz7IUlLxOj5DXenx7w+QIxpMJ8sTHx1fmXd9kGcevdtID0y/7ts2VeFwe+KS3q73sqtEIvVDdGie9rmgmsyghX69Ki05HHWWkB3yrDW/huixDayJ/FcIe+76lPcspVl/TfJA6q8r7mGNJuiLM/+4sGv98WCRc7i8KT/hIHQ5+IiDv7xYmFFYTz0tsiz6Shuj1ihW+AGHjtVZragi1TdzFAKOdcETpDgngWnf37Gu6Jcz+uFAeXVhaWc67kUW//M3md71LALZF8In/3ompIey4i07JyO+suBgjraeeF6vVf1SLmxi6xbds2EXj5mUjOvsAYYraLOeuviJC03DmhtUIVslL8PGWKmD17shi7/LyI0UaInSc+Js9orLg8qYroc+vlR29L1spdF391KJV/cBl7Rux9+vKti3Dms53il4vR+QejL2aLqu3358gp/U8YhC5yoxi9LUzklV38Ne3tj9xv71nesw3ix4MfE2xnz5n2TITFpeeTO/kz+mTbLhHin+Xhznz2mxh75JnIFOHiSKfaYuzTD+UvV4lnQfeyGzRaob4/W0yoaSbspp55T97qSHHjlyDxNP2E2NxyhBi2N/hN3aJ7KIJXdhPDrqrenU9/Rqzvsi+78faRomaKOpUC3839/N55pghf320FnOehONN2uFiYkCsAM0SKkPV1RV3Z24Hpv+1c+xcwqPaI5XVmig0pOa8XWpFy45y4k+/h9FicHd5MDLmZ/An3iUFo7swQrQYvEytD4rOCXEO0CN87UgwLCBABAQEiYNjyXO9v+AS0YeJkaO4GjkHonk0T/Uwa5ero+TTyOt9l2X94TSaTkesriURSADJZ1j3Xf3T+qM+x/XEZOpSzyTuf6L+EjqRju7j5ZQD1/km+WolEAnyiugEQL1WkWiix/qjTUof67i1ivSvh/ZkfCvs4BjQaAwrFRzw1qz3LygNF6NPW8x9mfBDoVGkYlJZ8ikF2kv+v9KTFpWHspPzkx0FesbQUcEskn8inuqhKJJL/LlLdIJH8b8krlpYempRIJBKJRCKRSD4jKeCWSCQSiUQikUg+IynglkgkEolEIpFIPiMp4JZIJBKJRCKRSD4jKeCWSCQSiUQikUg+IynglkgkEolEIpFIPiMp4JZIJBKJRCKRSD4jKeCWSCQSiUQikUg+Iynglkj+a7wk6uQ69rzQfJ7iMy+xb+h6AiP/aflqIveeJ1T3gZeAiEQiP9e2SCQSiUTyLyQF3J9R7BX4eTh06gETgiAlj/hCJMKKr2DkBSjIO8gMT2BCJ+iU/Rm0HDbdAyks+W+RQVJcHKroYELPr2XjyF9Y8UD1nmNDT0b8FW4enMWvY2tQu90Wpq08z4O/8UI7kR7FI5Uu/wmMfanU6giTZh/i6otQQoNWsfzII+I+allqnh/uSpM+2/jrmfZ9a4P2+lDKN1hKoDrzYxbwHhpeHOhP942nCYpJL9D59kYGqmf3iUw3fKJ1kUgkEsn/Eing/kxiT8DX1WH6bbCIh1/qwxd/QHrOiQRcXAKDEqGaH8gKUK4hBrYGwuE4SE6G0J+hexVodxKkUOD/qwzUj3exZfA45t4+y/YGftT/PZS90UUoXmoLP/QP5FSeP65Ae2cRQ9ed5NCGOUywXcmFuN3s+bYGxd85mAT6mFMcP7qRQ+t78F25HnQ5do1La6fy2/w+TP2uCBYV+9Fp7XVevDWfmofbutFmcA9GtnbHa8JDrDa0pXrvX+gz9z4P4mOJ1Rc0dNWRerk/9XtUZND1OYz3UrxnWhmmlRZyfsQfDJ5ygoef5I3YpjhUak77uPmsb+SOa6/ZjN17jeD3NTIA0JN6qTetik5j9pP0D0wrkUgkEsm7pID7c9DClolwqgccPwi/74fdI+D2DPhD9WYy1SWYPA38x0OA8uMW4T8HjhyBoHuw42s4OBH2va/DUPKfyXCWP+r74b/zESH3FzN/fyrWjn70L3+O/WNukOHignmT8tTM80zVoko1prLdU1JVWhLH1aaQ/ZfUGLedI9p3I1SRFMgPvaOJqgK/q08AABPaSURBVD2F7h2ukmSsJPPJBlbb9cf/xxCS7+7j6rBquL41lzXebbvT5nldOs6ezWireKyM29J1xnBmlPyDg8KRkiYFaSoC2v2saXYdry3fM9DdrAAzOFCy+yTGrZ/EuMuqD0/+QTJMXFvTbvhf/HY9lEv9bfC70p/BLlUpPmI5c46H8TCvHuzUQFYM30HI/FHMK235CdZDIpFIJP9rpID7MzA8gv0XoFQLqCIHZFDVH9zuQtDD7InSYN0YuDIeVtYrWO92nkygZmPgPATHZ32legaR2R1xehWEJbw7XEUVBaEPQfVJeg4lf5tRbQL+usXpYRUoEvo1A7t/iXclBVF+X9EyLhMTO5P3zKzAoWwTarnGceZcX4adD+X2waEsb3iH2xMC6Fm/J98cj0IPgAwTnxYM0N/nxsVZ/LG8DtVLeFDMtwQefiWoaHSN82unMvfyCzJyL8a0CK4mv7A6whldckNaDYkk7G4I9zaVpKqvK/ICbahAc+NPJvmNYExdhzfHuz6Ohw9V6NIjCYtSoRMqEsIevxm6YdqUTiv07Dl6B/VH7NYPkrtRtMZAuv94hXNJ29jVOAr51qb42bWi9sw/2Bb5qvWawN1NPzJWPodfvy2HFG5LJBKJ5O+QAu7PwJACDwG/wm++s1CCBXAnIuv/9zbCpNOgWA1FlFBiIpz8mxFF1EPADZwtAT386gP+O+DcQqjlDr7D4U72tEING/qAuweUKQ4unWBN1N/eVMk/lkbcqd58N3gsE+xrUc8tndgL5pD6gseFPHDLI942hP/MoO6D+K5PRyb0/JJKvU5zubSa0O2BrLieznWTuhSu051Wcycwvqrzm4DY+EvabbJENvkB+mOLmOpuBMaJHApoR9WFITyLCmTyrKNcyz1kWn+bkL1OpP0+lOUPzjD3qC2Ovw9kfN2+DCxvVcDt1JL4JBxdy7d76/XXBtGwRBPq1/fCt1QrAnpUoaZvOYp/s5ULBgAzXEtXwOpmFBG5i9Td5syibxl8LPLdRkIBifQHhJ3bw6XL5wnaZo7Ht/X5slwZKruYAAJ9+GymjrqL4fRwOrnVoMTEXZz8ZGPKJRKJRPK/Qgq4P4M0FaTl87cMLYhImDsK9F1g9GY49Se0OQXNB8P5Dw0nzRZ6GFaugEXDYcAEcB0JnW2y/iYrBOE/QOOz0GAzbPoOPAAE7BsOvR7DiMvw+DrMlkPfAXBIGpr6b2JJoZajaaUOIamaPYWIIS3FAo+I4+xv7IDu6UM0uW5/GBXvz5SRjfHvN4sfFkxlVLozpVtXo0HKLuJ3jGL20iNcLFaPjtVK4KN8FbEn8mDPGs6VnEiPXimE/7Wc70/HIzLtaRq4h9tz+lCvmDlFAr6glnGuVTSuTfOlXeg8bQtru8YgD5jCqnlj+a5YCofXHSEosYAHbT7kBnsKzT7C6iYX2WsxnR17ayOORhKZ3clt5OCBy508hnrE7WDNsLUsm7aPUwWOgQV6dSh3js9hxZjKVHbtQcAOAw8r/syPEbcJXzqS2a3K4W0iA+5xfNFKApsvZf3dpzy+0JthT3rSaOIxnv6jLZb8X3t3Hl5VfSZw/HvOPffcLblZLiEEoyi7SsW101E7QtXKAEUc5bEuuNbpWNzGKlbbqtWO0mlLrVo7IjDWWhmhWnfHfVyZUYeKiksRFA0h603ufs/eP+I5kJCYaIkb7+d5eB6Ss/zufSC/++Z33vf9CSHEzkYC7mHgr2b7cmtgY6Hn7zGg42W4NQ8XXAPfPwL+YTZcvQhG3QbL3xraGE1PwfU3wi2rYZel8My5UPPhMUUFcxIs+U9YNAdOOhSqAG8jLFsK+58PVxwEu+8LZ/8r7HM//GGI44odzSb/0mLO7zqNs1afxXcf34UZK+dR/9ojbF79EI+n9+KwCaPQe11TwcipcznuqzW0/Nev+UP9Rt7/S4nS4Zcx/cYHWRZbSVOpb9QcI5L5PT98uhnXjrHrtHksPGgEippl9eITmabuwVdu259Jle6HKSgAOTb87lscd+oczrvmGq676ESuuXkCNe/dzKxfVnLY0R1ot81ixtK1Q+iSEyJRU4O77v3tOqg0RaYx7+tjqNWjTD7iYPasS6IUtp5kf/AGG/brZ6oafRE/X3M/T/3xdI7q+3b71cErv92bKSPPYf6jVWS+eTurWp5n3U0LufZbU9mr9DzPrljApUdNZf7/5cF+jbVLLSYfN4dTJu3G7lNOZ+6cCbgPvsaL9uCjCSGEEL6hpV+Kj0WNQwPQ1AGYsHw+3NUIJjC5Aexm8MbC/rtsvUZPwUQgO9DSeB9HLYKVf9f/MS8HY34EJ/YpxHQ64HVg/1Fbc8YjjTAVeP19YL+hv0exY7ibb+L7l07nlntO5dBNh/BwdTWR3HP8+Ml/YdGIx9g88zEe2S0MZHl71Vsk5n2152kFFvkXL2Dmqz/lrqt+yZw/x9nl3ad5b8JC5h5W1c9IMUZP3JPKTRqKq0HuTe68fDXjkmn2PvNP3HtnPdv3DKlk7PQpvL3pcl6+7UCUNafSuOsMHp51L5fNXc0LV/6MY2fczIo9+ru2L43k/rM4e+Z9LP/xTBaPH0rRJECWja+sgX0WMn67YxWM3G82I4d4J0ix97x7eOi08YyNqYBNufUZnr1nFU88dA+/WjeDaSfPZN71V3PlpAp6fvOoQMXFAxRcLOtvW80XQgjx5eR5HooycEWerHAPA3UMTJ8Ar66BnA6HnAzPPgof1MDXJkAkAZUbYfV7W6/p2gBrFRg3auD7DpWXgURi+39cbTzMUmHtO1tbCGZeh6eA/cb+7eOKj6uTNx8Zyz8/cAYzKsNUTJnLYU0XcMgpk1i0agHT94oS0T784fXWs/ZnT7LaBrDIv3ox0xdMY9lvjmG3iEf2v3/FefeZvLGpFSNk0J7ZNqu5J41i/dvvsWnZhfzTPV9BSddw1FUz2AXATLP++eXc/eszueTUgzjg3BU8kuv5H6JoEXQXQvyZB35+N2ZmE6usBSy81iXmeuBUML5hiC12UqfwvRteZMmlK3mqny4q/crezYpL92DekZO3D+pzD7Ds1IP4xtK1tA3pdgrhEWMZnX2GZ1cs4Mr5Y6j/x9/ziy3fYPwla/jg/5dx74XHcvKk2p6xtIM49Ac6b9y0nCuff503X1rELb/9C7XnHMFMWaoQQgjxoe7ubpqbm2ltbSWdTgM9Afi25GNjOCThpAvhuu/BUXE4z+pZ8W4/BWaPhJq/h0sOgasXQPYEODoEd14M3hVw9m6D3v2TS8HJP4UbroRjMnByAh5bDB3nwcIpwziuGECKvc+YHXzltT3OHW0X8KfVE2nU8mycWmDVL/4DZWwTdW2Ps2LtYZyWNWl/8XSOX/ddbn3h6+wd7uDldzoZN/dc5ub+hw2LL2Op14Wx77ZJzUXanv83TnniaC66/NucfXAjVQrAWu5/t4X/Xfc7Fk0dy5SJJ3Dg6BkcGJnM+GhPoG9/8AbvxGbjsA9HXL6O9ZPHUKcAZpTQfdfxwI0qkW8OKZ8DSDHpzDu4991j+Pb5Grf9+/EcHq5j3LgkEUJoI8aza0yFD7/X6HWwevEV3HTxSl7fr5/izPyrvPjEGl4w3mDDGVMZOWirH4v0g4dTf2kDhx43i3kLLmb9gWMYqQ104e4c/MOHeTJ6Fj+ZfzVXqUdywHce4ukFU6VbiRBCiF4qKirwPA/X7VmwamlpQdd1UqkUAIrXJwRXFGW7qFx8Aha8dCssugHuLsKcMXB/Ep67Cw5Wwd4MyxfDkiWwZiJ87VhYcjFM+agucIDzJpxwHIz7I1y7Z38nwO0z4b4fwMrpg7+uA86E68+Bgyt3xJveufmPknbYz4/XxntP3MFdz3WTazyQA2ZMZ3Zjok8LyRwbbj+H34z7CWcmI4wZdT+LxjxF8ZVbWTx+8EQPr5AlH09SOVDM6bXz5lsRJu+Z7DNuhg3LD2XikpO49dGFzE9+jIdl1ms8/aP1eFcfwzR9wIEx13yHqXccz6prj2RKv72+bUrtm+is2IPG2BDHt3JkqSA51N7hO1hnZyeqqlJTUzP4yeJLY4fPDUKIz5VcLkcmkyGRSOA4DnV1dWQyGVpbW5kwYQIgAfenxmuFBy2Y3fhZvxIxXD4fH6oW2aYsemOKoWZJf2K5t3jFGse+tYP8ligAMAwD0zTp7OykurqacDhMLBZDVSWz78vu8zE3CCGGQ7lcplAoYNs24XAY27apr6+nubkZXdeprq4mFApJwC3EjiIfquKjpNNpTNMkFothWRaO4xAKhbBtm9raWnRdH/wm4gtJ5gYhvryam5uJxWKUy2XC4TCO4zBq1Ciam5uprq4mFosBksMthBDDzrIsyuUynucFnU78xQ3P8wiH5SmBEEJ80RQKBTzPw7ZtVFUlHA4Hv1jruh4E2yBdSoQQYtiFQiFCoRBVVVWYpomiKLiui+M4VFVVfWQrKSGEEJ8/lmVRKpXQdR3DMNA0DcdxgoC7b62OBNxCCDHMisUijuOgKEoQXIdCITRNIx6PD3K1EEKIT5PjDL59cWdnJ6FQiEgkgqZpqKpKuVwO5vi+9TkScAshxDAzTZNwOEyhUCASiWAYRlBcI4QQ4rNXLpfp6Oggk8mwZcuWQc/3UwQ9z0PX9aAl4ECF8BJwCyHEMHMcB03TKBaLxONxLMtCURQikcFbNwohhBhemUyGfD6PbduUSiWi0SidnZ0Dnl8oFIKi92KxZ4twx3GC1e7+SMAthBAfk2EYZLPZIZ/rui6u61JdXU17ezsVFRUUi8VeBTVCCCE+XaVSiWKxiOu6GIYR1Nt4nhc8jezLtm1c18U0TTRNQ9O0YGXbcRxM0+x3LAm4hRBiiBzHIZfLUSgUUBSFpqamjzy/XC7T1dUV5G67rht0JNE0jVBoqLt0CiGE2FFc1yWXy5HP5ymVShiGga7rRCKRoKDddV2y2SzlcrnXtS0tLeTz+WA12/M8DMNAURRUVaWurq7X+el0mmw2KwG3EEIMplQq0dnZyZYtW4LKdL/bSLFY7Le/smVZZLNZIpFIkOtnGAaxWAzbtolEItIOUAghPkXFYpFNmzbR1taGYRjk83kURSEWi+E4DqVSiUgkgqqqtLW1EQqFiEa3biOXyWSoqKhA1/VgC3foKZD091TYluu6eJ7XE4x/au9SCCG+gAqFQs/qhKoSj8exbRtd14MuI+3t7XR0dGx3XS6XIxQKBY8a/cnZD9K3DbZt26atrW1IlfFCCCE+nmKxSEdHB/l8nng8HqSBjBgxIjju99JWVRVd1xk/fnwQQJdKJVzXxbIsXNcNOpH43af8BZS++duFQiEI5CXgFkKIfhiGQUtLC9lslng83qsi3c/xi8fjVFVVoWkahUIhuNbfCKFcLmNZFqFQKJjEXdclFov1yt/OZrNYlkVTUxObN2+mpaXls3jLQgjxpZPJZGhtbQ02GfOLHf15ulgsEolESKVSOI4TpAFalsW6detIp9MUCgXef/99VFUNnmj6OduKogQ7B/c3djgc7sn33vaAH7HLJgxCfHLy8yOE6I/MDULsPBRFCYJ0RVF6B9z95SEKIcTOolwuk8/ngxSQYrGIrutBVxFd1zFNE8/zghXriooKQqEQlmURDofZvHkznueRSqXIZrMkEomgyNLfJKGioiIYs7u7Oyio7Orqor6+PlgVCYVC2+UECiGE+GiFQoFCodBrRdp/MrltXnUymSSdThOLxYhEIsGTxy1btgQpJ+3t7QBEo1Fqamro7u7GMAyi0SiWZeE4DtFodLu52rZturu7gyej/TcLFEKInYSfu2cYRjAJ+xXq0WgURVGCidt/bOh5HtFolK6uLjzPo1wuB2kjAIlEgq6uLuLxOOVyOZiQLcsimUz2Gt/P27Ztm+rqarLZLLquo6pqr2IdIYQQ/fMXSPy2fJ7noWkaiqIEbfw8zwv++BvVeJ5HXV1dr9xrP/VEURS6urqIRqOYphmsVNfW1qIoCh0dHcF5fVu82rZNOp0OrgmFQhJwCyF2XtlsllKpRDgcDtpB+UUx/gTst33yg+6GhgYA2tvbg7ZQ0WgUz/NIJBLU1tZiGAblcjno4er3au27AmKaJpZloWkauq4HKQf+mLLtuxBCDK6tra3Xbo+WZWHbdlCcbts2yWQSTdNobW1FVdWgNWvfQkd/1dqfh/3Pg20XVYCg4LI/HR0dJBIJTNPEdV0JuIUQO6dSqUShUAgKIP3dxRKJRJDe4R/zV5xTqVSw4pzP50kmk5imGaxk+9u0x2IxotEoDQ0NdHZ2YhjGgDtK+gWVnucFK91+Ic+2LaeEEEIMTNM0TNPEtu1gDi6Xy5imSTQaJRwO09nZSTKZJJVKYZpmsCASiURIJBLBvfwVcv8zwJ+j/e8PVovhb3YWDoeDhRppCyiE2KkUCgXS6XSQk6dpGoZhBCkf5XIZRVEIh8PBzmOJRIL6+vpe6R2qqpLJZDAMI5hMTdMkEon0qlRPpVKMHj2aUqlEZWXldq/Htu3gkaefxhIOh4PHnEIIIQbnt/mrrKzEdV3y+TwAVVVVhMNhHMehoaEB27aDjlKxWCwIpNPpdHAvXdeDjlJ+a1e/7d9QCp/9riemaQYLKaqqSsAthNg5NDc3BzuKxWIxNE0LcrL9IDkajeK6btBrW1VVqqurt7uXHyTD1kk7Go2i63q/m9k0Njb2O1Hbth2M7x/3X0Pf3c2EEGJn1d3dHcy5/fHnaV3Xg3SSUChEqVSiXC7T0NBAqVQK0vQMwwhqd/zPgm13DvbbBm47bw/0pHJbuVwOx3FQVbXX6rbjOPwVysbs+OgY01MAAAAASUVORK5CYII=;" vertex="1" parent="1">
          <mxGeometry x="40" y="40" width="732" height="204" as="geometry" />
        </mxCell>
      </root>
    </mxGraphModel>
  </diagram>
</mxfile>
